<?xml version="1.0" encoding="UTF-8" standalone="no"?>
<svg
   width="100%"
   height="100%"
   viewBox="0 0 83 40"
   aria-label="RA logo"
   version="1.1"
   id="svg2"
   sodipodi:docname="ra.svg"
   inkscape:version="1.4.2 (ebf0e940d0, 2025-05-08)"
   xmlns:inkscape="http://www.inkscape.org/namespaces/inkscape"
   xmlns:sodipodi="http://sodipodi.sourceforge.net/DTD/sodipodi-0.dtd"
   xmlns="http://www.w3.org/2000/svg"
   xmlns:svg="http://www.w3.org/2000/svg"
   xmlns:rdf="http://www.w3.org/1999/02/22-rdf-syntax-ns#"
   xmlns:cc="http://creativecommons.org/ns#"
   xmlns:dc="http://purl.org/dc/elements/1.1/">
  <defs
     id="defs2" />
  <sodipodi:namedview
     id="namedview2"
     pagecolor="#ffffff"
     bordercolor="#666666"
     borderopacity="1.0"
     inkscape:showpageshadow="2"
     inkscape:pageopacity="0.0"
     inkscape:pagecheckerboard="0"
     inkscape:deskcolor="#d1d1d1"
     inkscape:zoom="11.144578"
     inkscape:cx="41.455135"
     inkscape:cy="19.964865"
     inkscape:window-width="5120"
     inkscape:window-height="1440"
     inkscape:window-x="0"
     inkscape:window-y="0"
     inkscape:window-maximized="0"
     inkscape:current-layer="svg2" />
  <title
     id="title1">RA</title>
  <g
     fill="none"
     fill-rule="evenodd"
     id="g2">
    <path
       fill="none"
       d="M0 0h24v24H0z"
       id="path1" />
    <path
       d="M82.092 32.018c.556-.533.908-1.28.908-2.113 0-.802-.38-1.523-.9-2.051L58.665 4.3l-7.073 7.11 18.45 18.543h-26.14c-1.278-.038-2.29-.469-3.147-1.304l-11.73-11.788a6.828 6.828 0 00-4.689-1.888l-.017.001H10.004v-4.92h14.825c2.938.002 5.559 1.21 7.48 3.15l8.749 8.793 7.073-7.11-8.92-8.963C35.485 2.234 30.45 0 24.805 0H0v25.027h20.978v.002a4.919 4.919 0 013.486 1.48L35.95 38.053A6.74 6.74 0 0040.449 40h31.733a4.911 4.911 0 003.423-1.45l6.491-6.524-.004-.008"
       fill="currentColor"
       id="path2" />
  </g>
  <metadata
     id="metadata2">
    <rdf:RDF>
      <cc:Work
         rdf:about="">
        <dc:title>RA</dc:title>
      </cc:Work>
    </rdf:RDF>
  </metadata>
</svg>
