<?xml version="1.0" encoding="UTF-8"?>
<svg id="a" data-name="Layer 1" xmlns="http://www.w3.org/2000/svg" width="100" height="100" viewBox="0 0 100 100">
  <path d="m9.95,13.17c-.552.339-1.329.509-2.328.509-.866,0-1.709-.14-2.53-.42s-1.545-.677-2.171-1.192l-1.422,2.53c.515.425,1.099.789,1.752,1.091.653.303,1.351.532,2.094.688.742.157,1.502.235,2.278.235,1.306,0,2.423-.194,3.352-.582.93-.388,1.636-.952,2.122-1.69s.728-1.627.728-2.664v-.023c0-1.104-.232-1.975-.694-2.613s-1.039-1.101-1.73-1.389c-.69-.287-1.55-.531-2.58-.733-.045-.007-.088-.017-.129-.028-.042-.012-.084-.02-.129-.029-.029-.007-.059-.012-.089-.017-.03-.004-.06-.009-.09-.017-.716-.141-1.272-.276-1.668-.403s-.728-.327-.996-.599c-.269-.273-.403-.644-.403-1.114v-.011c0-.56.258-.994.772-1.304.515-.31,1.243-.465,2.183-.465.627,0,1.282.119,1.964.358.683.239,1.338.575,1.965,1.008l1.298-2.597c-.523-.358-1.074-.664-1.657-.918-.582-.254-1.177-.448-1.785-.582-.608-.134-1.203-.202-1.785-.202-1.269,0-2.35.196-3.246.588-.895.392-1.579.961-2.048,1.707s-.705,1.646-.705,2.697v.012c0,1.186.25,2.103.75,2.748s1.109,1.097,1.825,1.354c.716.258,1.619.472,2.709.644l.246.034c.023.007.043.012.061.012s.039.004.061.011c.62.097,1.127.205,1.523.324.395.119.716.306.962.56s.369.597.369,1.03v.011c0,.62-.276,1.099-.828,1.439Z"/>
  <polygon points="21.507 16.444 24.574 16.444 24.574 3.123 29.007 3.123 29.007 .168 17.074 .168 17.074 3.123 21.507 3.123 21.507 16.444"/>
  <path d="m35.886,9.895h1.86l3.669,6.549h3.717l-3.892-6.711c.379-.101.735-.246,1.065-.442.683-.403,1.211-.972,1.584-1.707.373-.734.559-1.587.559-2.558s-.186-1.823-.559-2.558c-.373-.734-.9-1.304-1.579-1.707-.679-.403-1.467-.604-2.362-.604h-7.13v16.287h3.067v-6.549Zm3.817-6.783c.321,0,.601.078.84.235.238.156.423.381.554.672.13.291.196.627.196,1.007-.007.381-.077.717-.207,1.008-.131.291-.316.514-.555.672-.239.156-.514.235-.828.235h-3.817v-3.829h3.817Z"/>
  <polygon points="60.47 16.444 60.47 13.488 52.635 13.488 52.635 9.84 59.239 9.84 59.239 6.884 52.635 6.884 52.635 3.123 60.47 3.123 60.47 .168 49.568 .168 49.568 16.444 60.47 16.444"/>
  <path d="m68.432,13.836h5.963l.914,2.608h3.302L72.388.168h-1.948l-6.224,16.276h3.302l.914-2.608Zm2.981-8.507l1.946,5.552h-3.891l1.946-5.552Z"/>
  <polygon points="85.53 5.101 88.53 14.631 91.239 14.631 94.239 4.885 94.239 16.444 97.027 16.444 97.027 .168 92.985 .168 89.884 11.138 86.784 .168 82.743 .168 82.743 16.444 85.53 16.444 85.53 5.101"/>
  <polygon points="49.431 83.555 46.364 83.555 46.364 99.831 57.266 99.831 57.266 96.876 49.431 96.876 49.431 83.555"/>
  <rect x="60.817" y="83.555" width="3.18" height="16.276"/>
  <polygon points="79.416 95.471 73.628 83.555 69.879 83.555 69.879 99.82 72.811 99.82 72.811 88.088 78.576 99.82 82.348 99.82 82.348 83.555 79.416 83.555 79.416 95.471"/>
  <polygon points="87.558 83.555 87.558 99.831 98.461 99.831 98.461 96.876 90.625 96.876 90.625 93.227 97.23 93.227 97.23 90.272 90.625 90.272 90.625 86.51 98.461 86.51 98.461 83.555 87.558 83.555"/>
  <path d="m10.601,84.132c-.9-.496-1.939-.744-3.118-.744s-2.219.248-3.118.744c-.9.497-1.595,1.198-2.088,2.105s-.739,1.957-.739,3.151v4.612c0,1.194.246,2.244.739,3.151.493.906,1.188,1.608,2.088,2.104.899.496,1.938.745,3.118.745s2.218-.248,3.118-.745c.899-.496,1.595-1.198,2.087-2.104.493-.907.739-1.957.739-3.151v-4.612c0-1.194-.246-2.244-.739-3.151s-1.188-1.608-2.087-2.105Zm-.353,9.946c0,.567-.114,1.067-.341,1.5-.228.433-.55.767-.968,1.002-.418.235-.903.353-1.455.353s-1.038-.118-1.455-.353c-.419-.235-.741-.569-.968-1.002-.228-.433-.342-.933-.342-1.5v-4.768c0-.567.114-1.067.342-1.5.227-.433.55-.767.968-1.002.417-.235.903-.352,1.455-.352s1.037.118,1.455.352c.418.235.74.569.968,1.002.227.433.341.933.341,1.5v4.768Z"/>
  <polygon points="16.857 83.556 16.857 99.832 19.924 99.832 19.924 93.373 26.315 93.373 26.315 90.418 19.924 90.418 19.924 86.511 27.547 86.511 27.547 83.556 16.857 83.556"/>
  <polygon points="31.21 83.556 31.21 99.832 34.278 99.832 34.278 93.373 40.669 93.373 40.669 90.418 34.278 90.418 34.278 86.511 41.901 86.511 41.901 83.556 31.21 83.556"/>
  <path d="m31.234,30.661c.903-.817,1.856-1.578,2.864-2.26h-7.09l4.227,2.26Z"/>
  <path d="m41.806,29.823l-5.313,3.068.287.736,10.765,5.757c.803-.182,1.636-.281,2.493-.281,4.768,0,8.867,3.042,10.454,7.204l11.398,6.095v-5.217l-3.218-.524c-.15-.898-.374-1.721-.674-2.544l2.544-2.095-3.068-5.313-3.068,1.197c-.599-.674-1.197-1.347-1.946-1.946l1.197-3.068-5.313-3.068-2.095,2.544c-.823-.299-1.721-.524-2.544-.674l-.524-3.218h-6.136l-.524,3.218c-.898.15-1.721.374-2.619.674l-2.095-2.544Z"/>
  <path d="m83.931,58.841c.731-2.746,1.128-5.623,1.128-8.589,0-8.307-3.068-16.015-8.082-21.852h-11.001c7.034,4.715,11.599,12.797,11.599,21.852,0,1.686-.162,3.337-.468,4.94l6.823,3.649Z"/>
  <path d="m95.146,64.838c1.521-4.599,2.336-9.514,2.336-14.586,0-7.932-2.02-15.341-5.463-21.852h-8.681c4.266,6.211,6.735,13.77,6.735,21.852,0,3.821-.558,7.522-1.591,11.022l6.664,3.563Z"/>
  <path d="m0,25.467l7.438,3.977c-3.173,6.262-4.92,13.367-4.92,20.808,0,7.931,2.02,15.337,5.46,21.847.001.003.004.005.008.005h8.66c.007,0,.011-.007.007-.013-4.185-6.209-6.726-13.762-6.726-21.838,0-6.202,1.462-12.09,4.067-17.303l4.524,2.419c-2.233,4.499-3.502,9.551-3.502,14.884,0,8.307,3.068,15.94,8.082,21.852h11.001c-7.035-4.715-11.599-12.797-11.599-21.852,0-4.058.938-7.917,2.595-11.367l4.832,2.584-.318.551,2.544,2.095c-.299.823-.524,1.721-.674,2.544l-3.218.524v6.136l3.218.524c.075.898.299,1.721.599,2.544l-2.544,2.095,3.068,5.313,3.068-1.197c.599.674,1.197,1.347,1.946,1.946l-1.197,3.068,5.313,3.068,2.095-2.544c.823.299,1.721.524,2.544.674l.524,3.218h6.136l.524-3.218c.898-.15,1.721-.374,2.619-.674l2.095,2.544,5.538-3.442-4.714-9.354-3.517,2.095c-1.646.973-3.592,1.422-5.538,1.422-4.789,0-8.905-2.993-10.477-7.259h14.065l19.636,10.5c-1.922,2.95-4.394,5.502-7.285,7.46h11.001c1.05-1.238,2.013-2.552,2.88-3.932l4.478,2.395c-.321.521-.652,1.034-.998,1.538h3.873l12.788,6.839v-5.918L0,19.549v5.918Z"/>
</svg>