<?xml version="1.0" encoding="UTF-8"?>
<svg id="a" data-name="Layer 1" xmlns="http://www.w3.org/2000/svg" width="100" height="100" viewBox="0 0 100 100">
  <path d="m56.085,59.981c-1.646.973-3.592,1.422-5.538,1.422-4.789,0-8.905-2.993-10.477-7.259h27.539l4.789-.823v-6.136l-3.218-.524c-.15-.898-.374-1.721-.674-2.544l2.544-2.095-3.068-5.313-3.068,1.197c-.599-.673-1.197-1.347-1.946-1.946l1.197-3.068-5.313-3.068-2.095,2.544c-.823-.299-1.721-.524-2.544-.673l-.524-3.218h-6.136l-.524,3.218c-.898.15-1.721.374-2.619.673l-2.095-2.544-5.313,3.068,1.197,3.068c-.673.599-1.347,1.272-1.946,1.946l-3.068-1.197-3.068,5.313,2.544,2.095c-.299.823-.524,1.721-.673,2.544l-3.218.524v6.136l3.218.524c.075.898.299,1.721.599,2.544l-2.544,2.095,3.068,5.313,3.068-1.197c.599.674,1.197,1.347,1.946,1.946l-1.197,3.068,5.313,3.068,2.095-2.544c.823.299,1.721.524,2.544.674l.524,3.218h6.136l.524-3.218c.898-.15,1.721-.374,2.619-.674l2.095,2.544,5.538-3.442-4.715-9.354-3.517,2.095Zm-5.538-20.879c4.789,0,8.905,3.068,10.477,7.259h-20.954c1.572-4.266,5.687-7.259,10.477-7.259Z"/>
  <path d="m97.992,50.252c0-7.932-2.021-15.341-5.463-21.852h-8.681c4.266,6.211,6.735,13.769,6.735,21.852s-2.47,15.64-6.735,21.852h8.681c3.517-6.511,5.463-13.994,5.463-21.852Z"/>
  <path d="m17.162,28.414c.004-.006,0-.013-.007-.013h-8.66s-.006.002-.008.005c-3.516,6.51-5.46,13.991-5.46,21.847,0,7.931,2.02,15.337,5.46,21.847.002.003.004.005.008.005h8.66c.007,0,.011-.007.007-.013-4.185-6.209-6.726-13.762-6.726-21.838s2.466-15.63,6.726-21.838Z"/>
  <path d="m23.008,50.252c0-9.055,4.64-17.137,11.599-21.852h-11.001c-5.014,5.912-8.082,13.545-8.082,21.852s3.068,15.94,8.082,21.852h11.001c-7.034-4.715-11.599-12.797-11.599-21.852Z"/>
  <path d="m66.487,28.401c7.034,4.715,11.599,12.797,11.599,21.852s-4.64,17.137-11.599,21.852h11.001c5.014-5.912,8.082-13.545,8.082-21.852s-3.068-16.015-8.082-21.852h-11.001Z"/>
  <path d="m10.46,13.17c-.552.339-1.329.509-2.328.509-.866,0-1.709-.14-2.53-.42s-1.545-.677-2.171-1.192l-1.422,2.53c.515.425,1.099.789,1.752,1.091.653.303,1.351.532,2.094.688.742.157,1.502.235,2.278.235,1.306,0,2.423-.194,3.352-.582.93-.388,1.636-.952,2.122-1.69s.728-1.627.728-2.664v-.023c0-1.104-.232-1.975-.694-2.613s-1.039-1.101-1.73-1.389c-.69-.287-1.55-.531-2.58-.733-.045-.007-.088-.017-.129-.028-.042-.012-.084-.02-.129-.029-.029-.007-.059-.012-.089-.017-.03-.004-.06-.009-.09-.017-.716-.141-1.272-.276-1.668-.403s-.728-.327-.996-.599c-.269-.273-.403-.644-.403-1.114v-.011c0-.56.258-.994.772-1.304.515-.31,1.243-.465,2.183-.465.627,0,1.282.119,1.964.358.683.239,1.338.575,1.965,1.008l1.298-2.597c-.523-.358-1.074-.664-1.657-.918-.582-.254-1.177-.448-1.785-.582-.608-.134-1.203-.202-1.785-.202-1.269,0-2.35.196-3.246.588-.895.392-1.579.961-2.048,1.707s-.705,1.646-.705,2.697v.012c0,1.186.25,2.103.75,2.748s1.109,1.097,1.825,1.354c.716.258,1.619.472,2.709.644l.246.034c.023.007.043.012.061.012s.039.004.061.011c.62.097,1.127.205,1.523.324.395.119.716.306.962.56s.369.597.369,1.03v.011c0,.62-.276,1.099-.828,1.439Z"/>
  <polygon points="22.017 16.444 25.084 16.444 25.084 3.123 29.517 3.123 29.517 .168 17.584 .168 17.584 3.123 22.017 3.123 22.017 16.444"/>
  <path d="m36.396,9.895h1.86l3.669,6.549h3.717l-3.892-6.711c.379-.101.735-.246,1.065-.442.683-.403,1.211-.972,1.584-1.707.373-.734.559-1.587.559-2.558s-.186-1.823-.559-2.558c-.373-.734-.9-1.304-1.579-1.707-.679-.403-1.467-.604-2.362-.604h-7.13v16.287h3.067v-6.549Zm3.817-6.783c.321,0,.601.078.84.235.238.156.423.381.554.672.13.291.196.627.196,1.007-.007.381-.077.717-.207,1.008-.131.291-.316.514-.555.672-.239.156-.514.235-.828.235h-3.817v-3.829h3.817Z"/>
  <polygon points="60.98 16.444 60.98 13.488 53.145 13.488 53.145 9.84 59.749 9.84 59.749 6.884 53.145 6.884 53.145 3.123 60.98 3.123 60.98 .168 50.077 .168 50.077 16.444 60.98 16.444"/>
  <path d="m68.942,13.836h5.963l.914,2.608h3.302L72.897.168h-1.948l-6.224,16.276h3.302l.914-2.608Zm2.981-8.507l1.946,5.552h-3.891l1.946-5.552Z"/>
  <polygon points="86.04 5.101 89.04 14.631 91.749 14.631 94.749 4.885 94.749 16.444 97.536 16.444 97.536 .168 93.495 .168 90.394 11.138 87.293 .168 83.253 .168 83.253 16.444 86.04 16.444 86.04 5.101"/>
  <polygon points="42.876 83.555 39.809 83.555 39.809 99.831 50.712 99.831 50.712 96.876 42.876 96.876 42.876 83.555"/>
  <rect x="55.01" y="83.555" width="3.18" height="16.276"/>
  <polygon points="74.358 95.471 68.57 83.555 64.821 83.555 64.821 99.82 67.753 99.82 67.753 88.088 73.518 99.82 77.29 99.82 77.29 83.555 74.358 83.555 74.358 95.471"/>
  <polygon points="83.248 83.555 83.248 99.831 94.151 99.831 94.151 96.876 86.316 96.876 86.316 93.227 92.92 93.227 92.92 90.272 86.316 90.272 86.316 86.51 94.151 86.51 94.151 83.555 83.248 83.555"/>
  <path d="m11.737,84.132c-.9-.496-1.939-.744-3.118-.744s-2.219.248-3.118.744c-.9.497-1.595,1.198-2.088,2.105s-.739,1.957-.739,3.151v4.612c0,1.194.246,2.244.739,3.151.493.906,1.188,1.608,2.088,2.104.899.496,1.938.745,3.118.745s2.218-.248,3.118-.745c.899-.496,1.595-1.198,2.087-2.104.493-.907.739-1.957.739-3.151v-4.612c0-1.194-.246-2.244-.739-3.151s-1.188-1.608-2.087-2.105Zm-.353,9.946c0,.567-.114,1.067-.341,1.5-.228.433-.55.767-.968,1.002-.418.235-.903.353-1.455.353s-1.038-.118-1.455-.353c-.419-.235-.741-.569-.968-1.002-.228-.433-.342-.933-.342-1.5v-4.768c0-.567.114-1.067.342-1.5.227-.433.55-.767.968-1.002.417-.235.903-.352,1.455-.352s1.037.118,1.455.352c.418.235.74.569.968,1.002.227.433.341.933.341,1.5v4.768Z"/>
  <polygon points="29.884 95.472 24.097 83.556 20.347 83.556 20.347 99.821 23.28 99.821 23.28 88.089 29.044 99.821 32.817 99.821 32.817 83.556 29.884 83.556 29.884 95.472"/>
</svg>