<svg xmlns="http://www.w3.org/2000/svg" viewBox="0 0 760 176"><defs><style>.cls-1{fill:none;stroke:#1d1d1b;stroke-linecap:round;stroke-linejoin:round;stroke-width:5px;}</style></defs><title>entropy-logo-teksti</title><g id="Layer_1" data-name="Layer 1"><polyline class="cls-1" points="103.69 136 42 136 42 86.73 42 43.96 100.8 43.96"/><line class="cls-1" x1="74.35" y1="87.26" x2="42" y2="87.26"/><polyline class="cls-1" points="140.73 136.45 140.73 43.28 201.88 136.18 201.88 42.13"/><line class="cls-1" x1="235" y1="44" x2="311" y2="44"/><line class="cls-1" x1="274" y1="137" x2="274" y2="44"/><path class="cls-1" d="M344,137V44c37-3,57,2,57,23,0,18-26,24-26,24H344"/><path class="cls-1" d="M410,137s-23-46-40-46"/><ellipse class="cls-1" cx="480" cy="89" rx="40" ry="48"/><polyline class="cls-1" points="648 41 684 91 718 41"/><line class="cls-1" x1="684" y1="137" x2="684" y2="91"/><path class="cls-1" d="M563,136.8v-93c37-3,57,2,57,23,0,18-16.73,25.61-26,27.2-7.64,1.31-31,0-31,0"/></g></svg>