<?xml version="1.0"?><svg version="1.2" baseProfile="tiny-ps" viewBox="0 0 300 300" xmlns="http://www.w3.org/2000/svg" xmlns:xlink="http://www.w3.org/1999/xlink"><title>Entropy ry</title><g><g fill="#1c1c1a" transform="matrix(.1 0 0 -.1 0 300)"><path d="M1277 2993c-2-5-10-46-17-93s-16-94-20-104l-7-19-73-19-73-19-7 8c-4 4-35 43-70 86-34 42-64 77-66 77-7 0-360-204-372-215l-13-12 35-94c20-52 36-99 36-104 0-13-102-115-115-115-6 0-52 16-104 36l-94 35-8-8c-9-9-219-372-219-378 0-2 38-34 85-71s85-69 85-71c0-15-34-140-40-146-4-4-54-16-111-25L5 1724v-448l104-18c57-9 107-21 111-25 6-6 40-132 40-146 0-2-38-35-85-72-47-38-85-70-85-72 0-6 211-368 220-377l8-8 94 36c51 20 98 36 103 36 14 0 115-103 115-117 0-6-16-53-36-103l-35-93 13-12c13-11 365-215 372-215 3 0 98 115 131 158l11 14 69-18c39-10 74-21 78-24 4-4 16-54 25-111l18-104h448l18 104c9 57 20 106 23 109 5 5 131 41 146 42 3 0 36-38 73-85s69-85 72-85c11 0 394 245 394 252 0 14-330 668-337 668-3 0-59-34-123-75s-150-90-191-109l-74-34-77-16-77-16h-142l-77 16-77 15-103 50-103 50-82 82-83 82-36 61c-20 34-39 71-43 83l-6 21 933 1h933l155 27 155 27v449l-104 18c-57 9-107 21-111 25-6 6-40 131-40 146 0 2 38 34 85 71s85 69 85 72c0 7-210 368-220 378l-8 8-94-36c-51-20-98-36-103-36-14 0-115 103-115 117 0 6 16 53 36 103l35 93-13 12c-14 12-364 215-372 215-2 0-35-38-72-85s-69-85-71-85c-15 0-140 34-146 40-4 4-16 54-25 111l-18 104-221 3-222 2-4-7zm359-32c-7-11-125-81-137-81-11 0-139 79-139 86 0 2 63 4 141 4h140l-5-9zm-240-62 84-52v-282l-100 100-100 100v17c0 31 22 168 27 168 3 0 43-23 89-51zm313-24c6-42 11-84 11-93v-17l-100-100-100-100v282l83 51c45 28 85 52 88 52 4 0 12-34 18-75zm-703-96 57-70-38-134-37-135-8 5c-5 3-36 55-70 116l-63 110 12 27c19 41 81 152 86 152 2 0 30-32 61-71zm1110-31c19-37 34-72 34-77s-23-49-51-98c-70-119-80-135-84-131-2 2-20 63-40 136l-37 133 58 71 57 71 14-19c8-10 30-49 49-86zm-1263 14-38-72H646l11 11c13 13 227 137 231 134 1-1-14-34-35-73zm1487-63v-9h-156l-34 68c-19 37-36 70-38 74s49-22 112-58c64-37 116-70 116-75zm-986-58 99-99-49-7c-27-3-89-15-139-26l-90-19-77-34-78-34 7 27c13 54 71 252 74 255 8 6 115 34 134 35l20 1 99-99zm491 81 60-17 32-115c18-63 35-127 38-142l7-28-66 31-65 30-103 24c-57 14-125 27-152 31l-49 6 99 99 99 99 20-1c11 0 47-8 80-17zm-964-182 67-115-8-3c-12-4-254 58-264 68-9 9-66 149-66 163v8l102-3 102-3 67-115zm1509 116c0-14-55-153-64-163-11-11-276-84-276-76 0 4 96 171 127 221l13 22h100c55 0 100-2 100-4zm-910-266v-120h-41c-22 0-72-7-112-16l-72-16-73-34c-174-80-306-211-390-389l-24-50-114-95c-63-52-124-102-136-110l-21-15 6 71 7 71 24 84c32 109 66 186 123 273l46 71 81 84 81 83 89 59 89 59 79 30c103 40 179 59 275 69 43 5 79 9 81 10 1 0 2-53 2-119zm213 96c40-8 115-30 165-49l90-34 88-54 87-54 86-86 86-86 54-87 54-88 34-90c46-120 80-308 58-308-3 0-64 50-135 111l-130 110-47 92-47 92-90 90-91 90-80 42c-44 22-109 51-145 62l-65 22-72 6-73 6v227h49c27 0 83-6 124-14zm-899-67c67-17 127-34 133-38l13-7-60-43c-68-50-186-170-226-231-15-22-29-39-31-36-2 2-20 62-39 132l-34 129 5 16c6 18 99 109 111 109 4 0 62-14 128-31zm1592-11c25-23 50-50 55-60l9-17-30-123c-17-68-33-129-36-137l-4-14-49 64c-56 73-153 169-225 223-27 20-47 36-45 37 2 0 58 15 124 34 66 18 128 33 138 34l17 1 46-42zm-1958-47c40-15 77-32 82-37 7-8 80-274 74-274-1 0-55 31-121 68l-118 68-3 102-3 102h8c4 0 41-13 81-29zm2230-73-3-102-115-67c-63-37-117-68-120-68-3-1 10 62 29 138l35 139 76 30c41 16 81 30 88 31l13 1-3-102zm-2348-20v-83l-70-37c-38-21-72-38-74-38-3 0 20 44 51 98 68 119 82 142 88 142 3 0 5-37 5-82zm2464-44c36-63 62-114 58-112s-37 19-74 38l-68 34v156h9c5 0 38-52 75-116zm-1069-14c150-47 275-131 368-245 41-50 107-161 107-180 0-3-306-5-680-5s-680 3-680 6 17 38 37 78l37 71 86 86 86 87 105 50 104 51 70 15 70 16 110-4 110-4 70-22zM437 2093c54-31 104-61 111-68l13-12-136-37-136-38-70 57-71 57 9 8c14 14 158 90 170 90 7 0 56-25 110-57zm2311 23c37-19 76-41 86-49l19-14-71-57-71-58-136 38-136 37 9 9c16 16 206 126 220 127 7 1 43-14 80-33zM551 1918c-36-80-67-191-80-291-6-43-11-81-11-84 0-10-195 200-198 214-2 8 6 44 17 81l20 67 128 37c70 19 133 36 140 37l12 1-28-62zm2039 19 114-32 20-78 21-77-102-102-101-101-7 49c-3 27-15 90-26 139l-19 90-34 78-34 78 26-6c15-3 79-20 142-38zm-358-214c18-16 79-67 136-115l102-88H526l14 14c8 7 70 59 138 115l123 101h1397l34-27zM430 1523c0-2-62-3-138-3H153l-52 86c-29 47-51 87-49 89 1 1 41 9 88 17l85 15 103-101c56-55 102-102 102-103zm2518 172c2-2-20-42-49-89l-52-86h-282l103 103 103 104 87-15c48-8 89-16 90-17zM83 1571c20-32 37-64 37-69 0-13-69-130-81-138l-9-5v282l8-5c5-3 25-32 45-65zm2885-143-3-73-42 67c-24 37-43 72-43 77s19 40 43 78l42 68 3-73c2-39 2-105 0-144zm-2636-51-103-104-87 15c-48 8-88 16-90 17-2 2 21 42 50 89l52 86h281l-103-103zm2236-2c28-58 52-110 52-115v-10H801l-98 82c-54 45-115 97-136 115l-37 33h1985l53-105zm331 19c29-47 51-87 49-89-5-5-241-45-264-45h-19l-56 110-55 110h293l52-86zM496 1246l23-99 30-63c17-35 28-64 25-64s-66 17-140 37l-134 37-20 64c-11 35-20 71-20 80v17l98 98 97 98 8-53c5-29 19-98 33-152zm153 85 123-104 19-45c11-25 40-75 64-111l43-66 64-61c35-34 88-77 119-97 106-68 253-117 352-117h47V497l-79 7c-231 19-438 116-610 288l-72 71-54 81c-63 96-97 170-131 285l-24 84-7 70-6 70 14-8c8-5 70-56 138-114zm-210-309 133-38-122-71-123-71-67 37c-36 20-77 43-90 52l-23 15 69 57c38 31 74 56 79 56 6 0 70-17 144-37zm112-211-36-139-81-31c-45-17-84-31-88-31h-7l3 102 3 102 115 67c63 37 118 68 121 68 3 1-10-62-30-138zm210-40c30-29 82-75 116-101l62-47-134-37-135-37-18 10c-21 11-102 97-102 108 0 5 11 49 24 98 14 50 30 109 36 133l11 43 43-58c24-32 67-82 97-112zm1277 17c-22-84-44-158-50-165-5-6-42-25-81-42l-72-30-100-19c-55-11-126-23-157-27l-58-6v231h48c26 0 76 7 112 15l65 16 110 54c61 29 133 70 160 89 28 19 53 35 57 35 3 1-12-68-34-151zm223-139c77-155 139-283 137-284-2-2-51-7-109-10l-105-7-77 135-78 136 31 118c18 65 36 135 41 156 5 20 12 37 14 37 3 0 68-126 146-281zM240 853l70-38V646l-14 14c-16 19-137 230-130 230 3 0 36-17 74-37zm673-330c-20-38-51-93-68-123l-31-55-102-3-102-3v8c0 4 15 44 33 88l32 80 130 36c72 20 134 37 138 38s-9-29-30-66zm171 22c79-35 198-65 289-72 42-3 77-9 77-12 0-4-45-51-99-105l-99-99-78 20-78 19-38 129c-38 131-41 145-34 145 2 0 29-11 60-25zm860-102c-19-71-36-133-38-139l-5-12-76-18-76-18-99 99c-55 55-100 103-100 106 0 4 32 10 72 13 85 9 235 46 298 74 25 11 48 21 51 21 4 1-9-56-27-126zm-921-19 38-135-56-70-57-71-8 9c-19 19-91 164-88 176 5 21 121 227 127 227 3 0 23-61 44-136zm1073 9 62-108-41-75c-22-41-46-81-52-88l-13-14-56 70-57 71 37 136 37 136 11-11c5-5 38-58 72-117zm-616-141V153l-86-52c-47-29-87-51-89-49s-9 43-16 91l-12 88 99 100c54 54 100 99 101 99 2 0 3-62 3-138zm231-149c-7-48-14-89-16-91-2-3-42 20-89 49l-86 54v280l102-102 102-102-13-88zm644 173c-47-32-233-146-239-146-4 0 53 114 69 138 2 2 102 14 175 21l14 1-19-14zM850 243c19-37 36-70 38-75 2-4-49 22-112 58-64 37-116 70-116 75v9h155l35-67zm728-165 67-43-72-3c-40-2-106-2-145 0l-73 3 65 42c36 23 71 42 78 42 7 1 43-18 80-41z"/></g></g></svg>