<?xml version="1.0"?><svg version="1.2" baseProfile="tiny-ps" viewBox="0 0 300 300" xmlns="http://www.w3.org/2000/svg" xmlns:xlink="http://www.w3.org/1999/xlink"><title>Entropy ry</title><g><g fill="#fcfcfc" transform="matrix(.1 0 0 -.1 0 300)"><path d="M0 1500V0h3000v3000H0V1500z"/></g><g fill="#d5d5d5" transform="matrix(.1 0 0 -.1 0 300)"><path d="M1275 2980c-6-10-18-78-32-176l-5-40-52-12c-28-6-60-14-72-17l-21-7-67 81-68 81h-13c-12 0-341-186-369-209l-14-12 39-101 39-102-54-54-54-54-96 36c-53 20-102 36-109 36l-12-1-105-184c-58-102-106-189-108-193-1-5 36-39 84-77l86-68-7-21c-4-11-12-43-19-71l-12-50-70-12c-38-7-87-17-109-21l-40-7v-450l97-16c53-10 103-19 109-21l13-4 12-50c7-27 15-59 19-70l7-21-86-68c-47-38-86-70-86-72 0-8 204-359 216-372l13-14 102 37 102 38 53-54 54-53-39-102-39-102 12-10c26-21 360-211 371-211h13l63 80 64 80 25-4c14-3 48-11 76-17l52-12 5-41c10-71 28-169 33-178l5-8h427l10 13c5 6 12 35 16 62 4 28 11 73 17 100l10 51 69 18c38 9 73 15 78 12s35-39 68-80l59-76h12c19 0 384 230 390 245l5 13-164 322c-90 177-168 324-174 327l-12 4-103-67c-118-76-193-116-276-146l-58-21-126-4-125-5-84 21c-149 39-253 102-362 220l-63 68-33 64-33 64 953 6 953 6 120 24 120 24 3 226 2 226-42 7c-24 3-73 12-110 18l-67 12-10 41c-5 22-14 54-19 71l-10 31 84 67c46 38 84 72 84 76s-48 91-106 194l-107 186h-13c-8 0-55-16-106-35l-92-34-56 53-56 53 39 98c20 54 36 102 34 108-4 13-359 217-378 217h-15l-65-81-64-80-20 5c-11 3-43 11-72 18l-52 12-10 50c-6 28-13 74-17 101-4 28-11 56-16 63l-10 12h-427l-6-10zm285-79-64-39-56 35c-30 20-57 37-59 39s52 4 120 4h124l-65-39zm-90-205v-131l-95 95-94 95 10 75c6 41 12 81 14 87l4 13 81-52 80-51v-131zm231 141 12-88-49-46c-27-25-70-66-96-91l-48-46v262l83 49c45 28 83 49 84 49 1-1 7-41 14-89zm393-95 44-82-61-110c-34-60-64-110-67-110-6 0-70 230-70 250 0 14 100 143 106 137 2-2 24-41 48-85zm-1084 14 51-65-37-130-37-131-64 111c-35 61-63 115-63 119 0 13 83 160 91 160 4 0 30-29 59-64zm1223-16 78-44-23-9c-12-4-42-7-67-5l-44 3-36 65-35 65 24-16c14-8 60-35 103-59zm-1385 0-33-60h-45c-25 0-55 3-68 6l-23 7 93 53c51 29 97 54 101 54 5 0-6-27-25-60zm501-114 94-94-59-7c-84-9-197-39-281-74-40-16-73-29-73-28s17 61 38 132l38 130 59 17c33 9 67 17 75 17l15 1 94-94zm485 76 59-17 33-120c19-65 34-125 34-132v-12l-62 28c-71 31-204 66-293 76l-60 7 100 94 100 94 15-1c8 0 42-8 74-17zm-952-178 67-115-17 5c-9 2-65 17-123 31-59 15-111 30-117 34-6 3-24 41-40 84l-30 77h193l67-116zm1488 112c0-12-58-148-66-155-5-5-56-20-114-35s-113-29-123-32l-18-6 16 32c9 18 39 70 66 116l50 84h94c52 0 95-2 95-4zm-890-256v-110h-29c-16 0-63-7-103-15-239-50-431-196-538-411l-38-74-132-111-132-112 7 54c46 351 244 633 550 786 105 52 280 99 383 102l32 1v-110zm232 83c396-87 698-410 759-812 7-44 10-84 6-87-3-3-62 42-131 101l-125 107-25 54c-33 72-78 137-145 208l-56 59-72 47c-110 72-275 130-374 130h-29v222l63-7c34-4 92-13 129-22zm-907-63c65-16 120-31 122-34 2-2-11-14-29-27-55-38-178-160-224-222l-43-58-7 28c-4 15-17 70-30 121s-24 100-24 109v17l47 48c26 26 53 48 59 48 7 0 65-13 129-30zm1575-22 51-53-6-25c-24-105-59-230-64-230-3 0-19 18-34 40-48 67-125 146-197 201-38 29-68 55-66 57 6 6 220 60 243 61l23 1 50-52zm255-103-7-95-106-63-107-63-2 10c-2 6 12 65 30 131l32 119 80 32c44 17 82 30 84 28s0-46-4-99zm-2193 68c40-14 74-27 75-27 2-2 55-197 66-244l5-23-31 19c-18 11-69 41-114 67l-83 47v94c0 52 2 94 4 94 3 0 38-12 78-27zm2345-192 26-44-64 35-64 35-3 79-3 79 41-70c23-38 53-90 67-114zm-2474 97 6-67-64-34c-36-19-65-33-65-30 0 5 114 202 116 200 1-1 4-32 7-69zm1376-50 73-20 70-36c138-72 276-216 321-334l6-18H829l33 62 33 63 90 90 90 91 55 31c30 17 88 42 129 57l75 27 70 8c39 4 103 6 141 3l70-4 74-20zM452 2078c59-34 106-63 104-65s-59-20-126-39l-122-35-37 26c-20 14-51 39-69 54l-34 29 44 25c51 29 121 66 128 67 2 0 53-28 112-62zm2289 20c43-24 79-46 79-50 0-3-29-29-65-58l-64-51-78 21c-43 12-102 28-132 37l-53 15 108 63c60 35 113 64 117 64 5 1 44-18 88-41zM550 1903c-36-86-66-200-75-288l-8-69-93 100-94 99v15c0 24 28 122 38 132 5 5 65 24 133 43 68 18 125 34 126 34 0 1-12-29-27-66zm2019 26 104-28 8-13c4-6 15-41 24-77l16-65-93-93c-51-51-95-93-99-93-3 0-9 30-12 68-7 90-36 192-92 326l-8 18 24-7c13-5 71-21 128-36zm-252-296 126-108-477-3c-263-1-690-1-949 0l-472 3 130 107 130 108h1386l126-107zm-1977-13 92-100H174l-52 85-52 85 23 5c21 5 120 21 143 24 7 0 53-44 104-99zm2503 85c37-4 69-11 72-15 2-4-18-44-46-88l-50-82h-264l100 100 100 100 11-4c6-2 41-7 77-11zM130 1500c0-11-59-110-66-110-2 0-4 53-4 118v117l35-58c19-32 35-62 35-67zm2810-2v-123l-41 63-40 63 37 59c20 33 38 60 40 60s4-55 4-122zM339 1382l-94-98-55 8c-30 4-69 10-87 13l-32 6 52 84 51 85h258l-93-98zm2208-7c29-55 53-103 53-107v-8H808l-122 102c-66 56-125 105-131 110l-9 8 974-2 974-3 53-100zm325 21c27-43 47-81 44-83-3-3-63-15-134-26l-128-22-57 108-56 108 141-3 142-3 48-79zM520 1177c17-50 38-103 46-118l14-27-73 20c-39 11-99 28-132 37l-59 16-18 55c-9 30-17 64-17 75l-1 20 93 99 92 99 12-92 12-92 31-92zm183 114 68-56 34-72 35-71 54-69c118-147 268-238 459-278 39-8 82-15 95-15h22V517l-76 7c-84 8-241 46-301 73-21 10-76 42-123 72l-85 55-86 85-86 86-36 57c-81 128-124 237-152 387-8 46-15 90-15 98v15l63-53c34-29 93-77 130-108zm-273-262c63-18 118-35 122-39l8-6-109-63-109-62-69 35c-37 19-76 40-86 48l-18 14 63 51c35 29 68 52 73 53 6 0 62-14 125-31zm153-101c-11-47-64-242-66-244-6-3-149-54-153-54-3 0-3 43-2 96l3 97 110 63c60 35 110 64 111 64s0-10-3-22zm1438-138-37-145-50-27c-67-37-159-64-285-82-59-9-112-16-118-16h-11v206l82 12c135 22 265 76 402 168 28 18 51 32 52 31 2-1-14-68-35-147zM723 821c53-58 134-132 172-157 14-9 25-20 25-24 0-7-89-33-209-62l-43-10-49 48-49 48v18c0 15 44 199 56 238l5 15 22-30c12-16 44-54 70-84zm1521-165c75-148 135-270 134-272-2-1-48-5-103-9l-100-7-73 128-74 128 6 31c7 37 70 275 72 272 1-1 63-123 138-271zM312 821l8-7-7-67-6-68-24 43c-14 24-41 72-61 108l-36 64 59-33c33-18 63-36 67-40zm580-319c-26-49-54-99-63-113l-16-24-96-3-96-4 32 84 33 83 114 32c63 17 121 32 127 32l13 1-48-88zm323 9c44-12 112-25 152-29l71-7-92-98-92-98-70 17c-38 9-73 20-77 24s-14 29-22 56c-7 27-23 82-34 121-12 40-21 75-21 77 0 3 24-6 53-18 28-13 88-33 132-45zm714-57c-17-65-35-124-40-130-5-7-40-19-76-28l-67-17-100 100-101 101h38c21 0 83 9 138 21l100 20 67 28c37 15 68 27 70 26 1-1-12-55-29-121zm-920-210c-28-35-54-64-59-64s-27 37-51 83l-42 83 63 113 63 113 38-132 38-133-50-63zm1068 208 63-108-47-88-46-87-7 8c-3 4-27 33-53 64s-47 62-47 68c0 21 64 251 70 251 3 0 33-49 67-108zm-375-283c-7-45-14-84-16-87-3-2-41 18-85 45l-80 48-1 135v135l97-97 96-96-11-83zm-232 133V173l-76-46c-42-26-80-47-83-47-4 0-12 37-19 83l-11 82 92 93c50 50 93 92 94 92 2 0 3-58 3-128zm769-28c-57-37-109-68-116-71l-12-5 31 59c17 32 32 59 33 61 3 3 113 18 149 21l19 1-104-66zM853 255l35-65-57 32c-31 18-81 47-111 65l-55 33h154l34-65zm725-166 46-29h-249l60 39 60 39 19-10c10-6 39-23 64-39z"/></g><g fill="#a3a3a2" transform="matrix(.1 0 0 -.1 0 300)"><path d="M1270 2975c0-12-31-209-33-210-1-1-35-9-75-19l-73-19-12 16c-63 81-122 147-131 147-6 0-92-47-191-104l-180-104-3-15c-2-8 14-56 34-107l37-92-56-56-55-55-102 38-101 38-9-9c-16-17-210-359-210-371 0-10 90-91 143-128l20-14-19-73c-10-40-19-74-20-76s-46-10-100-18l-98-15-13-11-13-10v-416l13-10c6-5 48-15 92-21 44-7 89-14 100-16l20-4 18-72 17-72-14-16c-8-9-44-38-80-66l-65-50-1-14c0-13 191-355 210-375l8-8 94 36c51 20 98 36 103 36 6 0 35-24 64-54l54-54-37-91c-20-50-36-97-36-105v-14l185-106c102-58 189-106 194-106 4 0 38 38 74 84l66 83 75-21 75-21 7-45c3-25 11-72 18-105l11-60 222-3 221-2 10 47c6 27 14 75 17 108l7 61 76 20 77 20 68-84 69-83 14 5c14 5 338 207 367 228l19 14-166 332c-91 183-169 332-172 332-4 0-59-33-123-74-135-85-184-111-260-137l-55-19-86-10-87-10-83 11-83 10-69 24c-125 44-230 117-320 222-40 48-108 159-108 177 0 3 411 6 913 6h912l140 25c77 13 150 27 163 30l22 5-2 223-3 222-104 17c-57 10-106 20-108 22s-10 26-17 52c-7 27-16 59-20 70l-7 22 86 68c47 37 85 70 85 72 0 15-216 382-225 382-6 0-50-16-99-35s-94-35-101-35c-6 0-34 24-63 53l-52 52 39 100 39 100-12 13c-17 18-356 212-370 212-6-1-38-35-71-76-33-42-64-78-68-81-4-2-41 4-81 13l-74 19-7 60c-3 33-11 81-17 108l-10 47h-224c-123 0-224-2-224-5zm360-29c0-2-29-23-65-45l-65-42-65 38c-36 21-65 41-65 46v7h130c72 0 130-2 130-4zm-234-68 84-51v-272l-101 101-100 100 12 87c7 48 15 87 17 87s41-23 88-52zm295 40c0-7 6-48 13-90l12-77-98-98-98-98v272l78 51c84 55 92 58 93 40zm-682-157c28-35 51-67 51-72 0-13-61-232-69-246l-7-13-66 114-66 114 47 86c25 47 49 85 53 84 3-2 29-32 57-67zm1086-15 46-85-16-32c-9-17-39-70-67-117l-51-86-38 134-37 135 54 67c30 38 57 68 59 68s25-38 50-84zm-1236 7c-17-32-35-62-39-66l-7-8-74 3-74 3 105 62c58 35 109 63 113 63 5 0-6-26-24-57zm1369-8c56-31 102-59 102-61s-35-4-77-4h-78l-32 59c-33 60-39 75-25 68 4-2 53-30 110-62zm-879-119 93-93-17-7c-9-3-31-6-50-6-47 0-210-43-279-74-33-14-61-25-63-22-2 2 13 62 33 134l37 130 51 15c28 9 62 16 76 16l25 1 94-94zm491 76 54-17 38-130c20-71 35-131 34-133-2-1-37 11-78 27-88 36-172 59-242 66-28 4-62 8-75 11l-24 5 94 95 94 94 25-1c14 0 50-8 80-17zm-1105-62h83l65-112c36-62 64-114 62-116-1-1-61 12-133 30l-131 32-30 81c-17 45-31 85-31 89v8l16-6c9-3 53-6 99-6zm1620-52c-13-35-28-74-33-88l-10-25-127-33c-70-18-129-31-132-29-2 3 24 55 59 116l63 110 90 4c50 1 95 4 102 5l12 2-24-62zm-875-207v-109l-80-11c-134-20-231-57-341-132l-56-37-69-75-69-74-47-90-48-90-107-89c-59-49-118-98-132-108l-24-20 7 63c17 149 75 309 156 434l50 76 68 69c111 113 237 195 381 246 81 29 201 54 269 55l42 1v-109zm261 78 83-20 92-43c118-56 169-92 267-185l79-76 59-88 58-89 31-73c32-78 65-208 73-288l5-48-8 3c-5 2-65 51-135 111l-126 107-39 78-39 77-54 66-54 65-64 49c-35 26-100 65-144 86l-80 39-65 15c-36 8-86 17-112 20l-48 6v222l69-7c38-4 106-16 152-27zm-918-60c60-15 110-29 113-31 2-3-16-19-40-37-74-53-152-128-207-201-29-38-55-67-57-65s-19 61-38 132l-34 127 28 30c15 16 41 42 57 57l30 28 20-6c11-3 69-19 128-34zm1567-23 44-46-33-135c-18-74-34-135-36-135-1 0-21 25-44 55-56 74-139 156-212 210l-58 43 77 20c42 12 102 27 132 35l55 14 15-8c8-4 35-28 60-53zm-1950-29 84-32 32-130c18-71 32-131 30-132-3-4-206 113-216 124-8 8-25 203-18 203 2 0 42-15 88-33zm2200-66v-99l-116-67c-64-37-117-65-119-63-1 2 13 62 32 133l35 130 76 32c43 17 80 31 85 32l7 1v-99zm108-61c34-57 60-106 58-107-1-2-33 13-70 33l-67 36 5 15c3 8 6 42 6 75 0 34 2 59 4 57s31-51 64-109zm-2430 20-3-63-60-33c-32-18-61-31-63-29s22 49 53 105l58 101 9-9 9-9-3-63zm1305-25 85-15 64-27c167-71 295-190 377-350l21-43h-670c-368 0-670 3-670 6 0 16 65 125 104 175 101 128 261 223 431 254 95 18 157 18 258 0zM460 2076l113-64-49-15c-27-8-88-24-136-37l-87-23-65 53c-36 28-66 55-66 58 0 9 151 91 166 92 7 0 62-29 124-64zm2242 45 81-45 47-27-66-55c-37-29-71-54-77-54-17 0-241 62-249 69l-8 7 108 62c59 34 112 62 119 62 6 0 27-8 45-19zM577 1958c-53-119-76-201-105-366l-7-42-97 97-98 98 21 76 20 76 122 35c67 20 128 36 136 37l13 1-5-12zm1966-19c61-17 119-35 127-39l16-8 18-72 19-72-99-99-99-100-8 67c-10 92-43 215-77 291l-29 63h10c5 0 60-14 122-31zm-222-306 128-108-474-3c-260-1-689-1-953 0l-480 3 126 107 127 107h699l698 1 129-107zm-1976-13 100-100H172l-45 73c-25 39-47 79-49 87l-3 14 65 12c36 6 74 12 85 13l20 1 100-100zm2488 89c40-7 76-15 81-19l8-8-48-81-49-80-134-1h-134l19 22c46 54 168 178 176 178 5 0 42-5 81-11zM103 1559l36-56-40-66c-22-37-42-67-45-67-2 0-4 59-4 132v132l9-9c5-6 25-35 44-66zm2837-61v-133l-41 68-41 68 38 64c21 36 39 65 41 65s3-60 3-132zm-2568-85c-33-38-75-82-94-100l-33-32-83 13c-45 7-85 15-87 18-2 2 18 41 46 86l51 82h260l-60-67zm2180-43 58-110H804l-115 96c-63 52-121 102-129 110l-14 14h1949l57-110zm325 25 52-85-22-4c-12-3-67-12-122-21s-108-19-117-21l-17-5-56 110-55 111h142l143-1 52-84zM521 1179c12-35 30-81 41-102 11-22 18-41 16-43s-63 13-135 33l-131 36-21 76-21 76 97 97 97 98 18-104c9-56 27-132 39-167zm137 152 113-95 47-90 47-91 90-90 90-90 58-34c71-42 196-87 263-96 27-3 64-8 82-11l32-5V520h-55c-69 0-187 24-280 56l-70 24-75 46c-202 122-353 302-430 513l-30 82-15 86c-8 47-15 95-15 106v19l18-13c9-8 68-56 130-108zm-163-317c33-9 64-18 68-21l9-5-112-64c-62-35-116-64-121-64s-47 21-94 46l-85 46 72 58 72 57 66-18c36-11 92-26 125-35zm88-91c-3-16-18-75-33-132l-26-103-84-34c-46-19-85-32-87-30-2 1 0 48 3 102l7 100 106 61c58 34 109 62 114 62l7 1-7-27zm208-168c36-33 81-71 102-85 20-14 37-28 37-31s-58-21-130-41l-129-35-55 56-56 56 30 115c17 63 33 123 36 133l6 18 47-63c27-35 77-90 112-123zm1269 178c0-8-41-164-65-249l-15-51-57-26c-32-14-83-33-113-41-61-18-220-46-262-46h-28v210l23 4c12 3 45 7 73 11 101 11 282 89 394 169 37 26 50 31 50 19zm318-548c-2-2-46-8-98-13l-95-9-11 11c-6 6-43 66-82 133l-70 122 39 148c21 81 39 153 39 158 1 6 64-115 141-269 77-153 139-280 137-281zM263 855l57-29V680h-8c-8 0-122 191-122 204 0 4 3 6 8 4 4-2 33-17 65-33zm669-287c-11-18-41-72-66-120l-48-88H618l7 18c4 9 18 47 31 83l25 66 127 35c70 20 131 36 135 37 5 0 0-14-11-31zm343-69c50-10 110-19 135-19h45l-102-102-102-102-68 18c-38 9-73 23-79 29-10 11-74 223-74 245v10l78-30c42-17 118-39 167-49zm654-54-32-127-21-8c-12-4-45-13-74-21l-53-13-99 99-100 100 106 17c105 18 196 42 264 71 19 9 37 14 38 12 2-2-11-60-29-130zm-904-8 36-128-13-19c-32-44-93-119-98-119-3-1-26 39-51 87l-47 87 57 100c65 117 72 127 76 123 2-2 20-61 40-131zm1060 8 58-100-44-83c-24-46-47-86-50-88-4-2-31 26-61 64l-55 67 36 132 35 133 12-13c6-6 37-57 69-112zm-605-132-1-138-81-50c-45-27-85-51-89-53-3-1-9 21-13 50-3 29-9 70-12 91l-7 37 99 100c54 55 99 100 101 100s3-62 3-137zm224-145c-8-45-15-85-16-89-2-4-40 16-85 44l-83 50v272l98-98 98-98-12-81zm621 158c-59-41-215-134-215-128 0 4 15 34 34 67l33 60 54 6c30 3 67 6 84 7l29 2-19-14zM856 255c18-32 31-61 29-63-4-4-215 118-215 124 0 3 34 4 77 2l76-3 33-60zm705-151c32-20 59-38 59-40s-57-4-127-4h-128l65 40c36 22 67 40 68 40 2 0 31-16 63-36z"/></g><g fill="#747473" transform="matrix(.1 0 0 -.1 0 300)"><path d="M1275 2968c-2-7-11-55-19-107-9-52-17-95-18-97-2-1-36-11-76-21l-72-20-66 81c-37 45-72 81-78 81-16 0-376-206-376-215 0-5 16-50 35-100s35-96 35-100c0-13-103-110-116-110-7 0-54 16-104 36l-93 35-7-8c-15-17-210-362-210-372 0-5 38-39 83-76l84-66-21-72c-11-40-21-74-23-76-1-2-49-11-105-20l-103-17-3-221-2-222 17-4c10-3 55-11 100-18 46-7 86-15 90-18 5-3 18-38 29-77l21-72-84-67-84-68 3-11c6-24 203-365 213-369 6-3 54 13 108 34l98 38 54-53c30-29 55-58 55-63 0-6-16-54-36-107s-35-98-33-100c12-10 373-216 378-216 3 0 20 20 38 43s49 61 70 84l38 43 69-20c38-11 71-21 73-23s11-51 21-108l17-104 222-3 221-2 5 32c3 18 11 68 18 110l13 76 61 16c34 8 68 18 76 21l14 5 69-85c37-47 70-85 72-85 9 0 380 234 386 244l7 10-164 320c-90 177-169 322-175 324-5 2-65-31-131-73-67-42-151-90-188-105l-66-28-85-18-84-17-91 6-90 6-70 22c-186 57-331 170-430 335-19 32-35 64-35 71v13h1806l144 25c80 14 157 28 173 31l27 6v438l-22 5c-13 3-61 11-107 19-45 8-86 18-90 23-4 4-15 37-25 73l-18 65 53 45c29 25 68 59 86 75l32 30-103 178c-57 99-108 183-113 188l-10 10-100-39-101-40-56 57-57 58 39 101 40 102-12 8c-16 13-342 201-359 208l-15 5-67-83-68-83-11 2c-6 1-41 9-77 18l-65 17-13 76c-7 43-15 92-18 110l-5 32h-439l-4-12zm365-22c0-5-136-86-144-86-9 0-136 81-136 86 0 2 63 4 140 4s140-2 140-4zm-233-72 73-46v-270l-42 38c-24 21-69 62-100 93l-58 54v24c0 13 5 56 12 94l11 70 15-6c9-3 48-26 89-51zm292 4c5-29 12-69 15-88l6-35-100-100-101-100 3 140 3 139 75 48c41 26 78 47 82 47 4 1 11-23 17-51zm406-147 39-73-10-17c-6-9-37-63-69-120l-59-104-38 137-38 137 7 13c5 6 30 40 58 73l49 61 12-16c6-9 28-50 49-91zm-1097 35 52-64v-17c0-14-23-99-67-248l-5-19-69 120-68 121 45 85c25 47 49 86 53 86s31-29 59-64zm-148-15c-17-34-37-64-44-67s-46-4-87-2l-74 3 115 66c63 36 116 65 118 63 2-1-11-30-28-63zm1398-20c39-23 72-44 72-46 0-3-36-5-80-5h-80l-36 71-36 72 44-25c23-14 76-44 116-67zm-890-115c45-44 82-83 82-87 0-3-33-9-72-12-83-7-192-36-280-73-33-14-62-23-65-20-5 5 62 254 71 263 2 3 35 13 73 22l68 18 20-16c11-9 57-52 103-95zm468 89 61-17 37-132c20-72 36-134 36-138s-29 6-64 22c-81 37-202 69-288 77-38 3-68 9-68 12s44 50 97 103l98 98 15-4c8-3 43-12 76-21zm-1012-76c14-13 125-213 121-218-3-2-63 11-135 29l-130 33-30 78c-16 43-30 83-30 89v10l98-6c53-4 101-10 106-15zm1551 4c-4-10-18-47-32-83-13-36-28-68-31-72-11-11-274-78-270-69 2 4 32 58 67 119l64 111 66 4c36 2 83 4 105 5l38 2-7-17zm-895-252v-109l-16-6c-9-3-30-6-48-6s-67-9-110-20l-77-19-77-41c-101-52-179-114-247-197l-55-67-37-75-36-76-114-95c-63-52-124-102-135-110l-21-15 6 70c30 315 247 624 543 773 115 58 266 99 372 101l52 1v-109zm283 74c114-33 182-64 280-128l82-53 65-65c86-84 150-176 205-291l44-94 20-85c11-46 22-111 26-143l7-59-34 28c-18 16-81 69-140 118l-107 89-11 31c-5 17-30 63-54 102l-44 70-63 63c-131 131-279 201-481 227l-48 6v222l84-6 84-7 85-25zm-953-50c57-15 110-30 118-34l13-8-56-42c-74-56-156-139-210-212l-44-59-15 52c-8 29-24 90-36 136l-21 82 10 18c5 10 30 37 56 61l46 42 17-5c9-3 64-17 122-31zm1571-21 56-56-34-136c-19-75-36-138-37-140-2-1-15 16-30 39-41 61-170 192-231 235-30 20-53 39-50 42 4 5 243 70 260 71 5 1 35-24 66-55zm-1949-30c40-15 78-32 84-38 13-12 78-255 71-263-3-2-54 24-115 58l-110 63-6 60c-7 69-8 146-2 146 3 0 38-12 78-26zm2206-76-3-103-113-64c-62-35-115-62-117-59-4 4 61 257 68 265 6 5 150 62 160 62l8 1-3-102zm-2318-20v-83l-70-37c-39-20-70-35-70-32 0 8 131 234 136 234 2 0 4-37 4-82zm2429-34c34-59 59-109 57-112-3-2-35 13-72 33l-67 37 7 52c3 28 6 61 6 74 0 12 2 22 4 22s32-48 65-106zm-1037-27c42-13 106-41 143-62l67-37 74-70 74-70 40-64c22-36 45-76 50-89l10-25H830v13c0 25 76 140 133 203l58 63 69 46c79 52 167 91 255 111l60 14 115-4 115-4 77-25zM507 2052c34-20 60-38 57-41-3-4-63-22-134-42l-129-36-70 58-71 58 42 24c24 13 63 36 88 49l45 25 55-30c30-16 83-46 117-65zm2323-3c0-3-29-29-65-57l-64-52h-18c-15 0-210 51-252 66l-15 5 120 68 119 69 87-47c48-25 88-49 88-52zm-143-170c7-13 18-47 24-76l12-51-94-101c-52-56-97-101-100-101-4 0-10 30-14 67-9 87-39 200-76 286-16 38-29 70-29 72 0 1 60-14 133-35l132-37 12-24zm-2112 74c-49-113-79-229-101-379l-4-31-101 102-100 102 16 65c9 35 20 70 25 77l8 13 118 33c66 19 125 34 133 34l13 1-7-17zm1749-320 127-108-475-3c-261-1-691-1-955 0l-481 3 127 107 128 108h1403l126-107zm-1979-13 100-101-140 3-139 3-48 75c-26 41-47 80-47 87l-1 11 63 10c34 5 73 10 87 11l25 1 100-100zm2495 90c36-6 71-13 78-15l12-4-52-86-52-85h-281l100 100 100 100h15c8 0 44-5 80-10zM99 1570l42-70-37-61c-21-33-41-62-46-65l-8-5v135c0 75 2 136 4 136s22-32 45-70zm2841-72v-133l-40 62c-22 34-40 67-40 72 0 11 70 131 76 131 2 0 4-60 4-132zM344 1379l-101-101-75 12c-42 7-81 16-88 20l-12 7 42 69c23 38 47 75 52 82l10 12h273l-101-101zm2211-9 56-110H799l-130 110-130 110h1959l57-110zm322 28 51-83-11-6c-7-4-57-14-112-23s-112-19-126-22l-27-5-56 105c-31 58-56 108-56 111s65 5 143 5h144l50-82zm-2402 5c12-93 46-229 75-297 16-38 28-71 26-74-2-2-61 12-132 32l-127 35-8 12c-4 7-15 42-24 77l-16 65 93 97c51 54 96 98 100 99 4 0 9-20 13-46zm176-63 124-105 38-76 37-76 55-66c31-37 81-88 113-113l57-45 90-44 90-43 70-16c39-9 88-17 110-18l40-3 3-107 3-108h-60c-271 0-572 171-744 424-86 126-148 296-163 443l-7 66 9-4c6-2 66-51 135-109zm-203-311c67-18 122-36 122-39 0-9-216-130-231-130-19 0-169 83-169 93-1 4 30 33 66 63l68 55 11-4c6-3 66-20 133-38zm109-219-33-125-79-32c-44-18-84-32-89-33h-9l7 102c3 56 8 103 9 104 2 2 52 32 112 67l110 64 3-11c1-6-13-67-31-136zm1472-7c-21-82-39-151-39-155s-28-22-62-39l-61-31-94-24c-52-13-130-27-173-30l-79-7-6 34c-3 19-5 68-3 109l3 75 67 7c128 12 274 71 408 162 36 25 68 45 71 45 4 1-11-65-32-146zM722 828l47-56 86-68 85-68-132-37-132-37-31 25c-16 14-43 40-58 59l-28 33 32 123c17 68 34 127 37 132l5 9 21-29c12-16 42-54 68-86zm1630-449c-20-4-68-9-107-12l-70-7-78 135-78 135 31 118c17 64 36 135 42 156l10 40 143-280 144-279-37-6zM320 743c0-46-2-83-4-83-4 0-126 212-135 233-2 6 28-8 68-29l71-38v-83zm614-175c-9-18-39-72-66-120l-49-87-97-3c-53-2-99-2-101-1-4 3 45 141 57 160l8 12 124 35c69 19 128 35 133 35 4 1 0-14-9-31zm246-42 85-26 93-13 93-12-100-99-100-100-75 18-75 17-15 47c-8 26-24 81-36 122s-24 83-27 93l-5 18 39-19c21-11 76-32 123-46zm-156-78c20-70 36-132 36-138 0-13-100-140-110-140-4 0-28 39-53 87l-47 86 66 119c37 66 67 118 69 116 1-2 19-60 39-130zm910 5c-18-69-37-130-42-135-11-11-109-38-138-38h-20l-94 96-94 95 15 10c7 5 31 9 52 9 59 0 185 29 262 60 39 15 75 28 81 29l11 1-33-127zm140 13c36-62 66-117 66-122 0-14-84-174-92-174-12 0-118 134-115 145 2 5 19 67 38 138 18 70 34 127 35 127s32-51 68-114zm-594-153V175l-86-54c-47-29-87-52-89-50-2 3-9 44-16 92l-12 88 99 100c54 54 100 99 101 99 2 0 3-62 3-137zm201-28 39-41-15-83c-8-46-16-85-18-87s-40 19-85 47l-82 51v283l62-65c33-36 78-83 99-105zm559-16c-63-39-121-74-128-77l-14-5 39 71 38 71 45 4c25 2 65 4 90 5l45 2-115-71zM857 258c18-34 31-64 28-66-3-4-164 84-210 115l-19 13h169l32-62zm713-158 65-40h-270l60 40c33 21 65 39 70 39 6 0 39-18 75-39z"/></g><g fill="#494947" transform="matrix(.1 0 0 -.1 0 300)"><path d="M1275 2968c-2-7-9-52-15-99s-15-91-19-97c-4-7-32-19-62-26-30-8-61-17-70-21l-16-6-72 86-72 85-27-14c-62-32-328-189-339-199l-13-12 39-100 39-100-58-58-57-57-96 36-96 36-13-5c-12-4-209-335-216-362l-3-11 85-67 85-67-20-68c-10-37-21-72-23-78l-4-10-89-13c-48-7-96-15-105-17l-18-5v-437l27-6c16-3 63-10 106-17l79-12 4-11c2-6 13-41 23-78l20-68-85-66c-46-37-84-70-84-73 0-15 207-364 218-368l13-5 96 36 97 37 57-58 58-58-40-100-39-99 10-10c5-5 89-56 187-113l178-103 38 42c21 24 52 62 70 86l31 43 26-6c14-3 49-13 77-21l53-15 6-24c3-12 11-60 17-106l12-84 214-3 215-2 7 7c5 5 15 53 24 108s18 101 19 102c2 2 27 10 57 18s64 17 75 21l21 6 68-86 68-85 11 6c86 48 369 230 373 239l4 12-160 321-161 321h-10c-6 0-60-31-120-70-138-88-187-112-280-142l-75-23-135 1-135 1-80 26-80 26-64 38c-35 21-92 65-128 97l-64 59-38 56c-21 31-48 75-60 99l-21 42h1805l167 29c91 16 171 32 177 35l11 7v417l-12 9c-7 6-52 15-101 22-48 6-93 14-100 17l-12 4-19 76-18 76 8 7c5 4 42 33 82 65 39 32 72 63 72 69 0 10-195 355-208 369l-7 6-100-38-100-38-59 58-59 58 37 94c20 52 36 99 36 105v10l-185 107c-102 58-188 106-190 106s-34-38-71-85l-68-86-10 4c-6 2-41 12-78 22l-67 18-7 46c-3 25-11 73-18 106l-11 60-218 3-217 2-5-12zm365-22c0-7-131-86-142-86-13 0-125 68-133 81l-6 9h140c78 0 141-2 141-4zm-240-64 75-48 3-137 3-137h-8c-4 0-51 43-103 95l-96 96 12 77c7 42 13 83 13 90l1 12 13-1c6 0 46-21 87-47zm308-47 14-88-34-30c-18-17-66-62-105-101l-73-70v283l83 50c45 28 87 49 92 47l10-3 13-88zm-695-73 56-68-35-125c-20-68-39-129-43-136l-6-12-69 119-68 119 48 90c27 49 52 88 55 85 4-2 32-34 62-72zm1087-17 45-85-29-53c-15-28-47-83-69-121l-40-70-7 20c-4 10-22 74-40 140l-33 121 58 72c31 39 60 69 64 67 3-3 26-43 51-91zm-1239 3-40-73-11 1c-5 1-42 2-82 3l-72 1 9 9c14 13 218 131 228 131 4 0-10-33-32-72zm1360 6c63-36 116-68 118-70s-34-4-81-4h-86l-36 64c-34 61-41 76-32 76 2 0 55-30 117-66zm-869-121c54-54 98-101 98-105v-8h-35c-78 0-262-49-348-92-22-11-40-18-42-16-5 4 70 266 78 274 6 7 122 42 142 43 5 1 54-43 107-96zm495 71 52-14 11-43c7-23 22-80 36-127 13-46 24-90 24-96v-12l-86 35-86 35-92 19c-50 10-108 19-128 19-21 0-38 3-38 8 0 4 46 51 102 104l103 98 25-6c14-2 48-11 77-20zm-1020-71c2-4 32-57 67-118 36-60 64-111 62-112-1-1-62 13-135 32-72 19-134 35-137 35-5 0-8 7-50 119l-24 64 107-6 108-6 2-8zm1550 5c-2-7-17-47-32-90l-29-76-135-36c-74-19-137-34-139-32s26 56 63 119l66 116 32 4c18 2 65 5 106 5l73 2-5-12zm-897-262v-113l-70-7-69-6-78-25-78-25-70-40c-135-80-223-173-299-319l-41-79-127-106c-70-58-130-106-134-106h-7l6 68c12 133 61 275 139 403l51 84 96 96 96 95 84 52 84 51 86 31c110 40 190 58 269 59l62 1v-114zm280 84c311-88 560-318 670-618 32-87 63-237 58-278l-3-26-133 113-133 113-47 89-47 90-68 73-68 73-68 45c-37 25-102 59-144 76l-77 31-83 11c-45 6-88 12-94 14l-13 3v224l88-6 87-6 75-21zm-947-54c71-19 131-37 133-39 3-2-15-17-38-32-60-40-172-149-228-223-27-34-50-59-53-55-2 4-19 68-38 140l-34 133 55 55c30 30 59 55 65 55 5 0 68-16 138-34zm1570-24 57-57-35-134c-19-74-37-136-39-138s-20 19-40 48c-56 76-113 136-194 200-40 32-72 62-72 66 0 8 219 71 250 72l16 1 57-58zm-1935-33 80-31 35-139c19-77 33-139 31-139s-56 31-121 69l-118 68-3 102-3 101h10c5 0 46-14 89-31zm2198 9c-3-13-6-59-6-103l-1-80-117-67-117-67-3 9c-4 10 55 238 66 259l8 14 69 28c39 15 78 28 89 28l18 1-6-22zM320 2257v-83l-70-38c-38-20-70-35-70-31 0 13 128 235 136 235 2 0 4-37 4-83zm2486-129c8-16 13-28 11-28s-35 17-73 38l-69 37-3 50c-2 28 0 65 3 84l7 34 55-94c30-52 61-106 69-121zm-1151 87 70-15 80-39c44-21 108-60 143-86l63-48 49-60c43-53 110-163 110-181 0-3-304-6-676-6H819l38 73 38 72 85 86 85 86 66 37c125 69 218 93 359 95l95 1 70-15zM455 2084c63-37 115-70 115-74s-12-10-27-13c-16-4-76-20-135-36l-107-29-68 54c-37 30-69 58-70 62-2 5 160 99 175 102 2 0 54-30 117-66zm2293 17c45-24 82-47 82-51s-31-33-69-63l-69-56-136 37c-75 20-136 40-136 43 0 7 233 140 240 136 3-1 42-22 88-46zM587 1968c-64-146-94-247-103-355-4-40-10-73-14-73s-51 48-105 106l-98 105 20 71 19 71 14 8c13 7 242 75 264 78l8 1-5-12zm1970-29c65-17 121-35 125-38s16-39 27-80l21-74-103-104-102-104-12 88c-14 95-54 235-84 295-10 21-19 42-19 49v11l14-5c8-3 68-20 133-38zm-236-301 132-113-476-3c-261-1-693-1-958 0l-483 3 134 112 135 113h1383l133-112zm-1972-18 92-100H165l-50 82c-28 46-51 86-53 89-3 8 101 26 158 28l36 1 93-100zm2504 89c40-6 74-13 76-14 1-2-20-42-49-89l-51-86h-284l100 100 100 100h18c10 0 51-5 90-11zM99 1574c22-36 41-67 41-70 0-8-82-144-86-144-2 0-4 63-4 140s2 140 4 140 22-30 45-66zm2839-136-3-73-41 68-42 69 42 67 41 68 3-63c2-35 2-96 0-136zm-2498 44c0-4-45-52-99-106l-99-99-84 13c-45 7-86 14-90 16-4 3 18 45 49 94l55 90h268v-8zm2113-109 58-113H798l-128 107-128 107 4 8 5 8 972-2 972-3 58-112zm324 27c29-46 53-87 53-90s-61-16-135-28l-135-23-10 6c-12 8-110 199-110 215v11l142-3 142-3 53-85zm-2397-6c0-56 42-220 76-294 15-33 24-63 21-66-8-8-249 56-263 70-6 6-19 41-29 78l-18 67 98 106 99 105 8-12c4-7 8-32 8-54zm336-234c54-105 112-178 192-244 124-100 257-157 401-172l71-7V507l-72 7c-88 8-212 37-291 66l-57 21-92 61-93 61-81 81-81 81-47 72c-60 93-102 192-132 311l-24 95v98l133-112 132-111 41-78zm-346-135 115-32-25-15c-14-9-69-41-122-72l-97-56-90 47c-50 27-91 51-91 54s32 31 71 62l72 57 26-7c14-3 78-21 141-38zm92-204-36-140-81-30c-45-17-84-31-88-31h-8l3 102 3 103 115 67c63 37 118 67 121 68 4 0-9-63-29-139zm219-49c35-34 85-77 111-95s48-35 48-38c0-4-53-21-117-38-65-18-126-35-136-37l-17-5-58 55-57 55 34 133c19 73 36 136 38 141 3 4 24-19 47-50 23-32 71-86 107-121zm1284 159c-3-11-21-79-40-153l-34-133-21-17c-27-22-115-55-210-79-77-19-229-40-242-32l-8 4v216l69 7c38 3 100 15 137 27l69 21 95 50c52 28 113 63 135 79 22 15 44 28 48 29h8l-6-19zm185-271 140-279-33-5c-17-3-66-8-108-11l-76-6-77 135-78 135 32 123c36 141 50 188 56 188 2 0 67-126 144-280zM258 862l62-32v-85c0-47-2-85-4-85-6 0-136 224-136 234 0 9-3 10 78-32zm692-267c0-8-122-225-129-229-3-2-50-7-103-11l-98-7v13c0 16 50 151 60 162 7 8 234 75 258 76 6 1 12-1 12-4zm291-84c46-11 113-23 148-26l63-7-102-103-102-102-70 18c-39 10-74 21-78 26-7 7-80 250-80 265 0 3 31-7 69-23s106-38 152-48zm701-37c-16-60-32-121-36-135l-6-27-77-21-78-21-102 102-102 102 5 8 5 8h47c64 1 203 32 292 67 41 16 76 29 78 28 1-1-10-51-26-111zm-918-21c20-67 36-130 36-139v-16l-51-65-51-64-10 3c-5 2-30 42-55 88l-45 85 52 95c65 117 81 143 85 138 2-1 19-58 39-125zm1059 1 65-112-50-92-50-92-8 8c-15 17-96 119-103 131l-8 12 37 136 37 136 8-8c4-4 37-58 72-119zm-603-143V171l-86-51c-47-29-87-50-89-48-3 2-10 42-18 88l-14 85 101 103c55 56 102 102 103 102 2 0 3-63 3-139zm143 41 99-99-13-84c-7-46-15-88-19-92l-7-8-87 53-86 53v275h8c4 0 52-44 105-98zm717-22c-8-5-64-40-125-78-60-39-112-68-113-67-2 2 13 35 33 74l37 70 66 6c37 3 76 7 87 8 27 4 33-2 15-13zM859 258c22-40 38-74 36-76s-56 27-122 65l-118 68 50 6c28 3 64 7 82 7l32 2 40-72zm718-160 68-43-73-3c-39-2-105-2-144 0l-73 3 65 42c36 24 70 43 77 43 6 0 42-19 80-42z"/></g><g fill="#1f1f1d" transform="matrix(.1 0 0 -.1 0 300)"><path d="M1272 2933c-6-27-14-76-17-110l-7-61-81-22-81-22-10 14c-6 8-35 45-65 81l-54 67h-13c-13 0-341-185-361-204l-12-11 40-100 40-99-59-59-60-59-93 36c-52 20-99 36-106 36h-11l-107-185-107-186 28-22c16-12 55-44 87-70l58-49-4-11c-2-7-12-42-22-79l-17-66-47-7c-25-3-74-11-108-17l-63-10v-434l68-12c37-6 86-15 108-18l42-6 17-62c9-33 18-69 21-78l5-17-58-48c-32-26-71-58-86-70l-28-22 107-185 106-186h11c7 0 54 17 105 37l93 37 60-60 60-60-40-99-40-100 16-12c27-21 350-203 360-203 6 0 39 36 74 81l63 80 32-6c18-3 55-12 82-20l49-15 12-85c7-48 16-97 21-111l10-24 212 2 212 3 13 75c7 41 15 90 18 107l6 33 52 14c29 9 64 18 79 21l26 7 67-81c37-45 70-81 75-81 15 0 380 232 380 242 0 15-324 648-332 648-4 0-59-33-121-74-122-79-191-114-278-141l-54-17-110-5-110-6-80 17-80 17-94 45-94 46-91 92-91 91-38 65c-20 35-37 70-37 77v13h1848l119 21c65 11 133 23 151 26l32 6v435l-72 12c-40 7-89 16-108 19l-35 7-21 77-21 77 83 68c46 37 84 72 84 77-1 6-47 89-103 185l-103 175-24-1c-14-1-62-16-108-34l-83-33-57 56-57 57 33 93c19 50 36 99 38 107l4 15-179 103c-98 56-185 102-192 102l-14-1-64-80-64-80-26 6c-14 3-49 12-78 21l-52 14-6 33c-3 17-11 66-18 107l-13 75-216 3-216 2-10-47zm346-6c-15-12-49-34-75-49l-48-27-67 43c-37 23-70 45-74 49l-7 7h149l149-1-27-22zm-219-43 91-56v-267l-8-5-8-5-103 103-102 102 17 92c9 51 18 92 19 92 2 0 44-25 94-56zm311-48 12-88-98-99c-54-55-102-99-107-99h-8l3 142 3 141 85 53 85 53 6-7c3-4 12-47 19-96zm-703-61c27-33 52-65 56-72l7-12-36-128c-19-70-39-132-43-136l-8-8-66 115c-37 63-67 119-67 124 0 17 92 183 100 180 4-2 29-30 57-63zm1097-31 46-86-56-97c-31-53-63-107-71-120l-15-24-8 14c-10 18-70 241-70 260 0 8 25 45 56 82l56 67 8-5c5-3 29-44 54-91zm-1241 4-38-73-66-3-65-3-22 8-22 8 123 72c67 39 124 70 125 68 2-2-13-36-35-77zm1364 5 116-67-19-7c-10-4-49-8-86-8l-67-1-39 75-39 75h9c5 0 61-30 125-67zm-867-128 105-105h-32c-18 0-77-9-133-19l-100-20-87-35c-48-20-88-34-91-32-2 2 11 53 28 113 18 59 34 118 37 130s11 27 17 32c13 11 109 39 136 40l15 1 105-105zm456 91c28-7 60-18 70-24l19-10 36-134 36-133-8-3c-4-2-25 5-46 16-81 41-279 92-355 92-16 0-28 3-28 7s44 52 97 105l98 98h15c8 0 38-6 66-14zm-924-190c38-65 66-121 64-124-5-5-241 54-265 67l-15 7-28 70c-15 38-31 77-34 87l-6 18 108-3 108-3 68-119zm1488 115c0-5-14-46-31-90l-31-81-36-9c-20-6-80-22-132-36s-99-25-104-25h-8l6 18c4 9 34 65 68 125l61 107h207v-9zm-895-260v-115l-80-12c-182-26-305-85-434-208l-64-61-42-65c-23-36-51-85-62-110l-20-45-132-110c-73-61-137-112-142-113l-9-4 6 59c3 32 15 96 26 143l19 85 54 110 54 110 66 82 66 82 81 65 81 65 88 45 89 45 83 26c78 23 206 45 252 41l20-1v-114zm260 84c113-28 205-70 309-139l82-55 75-78c93-98 129-150 184-266 52-110 83-216 92-314l6-73h-7c-4 0-67 51-140 114l-133 114-37 72c-95 188-256 325-454 386l-77 24-67 7-68 6v237l73-6c39-4 113-17 162-29zm-931-56c67-18 124-35 129-39l7-6-45-33c-74-53-160-137-217-212-29-38-55-69-58-69s-22 63-41 139l-36 139 56 56 56 56h14c8 0 69-14 135-31zm1575-23 54-55-37-142c-20-78-38-144-39-146-2-2-21 22-42 52-51 74-135 160-219 223l-69 52 14 5c42 14 238 63 259 64l26 1 53-54zm-1886-57 27-12 6-26c3-14 19-75 35-135 17-60 28-111 25-114-3-2-58 27-123 65l-118 69-3 107-3 106 63-23c35-13 75-30 91-37zm2147 4c0-32-3-81-6-109l-7-52-114-66c-63-36-118-66-122-66h-8l35 140 36 139 86 35c47 19 88 35 93 35l7 1v-57zM327 2185c-6-13-137-87-148-83-4 2 26 59 65 128l71 125 8-78c5-43 6-84 4-92zm2426 39c38-64 66-118 63-121-2-3-36 12-75 34l-71 38v165h8c4 0 38-52 75-116zm-1091-10c166-34 331-145 433-289 41-59 75-120 75-137v-8h-675c-371 0-675 2-675 5 0 11 44 91 73 135 17 25 60 73 95 107l63 63 67 40c79 46 159 75 262 95l75 14 70-5c39-3 100-12 137-20zM461 2083l119-67-7-7c-5-5-68-24-140-44l-133-36-70 57c-38 31-70 59-70 63 0 6 159 98 174 100 4 1 62-29 127-66zm2278 26c42-23 82-46 88-51l12-10-42-35c-23-20-56-47-74-60l-32-25-136 38-135 38 2 8c3 9 218 137 232 138 5 0 43-19 85-41zM587 1968c-3-7-19-48-36-90l-31-77-20-97c-11-53-20-111-20-130v-34h-8c-5 0-52 44-105 99l-97 98v21c0 11 9 49 20 84l19 64 133 36c73 20 137 37 142 37l8 1-5-12zm1961-24 127-35 11-15c7-8 19-45 28-81l17-67-102-102c-57-57-104-102-106-101-1 2-7 37-13 78-14 102-35 179-74 276l-33 83h8c5 0 66-16 137-36zm-223-306c72-60 132-114 133-119l4-9H528l4 9c2 5 63 59 136 120l133 111h697l697-1 130-111zm-1983-5c54-54 98-103 98-111v-13l-137 3-136 3-55 88c-30 48-53 90-50 92 3 3 141 30 173 34 5 1 54-43 107-96zm2521 76 68-11-3-12c-2-6-25-48-53-93l-50-83h-275v9c0 5 43 54 97 110l96 102 26-5c14-3 57-11 94-17zM140 1503c0-12-79-143-86-143-2 0-4 66-4 148l1 147 44-70c25-38 45-75 45-82zm2810-3v-140h-7c-5 0-27 32-51 70l-43 70 43 70c24 38 46 70 51 70h7v-140zm-2510-17c0-5-44-54-98-110l-97-102-90 16c-50 9-92 18-94 19-3 3 15 35 76 132l34 52h269v-7zm2114-103c31-60 56-114 56-120v-10H804l-129 110c-72 60-131 114-133 120l-4 10h1961l55-110zm324 26c28-46 52-88 52-93v-9l-124-22c-68-12-132-22-142-22h-19l-55 106c-30 58-56 110-58 115l-4 9h297l53-84zm-2398 15c0-79 50-270 92-354 11-22 18-40 16-42s-65 13-141 33l-138 37-19 63c-11 35-20 73-20 84v21l97 98c53 55 100 99 105 99h8v-39zm169-74 130-107 24-54c14-30 43-81 65-113l40-60 76-70 75-70 78-41c90-46 191-78 279-88l62-6 4-107c3-58 3-110 0-115l-5-9-81 7c-234 20-424 110-604 288l-74 73-43 65c-83 126-146 286-160 405-3 33-9 73-12 89l-5 28 11-3c6-2 69-52 140-112zm-182-318c62-17 113-35 113-38 0-4-54-38-120-75l-119-68-91 48c-49 27-90 52-90 56s30 32 68 63l67 55 29-5c17-3 81-19 143-36zm133-74c0-3-13-54-29-113s-32-119-35-133l-6-26-78-32c-43-17-84-31-90-31h-12v207l117 66c111 64 133 74 133 62zm1441-127c-18-68-36-139-42-159l-9-36-78-36-77-35-95-20c-52-11-125-23-162-27l-68-7v229l68 7c126 13 261 67 418 169 38 24 71 43 73 41 2-1-11-58-28-126zM663 911c41-62 142-165 218-223l69-53-68-21c-38-11-101-29-141-39l-71-19-59 58-58 57 36 140c19 76 38 139 42 139 3 0 18-18 32-39zm1587-245 142-278-9-8c-4-4-53-11-109-15l-101-7-77 132-78 132 5 27c4 26 64 263 73 290 2 8 6 12 8 10s67-129 146-283zM329 790c-1-19-4-59-7-88l-7-53-72 125c-40 69-73 128-73 131 0 4 36-13 80-37l80-43-1-35zm616-207c-3-10-33-66-66-125l-61-108H714c-57 0-104 2-104 5 0 11 62 161 71 170 10 10 221 72 253 74l18 1-7-17zm124-12c56-29 205-69 300-81 46-5 86-11 87-13 2-2-43-49-100-106l-103-103-79 22-79 21-37 127c-38 126-43 152-33 152 3 0 23-9 44-19zm901 9c0-5-15-67-34-136l-35-127-12-8c-7-4-42-15-78-24l-65-16-103 103c-57 56-103 105-103 109 0 3 33 9 73 13 90 8 226 41 292 71 58 27 65 29 65 15zm-959-72c12-40 30-102 40-138l18-65-40-50c-60-76-79-98-83-94-11 14-96 173-96 180 0 15 124 239 132 239 4 0 17-33 29-72zm1072-48 68-119-47-85c-25-47-49-88-54-91l-8-5-56 69c-31 37-56 75-56 83 0 9 11 53 24 99s29 103 35 127c7 23 15 42 19 42 4-1 38-54 75-120zm-595-151-3-134-80-52c-67-44-105-62-105-50 0 1-7 40-15 86l-15 85 18 20c9 12 55 60 101 109l85 87 8-8 9-9-3-134zm221-148-13-91h-9c-5 0-47 23-93 51l-84 50v294l106-106 106-106-13-92zm647 180c-7-10-225-147-251-158l-19-7 38 70c21 38 43 73 47 78l9 10 72 6c40 4 81 8 91 9l18 1-5-9zM862 256c21-38 36-71 33-74-6-6-245 131-245 141v8l87-3 88-3 37-69zm750-175c16-9 28-19 28-23v-8h-293l7 7c4 4 37 26 74 50l67 42 45-26c25-15 57-34 72-42z"/></g></g></svg>