<?xml version="1.0" encoding="UTF-8" standalone="no"?>
<svg
   width="512"
   height="512"
   version="1.1"
   id="svg254"
   sodipodi:docname="favicon-big.svg"
   inkscape:version="1.4.2 (ebf0e940d0, 2025-05-08)"
   xmlns:inkscape="http://www.inkscape.org/namespaces/inkscape"
   xmlns:sodipodi="http://sodipodi.sourceforge.net/DTD/sodipodi-0.dtd"
   xmlns="http://www.w3.org/2000/svg"
   xmlns:svg="http://www.w3.org/2000/svg"
   xmlns:rdf="http://www.w3.org/1999/02/22-rdf-syntax-ns#"
   xmlns:cc="http://creativecommons.org/ns#"
   xmlns:dc="http://purl.org/dc/elements/1.1/">
  <defs
     id="defs1" />
  <sodipodi:namedview
     id="namedview1"
     pagecolor="#ffffff"
     bordercolor="#666666"
     borderopacity="1.0"
     inkscape:showpageshadow="2"
     inkscape:pageopacity="0.0"
     inkscape:pagecheckerboard="0"
     inkscape:deskcolor="#d1d1d1"
     inkscape:zoom="1.8066406"
     inkscape:cx="255.72324"
     inkscape:cy="256"
     inkscape:window-width="5108"
     inkscape:window-height="1398"
     inkscape:window-x="0"
     inkscape:window-y="0"
     inkscape:window-maximized="0"
     inkscape:current-layer="svg254" />
  <metadata
     id="metadata258">
    <rdf:RDF>
      <cc:Work
         rdf:about="">
        <dc:format>image/svg+xml</dc:format>
        <dc:type
           rdf:resource="http://purl.org/dc/dcmitype/StillImage" />
        <dc:title>entropy-logo</dc:title>
      </cc:Work>
    </rdf:RDF>
  </metadata>
  <style
     id="style161">
       .cls-1{
            fill:none;
            stroke: #1d1d1b;
            stroke-linejoin: round;
            stroke-width:3px;
       }
       @media (prefers-color-scheme: light){
            .cls-1 {stroke: #1d1d1b !important};
       }
       @media (prefers-color-scheme: dark){
            .cls-1 {stroke: #fdfdfb !important};
       }
    </style>
  <title
     id="title165">entropy-logo</title>
  <g id="Layer_1" data-name="Layer 1">
    <path
       class="cls-1"
       d="m 314.12,147.8 a 114.33,114.33 0 0 0 -4.2,-15.59 L 325.46,119.64 306.73,87.16 288,94.32 A 116.18,116.18 0 0 0 276.36,82.69 L 283.53,64 251,45.25 238.49,60.79 a 114.38,114.38 0 0 0 -15.67,-4.2 L 219.69,36.87 H 182.2 l -3.13,19.72 a 113.4,113.4 0 0 0 -15.7,4.21 L 150.81,45.27 118.33,64 125.49,82.72 A 116.27,116.27 0 0 0 113.85,94.36 L 95.14,87.19 76.42,119.68 92,132.23 A 114.38,114.38 0 0 0 87.82,147.8 L 68,151 v 37.5 l 19.74,3.23 A 114.33,114.33 0 0 0 92,207.35 l -15.56,12.56 18.72,32.49 18.71,-7.17 a 117.54,117.54 0 0 0 11.65,11.65 l -7.16,18.71 32.48,18.71 12.56,-15.53 a 114.38,114.38 0 0 0 15.67,4.2 l 3.13,19.72 h 37.49 L 222.82,283 a 115.21,115.21 0 0 0 15.71,-4.22 l 12.56,15.53 33.56,-20.94 -29.2,-57.88 a 177.54,177.54 0 0 1 -21,13.37 c -11.76,6.31 -21.76,8.84 -33.55,8.84 a 68,68 0 0 1 -63.62,-44.2 h 167.48 l 29.1,-4.95 V 151 Z"
       id="path167" />
    <path
       class="cls-1"
       d="m 200.94,101.88 a 68,68 0 0 1 63.63,44.2 H 137.32 a 68,68 0 0 1 63.62,-44.2 z"
       id="path169" />
    <path
       class="cls-1"
       d="m 314.12,147.8 a 114.33,114.33 0 0 0 -4.2,-15.59 L 325.46,119.64 306.73,87.16 288,94.32 A 116.18,116.18 0 0 0 276.36,82.69 L 283.53,64 251,45.25 238.49,60.79 a 114.38,114.38 0 0 0 -15.67,-4.2 L 219.69,36.87 H 182.2 l -3.13,19.72 a 113.4,113.4 0 0 0 -15.7,4.21 L 150.81,45.27 118.33,64 125.49,82.72 A 116.27,116.27 0 0 0 113.85,94.36 L 95.14,87.19 76.42,119.68 92,132.23 A 114.38,114.38 0 0 0 87.82,147.8 L 68,151 v 37.5 l 19.74,3.23 A 114.33,114.33 0 0 0 92,207.35 l -15.56,12.56 18.72,32.49 18.71,-7.17 a 117.54,117.54 0 0 0 11.65,11.65 l -7.16,18.71 32.48,18.71 12.56,-15.53 a 114.38,114.38 0 0 0 15.67,4.2 l 3.13,19.72 h 37.49 L 222.82,283 a 115.21,115.21 0 0 0 15.71,-4.22 l 12.56,15.53 33.56,-20.94 -29.2,-57.88 -21,13.37 A 67.94,67.94 0 0 1 137.28,193.5 h 167.48 l 29.1,-4.95 V 151 Z M 200.94,101.88 a 68,68 0 0 1 63.63,44.2 H 137.32 a 68,68 0 0 1 63.62,-44.2 z"
       id="path171" />
    <path
       class="cls-1"
       d="M 292.59,169.78 A 91.6,91.6 0 0 0 201,78.18 v 23.7 a 68,68 0 0 1 63.63,44.2 z"
       id="path173" />
    <path
       class="cls-1"
       d="m 121.65,215.52 -7.72,29.67 a 114.69,114.69 0 0 0 11.66,11.67 l 29.21,-8 C 141.23,240.91 129,229.07 121.65,215.52 Z"
       id="path175" />
    <path
       class="cls-1"
       d="m 109.39,169.78 a 93.24,93.24 0 0 1 12.23,-45.72 L 92,132.23 a 116.33,116.33 0 0 0 -4.19,15.63 L 109,169.78 87.87,191.7 A 114.38,114.38 0 0 0 92,207.3 l 29.61,8.22 a 91.1,91.1 0 0 1 -12.22,-45.74 z"
       id="path177" />
    <path
       class="cls-1"
       d="M 201,78.18 179.15,56.62 a 115,115 0 0 0 -15.45,4.1 l -8.45,29.7 a 91.07,91.07 0 0 1 43.28,-12.21 z"
       id="path179" />
    <path
       class="cls-1"
       d="m 121.62,124.06 a 94.19,94.19 0 0 1 33.63,-33.64 l -29.71,-7.71 v 0 a 114.5,114.5 0 0 0 -11.65,11.66 z"
       id="path181" />
    <polygon
       class="cls-1"
       points="137.37,193.48 304.81,193.48 292.59,169.78 109,169.78 "
       id="polygon183" />
    <polygon
       class="cls-1"
       points="200.99,48.43 200.99,78.18 179.12,56.59 182.25,36.86 "
       id="polygon185" />
    <polygon
       class="cls-1"
       points="251.09,45.25 238.53,60.79 246.72,90.4 261.56,64.63 "
       id="polygon187" />
    <polygon
       class="cls-1"
       points="76.47,119.68 92,132.23 121.62,124.06 95.84,109.21 "
       id="polygon189" />
    <polygon
       class="cls-1"
       points="306.78,87.16 288.06,94.32 280.36,124.02 306.12,109.18 "
       id="polygon191" />
    <polygon
       class="cls-1"
       points="95.21,252.4 113.92,245.23 121.65,215.52 95.86,230.38 "
       id="polygon193" />
    <polygon
       class="cls-1"
       points="251.14,294.29 238.58,278.76 246.45,248.63 261.6,274.91 "
       id="polygon195" />
    <polygon
       class="cls-1"
       points="125.54,82.71 155.25,90.42 140.39,64.65 118.37,63.99 "
       id="polygon197" />
    <polygon
       class="cls-1"
       points="87.82,191.76 68.08,188.53 79.64,169.78 109,169.78 "
       id="polygon199" />
    <polygon
       class="cls-1"
       points="76.48,219.91 95.86,230.38 95.21,252.4 "
       id="polygon201" />
    <polygon
       class="cls-1"
       points="140.42,274.93 118.4,275.59 125.56,256.88 154.8,248.85 "
       id="polygon203" />
    <polygon
       class="cls-1"
       points="150.89,294.31 140.42,274.93 118.4,275.59 "
       id="polygon205" />
    <polygon
       class="cls-1"
       points="200.99,291.13 182.25,302.69 179.12,282.97 200.99,260.79 "
       id="polygon207" />
    <polygon
       class="cls-1"
       points="322.34,169.78 292.59,169.78 304.81,193.48 333.91,188.53 "
       id="polygon209" />
    <path
       class="cls-1"
       d="m 201,237.68 c 11.78,0 21.29,-2.45 33.55,-8.84 a 142.16,142.16 0 0 0 21,-13.38 l -8.75,33.69 c -13.62,8 -29.64,11.64 -45.76,11.64 z"
       id="path211" />
    <polygon
       class="cls-1"
       points="79.64,169.78 68.08,151.03 68.08,188.53 "
       id="polygon213" />
    <polygon
       class="cls-1"
       points="95.84,109.21 95.18,87.19 76.47,119.68 "
       id="polygon215" />
    <polygon
       class="cls-1"
       points="140.39,64.65 150.85,45.27 118.37,63.99 "
       id="polygon217" />
    <polygon
       class="cls-1"
       points="292.59,169.78 264.62,146.08 137.37,146.08 109,169.78 "
       id="polygon219" />
    <polygon
       class="cls-1"
       points="309.97,132.2 280.36,124.02 306.12,109.18 325.5,119.64 "
       id="polygon221" />
    <polygon
       class="cls-1"
       points="261.56,64.63 283.58,63.97 276.42,82.68 246.72,90.4 "
       id="polygon223" />
    <polygon
       class="cls-1"
       points="200.99,78.18 200.99,48.43 219.74,36.86 222.86,56.59 "
       id="polygon225" />
    <polygon
       class="cls-1"
       points="246.75,249.15 255.5,215.46 284.42,272.85 261.6,274.91 "
       id="polygon227" />
    <polygon
       class="cls-1"
       points="219.74,302.69 200.99,291.13 200.99,260.79 222.86,282.98 "
       id="polygon229" />
    <polygon
       class="cls-1"
       points="140.42,274.93 150.89,294.31 163.45,278.77 154.8,248.85 "
       id="polygon231" />
    <path
       class="cls-1"
       d="m 154.8,248.85 c 0,0 5.78,5 21.36,9.07 15.58,4.07 24.84,2.87 24.84,2.87 L 179.12,283 163.45,278.8 Z"
       id="path233" />
    <polygon
       class="cls-1"
       points="251.09,45.25 261.56,64.63 283.58,63.97 "
       id="polygon235" />
    <polygon
       class="cls-1"
       points="306.78,87.16 306.12,109.18 325.5,119.64 "
       id="polygon237" />
    <polygon
       class="cls-1"
       points="322.34,169.78 333.91,151.03 333.91,188.53 "
       id="polygon239" />
    <path
       class="cls-1"
       d="m 137.36,193.48 -28,-23.7 c 0,0 -2.51,43.71 36.43,73.07 11.19,8.44 17.83,11.87 31.45,15.44 a 83.43,83.43 0 0 0 23.72,2.5 l -0.28,-23.11 c 0,0 -22.79,0.88 -41.13,-14.13 -18.63,-15.27 -22.19,-30.07 -22.19,-30.07 z"
       id="path241" />
    <polygon
       class="cls-1"
       points="219.74,302.69 200.99,291.13 182.25,302.69 "
       id="polygon243" />
    <path
       class="cls-1"
       d="m 201,260.79 c 0,0 7.91,0.19 22.54,-2.77 14.63,-2.96 23.22,-8.87 23.22,-8.87 l -8.17,29.61 c 0,0 -3,1 -7.88,2.41 a 64.42,64.42 0 0 1 -7.84,1.81 z"
       id="path245" />
    <polygon
       class="cls-1"
       points="155.25,90.42 163.7,60.72 150.85,45.27 140.39,64.65 "
       id="polygon247" />
    <polygon
       class="cls-1"
       points="95.18,87.19 95.84,109.21 121.62,124.06 113.89,94.35 "
       id="polygon249" />
    <polygon
       class="cls-1"
       points="333.91,151.03 322.34,169.78 292.59,169.78 314.12,147.8 "
       id="polygon251" />
  </g>
</svg>
