<svg xmlns="http://www.w3.org/2000/svg" viewBox="0 0 400 339.3"><defs><style>.cls-1{fill:none;stroke:#1d1d1b;stroke-linejoin:round;stroke-width:3px;}</style></defs><title>entropy-logo-slipmat</title><g id="Layer_1" data-name="Layer 1"><path class="cls-1" d="M314.12,147.8a114.33,114.33,0,0,0-4.2-15.59l15.54-12.57L306.73,87.16,288,94.32a116.18,116.18,0,0,0-11.64-11.63L283.53,64,251,45.25,238.49,60.79a114.38,114.38,0,0,0-15.67-4.2l-3.13-19.72H182.2l-3.13,19.72a113.4,113.4,0,0,0-15.7,4.21L150.81,45.27,118.33,64l7.16,18.72a116.27,116.27,0,0,0-11.64,11.64L95.14,87.19,76.42,119.68,92,132.23a114.38,114.38,0,0,0-4.18,15.57L68,151v37.5l19.74,3.23A114.33,114.33,0,0,0,92,207.35L76.44,219.91,95.16,252.4l18.71-7.17a117.54,117.54,0,0,0,11.65,11.65l-7.16,18.71,32.48,18.71,12.56-15.53a114.38,114.38,0,0,0,15.67,4.2l3.13,19.72h37.49L222.82,283a115.21,115.21,0,0,0,15.71-4.22l12.56,15.53,33.56-20.94-29.2-57.88a177.54,177.54,0,0,1-21,13.37c-11.76,6.31-21.76,8.84-33.55,8.84a68,68,0,0,1-63.62-44.2H304.76l29.1-4.95V151Z"/><path class="cls-1" d="M200.94,101.88a68,68,0,0,1,63.63,44.2H137.32A68,68,0,0,1,200.94,101.88Z"/><path class="cls-1" d="M314.12,147.8a114.33,114.33,0,0,0-4.2-15.59l15.54-12.57L306.73,87.16,288,94.32a116.18,116.18,0,0,0-11.64-11.63L283.53,64,251,45.25,238.49,60.79a114.38,114.38,0,0,0-15.67-4.2l-3.13-19.72H182.2l-3.13,19.72a113.4,113.4,0,0,0-15.7,4.21L150.81,45.27,118.33,64l7.16,18.72a116.27,116.27,0,0,0-11.64,11.64L95.14,87.19,76.42,119.68,92,132.23a114.38,114.38,0,0,0-4.18,15.57L68,151v37.5l19.74,3.23A114.33,114.33,0,0,0,92,207.35L76.44,219.91,95.16,252.4l18.71-7.17a117.54,117.54,0,0,0,11.65,11.65l-7.16,18.71,32.48,18.71,12.56-15.53a114.38,114.38,0,0,0,15.67,4.2l3.13,19.72h37.49L222.82,283a115.21,115.21,0,0,0,15.71-4.22l12.56,15.53,33.56-20.94-29.2-57.88-21,13.37a67.94,67.94,0,0,1-97.17-35.36H304.76l29.1-4.95V151ZM200.94,101.88a68,68,0,0,1,63.63,44.2H137.32A68,68,0,0,1,200.94,101.88Z"/><path class="cls-1" d="M292.59,169.78A91.6,91.6,0,0,0,201,78.18v23.7a68,68,0,0,1,63.63,44.2Z"/><path class="cls-1" d="M121.65,215.52l-7.72,29.67a114.69,114.69,0,0,0,11.66,11.67l29.21-8C141.23,240.91,129,229.07,121.65,215.52Z"/><path class="cls-1" d="M109.39,169.78a93.24,93.24,0,0,1,12.23-45.72L92,132.23a116.33,116.33,0,0,0-4.19,15.63L109,169.78,87.87,191.7A114.38,114.38,0,0,0,92,207.3l29.61,8.22A91.1,91.1,0,0,1,109.39,169.78Z"/><path class="cls-1" d="M201,78.18,179.15,56.62a115,115,0,0,0-15.45,4.1l-8.45,29.7a91.07,91.07,0,0,1,43.28-12.21Z"/><path class="cls-1" d="M121.62,124.06a94.19,94.19,0,0,1,33.63-33.64l-29.71-7.71v0a114.5,114.5,0,0,0-11.65,11.66Z"/><polygon class="cls-1" points="292.59 169.78 109 169.78 137.37 193.48 304.81 193.48 292.59 169.78"/><polygon class="cls-1" points="179.12 56.59 182.25 36.86 200.99 48.43 200.99 78.18 179.12 56.59"/><polygon class="cls-1" points="246.72 90.4 261.56 64.63 251.09 45.25 238.53 60.79 246.72 90.4"/><polygon class="cls-1" points="121.62 124.06 95.84 109.21 76.47 119.68 92 132.23 121.62 124.06"/><polygon class="cls-1" points="280.36 124.02 306.12 109.18 306.78 87.16 288.06 94.32 280.36 124.02"/><polygon class="cls-1" points="121.65 215.52 95.86 230.38 95.21 252.4 113.92 245.23 121.65 215.52"/><polygon class="cls-1" points="246.45 248.63 261.6 274.91 251.14 294.29 238.58 278.76 246.45 248.63"/><polygon class="cls-1" points="140.39 64.65 118.37 63.99 125.54 82.71 155.25 90.42 140.39 64.65"/><polygon class="cls-1" points="79.64 169.78 109 169.78 87.82 191.76 68.08 188.53 79.64 169.78"/><polygon class="cls-1" points="76.48 219.91 95.86 230.38 95.21 252.4 76.48 219.91"/><polygon class="cls-1" points="125.56 256.88 154.8 248.85 140.42 274.93 118.4 275.59 125.56 256.88"/><polygon class="cls-1" points="150.89 294.31 140.42 274.93 118.4 275.59 150.89 294.31"/><polygon class="cls-1" points="179.12 282.97 200.99 260.79 200.99 291.13 182.25 302.69 179.12 282.97"/><polygon class="cls-1" points="304.81 193.48 333.91 188.53 322.34 169.78 292.59 169.78 304.81 193.48"/><path class="cls-1" d="M201,237.68c11.78,0,21.29-2.45,33.55-8.84a142.16,142.16,0,0,0,21-13.38l-8.75,33.69c-13.62,8-29.64,11.64-45.76,11.64Z"/><polygon class="cls-1" points="79.64 169.78 68.08 151.03 68.08 188.53 79.64 169.78"/><polygon class="cls-1" points="95.84 109.21 95.18 87.19 76.47 119.68 95.84 109.21"/><polygon class="cls-1" points="140.39 64.65 150.85 45.27 118.37 63.99 140.39 64.65"/><polygon class="cls-1" points="137.37 146.08 109 169.78 292.59 169.78 264.62 146.08 137.37 146.08"/><polygon class="cls-1" points="306.12 109.18 325.5 119.64 309.97 132.2 280.36 124.02 306.12 109.18"/><polygon class="cls-1" points="276.42 82.68 246.72 90.4 261.56 64.63 283.58 63.97 276.42 82.68"/><polygon class="cls-1" points="219.74 36.86 222.86 56.59 200.99 78.18 200.99 48.43 219.74 36.86"/><polygon class="cls-1" points="284.42 272.85 261.6 274.91 246.75 249.15 255.5 215.46 284.42 272.85"/><polygon class="cls-1" points="200.99 260.79 222.86 282.98 219.74 302.69 200.99 291.13 200.99 260.79"/><polygon class="cls-1" points="163.45 278.77 154.8 248.85 140.42 274.93 150.89 294.31 163.45 278.77"/><path class="cls-1" d="M154.8,248.85s5.78,5,21.36,9.07S201,260.79,201,260.79L179.12,283l-15.67-4.2Z"/><polygon class="cls-1" points="251.09 45.25 261.56 64.63 283.58 63.97 251.09 45.25"/><polygon class="cls-1" points="306.78 87.16 306.12 109.18 325.5 119.64 306.78 87.16"/><polygon class="cls-1" points="322.34 169.78 333.91 151.03 333.91 188.53 322.34 169.78"/><path class="cls-1" d="M137.36,193.48l-28-23.7s-2.51,43.71,36.43,73.07c11.19,8.44,17.83,11.87,31.45,15.44a83.43,83.43,0,0,0,23.72,2.5l-.28-23.11s-22.79.88-41.13-14.13C140.92,208.28,137.36,193.48,137.36,193.48Z"/><polygon class="cls-1" points="219.74 302.69 200.99 291.13 182.25 302.69 219.74 302.69"/><path class="cls-1" d="M201,260.79s7.91.19,22.54-2.77,23.22-8.87,23.22-8.87l-8.17,29.61s-3,1-7.88,2.41a64.42,64.42,0,0,1-7.84,1.81Z"/><polygon class="cls-1" points="150.85 45.27 140.39 64.65 155.25 90.42 163.7 60.72 150.85 45.27"/><polygon class="cls-1" points="121.62 124.06 113.89 94.35 95.18 87.19 95.84 109.21 121.62 124.06"/><polygon class="cls-1" points="292.59 169.78 314.12 147.8 333.91 151.03 322.34 169.78 292.59 169.78"/></g></svg>