<svg xmlns="http://www.w3.org/2000/svg" viewBox="0 0 1269 466"><defs><style>.cls-1,.cls-2{fill:none;stroke:#1d1d1b;stroke-linejoin:round;}.cls-1{stroke-linecap:round;stroke-width:5px;}.cls-2{stroke-width:3px;}</style></defs><title>entropy-logo+teksti</title><g id="Layer_1" data-name="Layer 1"><polyline class="cls-1" points="582.98 277.89 521.29 277.89 521.29 228.62 521.29 185.85 580.08 185.85"/><line class="cls-1" x1="553.63" y1="229.15" x2="521.29" y2="229.15"/><polyline class="cls-1" points="620.02 278.34 620.02 185.17 681.17 278.07 681.17 184.02"/><line class="cls-1" x1="714.29" y1="185.89" x2="790.29" y2="185.89"/><line class="cls-1" x1="753.29" y1="278.89" x2="753.29" y2="185.89"/><path class="cls-1" d="M823.29,278.89v-93c37-3,57,2,57,23,0,18-26,24-26,24h-31"/><path class="cls-1" d="M889.29,278.89s-23-46-40-46"/><ellipse class="cls-1" cx="959.29" cy="230.89" rx="40" ry="48"/><polyline class="cls-1" points="1127.29 182.89 1163.29 232.89 1197.29 182.89"/><line class="cls-1" x1="1163.29" y1="278.89" x2="1163.29" y2="232.89"/><path class="cls-1" d="M1042.29,278.69v-93c37-3,57,2,57,23,0,18-16.73,25.61-26,27.2-7.64,1.31-31,0-31,0"/><path class="cls-2" d="M415.2,197.47a175.07,175.07,0,0,0-6.38-23.72l23.62-19.1L404,105.26,375.5,116.15a175.94,175.94,0,0,0-17.7-17.69L368.69,70l-49.4-28.45L300.2,65.16a174.12,174.12,0,0,0-23.83-6.39l-4.76-30h-57l-4.75,30A173.05,173.05,0,0,0,186,65.18l-19.1-23.63L117.48,70l10.89,28.47a177.19,177.19,0,0,0-17.7,17.71L82.21,105.3,53.75,154.71,77.37,173.8A174.71,174.71,0,0,0,71,197.47l-30,4.91v57l30,4.91A173.87,173.87,0,0,0,77.39,288L53.78,307.13l28.47,49.39,28.45-10.89a179.33,179.33,0,0,0,17.71,17.7l-10.89,28.46,49.4,28.45L186,396.62A172.69,172.69,0,0,0,209.85,403l4.75,30h57l4.75-30a177.72,177.72,0,0,0,23.9-6.41l19.1,23.62,51-31.85-44.39-88a269.76,269.76,0,0,1-31.87,20.33c-17.89,9.6-33.1,13.45-51,13.45a103.4,103.4,0,0,1-96.74-67.21H401l44.25-7.53v-57Z"/><path class="cls-2" d="M243.1,127.64a103.41,103.41,0,0,1,96.75,67.21H146.36A103.4,103.4,0,0,1,243.1,127.64Z"/><path class="cls-2" d="M415.2,197.47a175.07,175.07,0,0,0-6.38-23.72l23.62-19.1L404,105.26,375.5,116.15a175.94,175.94,0,0,0-17.7-17.69L368.69,70l-49.4-28.45L300.2,65.16a174.12,174.12,0,0,0-23.83-6.39l-4.76-30h-57l-4.75,30A173.05,173.05,0,0,0,186,65.18l-19.1-23.63L117.48,70l10.89,28.47a177.19,177.19,0,0,0-17.7,17.71L82.21,105.3,53.75,154.71,77.37,173.8A174.71,174.71,0,0,0,71,197.47l-30,4.91v57l30,4.91A173.87,173.87,0,0,0,77.39,288L53.78,307.13l28.47,49.39,28.45-10.89a179.33,179.33,0,0,0,17.71,17.7l-10.89,28.46,49.4,28.45L186,396.62A172.69,172.69,0,0,0,209.85,403l4.75,30h57l4.75-30a177.72,177.72,0,0,0,23.9-6.41l19.1,23.62,51-31.85-44.39-88-31.87,20.33a103.3,103.3,0,0,1-147.76-53.76H401l44.25-7.53v-57ZM243.1,127.64a103.41,103.41,0,0,1,96.75,67.21H146.36A103.4,103.4,0,0,1,243.1,127.64Z"/><path class="cls-2" d="M382.46,230.89A139.29,139.29,0,0,0,243.17,91.6v36a103.42,103.42,0,0,1,96.75,67.22Z"/><path class="cls-2" d="M122.53,300.44l-11.74,45.12a176.84,176.84,0,0,0,17.73,17.75l44.42-12.19C152.31,339,133.72,321.05,122.53,300.44Z"/><path class="cls-2" d="M103.89,230.89a141.84,141.84,0,0,1,18.6-69.52l-45,12.42a176.4,176.4,0,0,0-6.37,23.76l32.18,33.34L71.17,264.23A174.28,174.28,0,0,0,77.51,288l45,12.49A138.43,138.43,0,0,1,103.89,230.89Z"/><path class="cls-2" d="M243.17,91.6,210,58.82a173.69,173.69,0,0,0-23.49,6.23l-12.86,45.16a138.6,138.6,0,0,1,65.83-18.56Z"/><path class="cls-2" d="M122.49,161.37a143.22,143.22,0,0,1,51.12-51.16L128.44,98.49v0a174.27,174.27,0,0,0-17.71,17.72Z"/><polygon class="cls-2" points="382.46 230.89 103.3 230.89 146.43 266.93 401.04 266.93 382.46 230.89"/><polygon class="cls-2" points="209.92 58.77 214.67 28.78 243.18 46.37 243.18 91.6 209.92 58.77"/><polygon class="cls-2" points="312.71 110.18 335.28 71 319.36 41.54 300.27 65.16 312.71 110.18"/><polygon class="cls-2" points="122.49 161.37 83.29 138.78 53.82 154.71 77.44 173.8 122.49 161.37"/><polygon class="cls-2" points="363.87 161.31 403.04 138.74 404.04 105.26 375.57 116.15 363.87 161.31"/><polygon class="cls-2" points="122.53 300.44 83.32 323.04 82.32 356.52 110.77 345.62 122.53 300.44"/><polygon class="cls-2" points="312.3 350.78 335.34 390.75 319.43 420.23 300.33 396.61 312.3 350.78"/><polygon class="cls-2" points="151.02 71.03 117.55 70.02 128.44 98.49 173.62 110.21 151.02 71.03"/><polygon class="cls-2" points="58.66 230.89 103.3 230.89 71.08 264.31 41.07 259.39 58.66 230.89"/><polygon class="cls-2" points="53.85 307.13 83.32 323.04 82.32 356.52 53.85 307.13"/><polygon class="cls-2" points="128.48 363.33 172.94 351.13 151.07 390.78 117.59 391.78 128.48 363.33"/><polygon class="cls-2" points="166.99 420.24 151.07 390.78 117.59 391.78 166.99 420.24"/><polygon class="cls-2" points="209.92 403.01 243.18 369.27 243.18 415.41 214.67 432.99 209.92 403.01"/><polygon class="cls-2" points="401.04 266.93 445.29 259.39 427.7 230.89 382.46 230.89 401.04 266.93"/><path class="cls-2" d="M243.17,334.14c17.92,0,32.37-3.73,51-13.45a216.35,216.35,0,0,0,31.87-20.34l-13.31,51.23c-20.7,12.19-45.06,17.7-69.57,17.7Z"/><polygon class="cls-2" points="58.66 230.89 41.07 202.38 41.07 259.39 58.66 230.89"/><polygon class="cls-2" points="83.29 138.78 82.28 105.31 53.82 154.71 83.29 138.78"/><polygon class="cls-2" points="151.02 71.03 166.94 41.55 117.55 70.02 151.02 71.03"/><polygon class="cls-2" points="146.43 194.85 103.3 230.89 382.46 230.89 339.92 194.85 146.43 194.85"/><polygon class="cls-2" points="403.04 138.74 432.51 154.65 408.89 173.75 363.87 161.31 403.04 138.74"/><polygon class="cls-2" points="357.87 98.45 312.71 110.18 335.28 71 368.76 69.99 357.87 98.45"/><polygon class="cls-2" points="271.68 28.78 276.44 58.77 243.18 91.6 243.18 46.37 271.68 28.78"/><polygon class="cls-2" points="370.03 387.61 335.34 390.75 312.75 351.58 326.06 300.35 370.03 387.61"/><polygon class="cls-2" points="243.18 369.27 276.43 403.02 271.68 432.99 243.18 415.41 243.18 369.27"/><polygon class="cls-2" points="186.09 396.62 172.94 351.13 151.07 390.78 166.99 420.24 186.09 396.62"/><path class="cls-2" d="M172.94,351.12s8.78,7.61,32.48,13.8,37.76,4.36,37.76,4.36L209.92,403l-23.83-6.39Z"/><polygon class="cls-2" points="319.36 41.54 335.28 71 368.76 69.99 319.36 41.54"/><polygon class="cls-2" points="404.04 105.26 403.04 138.74 432.51 154.65 404.04 105.26"/><polygon class="cls-2" points="427.7 230.89 445.29 202.38 445.29 259.39 427.7 230.89"/><path class="cls-2" d="M146.43,266.93l-42.54-36s-3.81,66.46,55.4,111.11c17,12.84,27.11,18.05,47.81,23.47a126.58,126.58,0,0,0,36.08,3.81l-.43-35.14s-34.66,1.33-62.54-21.49C151.83,289.43,146.43,266.93,146.43,266.93Z"/><polygon class="cls-2" points="271.68 432.99 243.18 415.41 214.67 432.99 271.68 432.99"/><path class="cls-2" d="M243.18,369.28s12,.29,34.27-4.22,35.3-13.48,35.3-13.48l-12.42,45s-4.52,1.54-12,3.66A97.2,97.2,0,0,1,276.43,403Z"/><polygon class="cls-2" points="166.94 41.55 151.02 71.03 173.62 110.21 186.47 65.05 166.94 41.55"/><polygon class="cls-2" points="122.49 161.37 110.72 116.19 82.28 105.31 83.29 138.78 122.49 161.37"/><polygon class="cls-2" points="382.46 230.89 415.2 197.47 445.29 202.38 427.7 230.89 382.46 230.89"/></g></svg>