<?xml version="1.0" encoding="UTF-8" standalone="no"?>
<svg
   xmlns:dc="http://purl.org/dc/elements/1.1/"
   xmlns:cc="http://creativecommons.org/ns#"
   xmlns:rdf="http://www.w3.org/1999/02/22-rdf-syntax-ns#"
   xmlns:svg="http://www.w3.org/2000/svg"
   xmlns="http://www.w3.org/2000/svg"
   xmlns:sodipodi="http://sodipodi.sourceforge.net/DTD/sodipodi-0.dtd"
   xmlns:inkscape="http://www.inkscape.org/namespaces/inkscape"
   viewBox="0 0 1046.6802 379.64954"
   version="1.1"
   id="svg3987"
   sodipodi:docname="header-logo-text.svg"
   width="1046.6802"
   height="379.64954"
   inkscape:version="0.92.4 5da689c313, 2019-01-14">
  <metadata
     id="metadata3991">
    <rdf:RDF>
      <cc:Work
         rdf:about="">
        <dc:format>image/svg+xml</dc:format>
        <dc:type
           rdf:resource="http://purl.org/dc/dcmitype/StillImage" />
        <dc:title>entropy-logo+teksti</dc:title>
      </cc:Work>
    </rdf:RDF>
  </metadata>
  <sodipodi:namedview
     pagecolor="#ffffff"
     bordercolor="#666666"
     borderopacity="1"
     objecttolerance="10"
     gridtolerance="10"
     guidetolerance="10"
     inkscape:pageopacity="0"
     inkscape:pageshadow="2"
     inkscape:window-width="2560"
     inkscape:window-height="1376"
     id="namedview3989"
     showgrid="false"
     inkscape:zoom="1.3139147"
     inkscape:cx="422.84301"
     inkscape:cy="258.09073"
     inkscape:window-x="2559"
     inkscape:window-y="0"
     inkscape:window-maximized="0"
     inkscape:current-layer="Layer_1"
     fit-margin-top="40"
     fit-margin-left="0"
     fit-margin-right="0"
     fit-margin-bottom="40" />
  <defs
     id="defs3874">
    <style
       id="style3872">.cls-1,.cls-2{fill:none;stroke:#1d1d1b;stroke-linejoin:round;}.cls-1{stroke-linecap:round;stroke-width:5px;}.cls-2{stroke-width:3px;}</style>
  </defs>
  <title
     id="title3876">entropy-logo+teksti</title>
  <g
     id="Layer_1"
     data-name="Layer 1"
     transform="translate(-153.12993,-38.371874)">
    <polyline
       class="cls-1"
       points="582.98 277.89 521.29 277.89 521.29 228.62 521.29 185.85 580.08 185.85"
       id="polyline3878"
       style="fill:none;stroke:#1d1d1b;stroke-width:5px;stroke-linecap:round;stroke-linejoin:round" />
    <line
       class="cls-1"
       x1="553.63"
       y1="229.14999"
       x2="521.28998"
       y2="229.14999"
       id="line3880"
       style="fill:none;stroke:#1d1d1b;stroke-width:5px;stroke-linecap:round;stroke-linejoin:round" />
    <polyline
       class="cls-1"
       points="620.02 278.34 620.02 185.17 681.17 278.07 681.17 184.02"
       id="polyline3882"
       style="fill:none;stroke:#1d1d1b;stroke-width:5px;stroke-linecap:round;stroke-linejoin:round" />
    <line
       class="cls-1"
       x1="714.28998"
       y1="185.89"
       x2="790.28998"
       y2="185.89"
       id="line3884"
       style="fill:none;stroke:#1d1d1b;stroke-width:5px;stroke-linecap:round;stroke-linejoin:round" />
    <line
       class="cls-1"
       x1="753.28998"
       y1="278.89001"
       x2="753.28998"
       y2="185.89"
       id="line3886"
       style="fill:none;stroke:#1d1d1b;stroke-width:5px;stroke-linecap:round;stroke-linejoin:round" />
    <path
       class="cls-1"
       d="m 823.29,278.89 v -93 c 37,-3 57,2 57,23 0,18 -26,24 -26,24 h -31"
       id="path3888"
       inkscape:connector-curvature="0"
       style="fill:none;stroke:#1d1d1b;stroke-width:5px;stroke-linecap:round;stroke-linejoin:round" />
    <path
       class="cls-1"
       d="m 889.29,278.89 c 0,0 -23,-46 -40,-46"
       id="path3890"
       inkscape:connector-curvature="0"
       style="fill:none;stroke:#1d1d1b;stroke-width:5px;stroke-linecap:round;stroke-linejoin:round" />
    <ellipse
       class="cls-1"
       cx="959.28998"
       cy="230.89"
       rx="40"
       ry="48"
       id="ellipse3892"
       style="fill:none;stroke:#1d1d1b;stroke-width:5px;stroke-linecap:round;stroke-linejoin:round" />
    <polyline
       class="cls-1"
       points="1127.29 182.89 1163.29 232.89 1197.29 182.89"
       id="polyline3894"
       style="fill:none;stroke:#1d1d1b;stroke-width:5px;stroke-linecap:round;stroke-linejoin:round" />
    <line
       class="cls-1"
       x1="1163.29"
       y1="278.89001"
       x2="1163.29"
       y2="232.89"
       id="line3896"
       style="fill:none;stroke:#1d1d1b;stroke-width:5px;stroke-linecap:round;stroke-linejoin:round" />
    <path
       class="cls-1"
       d="m 1042.29,278.69 v -93 c 37,-3 57,2 57,23 0,18 -16.73,25.61 -26,27.2 -7.64,1.31 -31,0 -31,0"
       id="path3898"
       inkscape:connector-curvature="0"
       style="fill:none;stroke:#1d1d1b;stroke-width:5px;stroke-linecap:round;stroke-linejoin:round" />
    <path
       class="cls-2"
       d="m 429.8581,203.60918 a 128.95103,128.82019 0 0 0 -4.69931,-17.45367 l 17.39776,-14.05419 -20.94801,-36.3422 -20.9922,8.0131 a 129.59184,129.46036 0 0 0 -13.03727,-13.01668 l 8.02124,-20.94147 -36.38648,-20.934114 -14.06109,17.372744 a 128.25129,128.12116 0 0 0 -17.55242,-4.7019 l -3.50607,-22.074634 h -41.9844 l -3.4987,22.074634 a 127.46316,127.33384 0 0 0 -17.57452,4.71661 l -14.06846,-17.387454 -36.4012,20.934114 8.02123,20.94883 a 130.51256,130.38013 0 0 0 -13.03727,13.03139 l -20.96273,-8.00573 -20.96274,36.35692 17.39775,14.04682 a 128.68586,128.55529 0 0 0 -4.69194,17.41688 l -22.09705,3.61288 v 41.9418 l 22.09705,3.61288 a 128.06715,127.93721 0 0 0 4.70667,17.44632 l -17.39038,14.07626 20.9701,36.3422 20.95537,-8.01309 a 132.08881,131.95479 0 0 0 13.04462,13.02404 l -8.02122,20.94146 36.38648,20.93411 14.05372,-17.38009 a 127.19799,127.06894 0 0 0 17.56716,4.69453 l 3.4987,22.07463 h 41.98439 l 3.4987,-22.07463 a 130.90293,130.77012 0 0 0 17.60398,-4.71661 l 14.06846,17.3801 37.56499,-23.43591 -32.69627,-64.75225 a 198.69669,198.49509 0 0 1 -23.47444,14.95924 c -13.17721,7.06389 -24.38041,9.8968 -37.56498,9.8968 a 76.161171,76.083896 0 0 1 -71.25563,-49.45454 h 187.56715 l 32.59314,-5.54073 v -41.9418 z"
       id="path3900"
       inkscape:connector-curvature="0"
       style="fill:none;stroke:#1d1d1b;stroke-width:2.20858383px;stroke-linejoin:round" />
    <path
       class="cls-2"
       d="m 303.09468,152.2268 a 76.168537,76.091254 0 0 1 71.26299,49.45453 H 231.83905 a 76.161171,76.083896 0 0 1 71.25563,-49.45453 z"
       id="path3902"
       inkscape:connector-curvature="0"
       style="fill:none;stroke:#1d1d1b;stroke-width:2.20858383px;stroke-linejoin:round" />
    <path
       class="cls-2"
       d="m 429.8581,203.60918 a 128.95103,128.82019 0 0 0 -4.69931,-17.45367 l 17.39776,-14.05419 -20.94801,-36.3422 -20.9922,8.0131 a 129.59184,129.46036 0 0 0 -13.03727,-13.01668 l 8.02124,-20.94147 -36.38648,-20.934114 -14.06109,17.372744 a 128.25129,128.12116 0 0 0 -17.55242,-4.7019 l -3.50607,-22.074634 h -41.9844 l -3.4987,22.074634 a 127.46316,127.33384 0 0 0 -17.57452,4.71661 l -14.06846,-17.387454 -36.4012,20.934114 8.02123,20.94883 a 130.51256,130.38013 0 0 0 -13.03727,13.03139 l -20.96273,-8.00573 -20.96274,36.35692 17.39775,14.04682 a 128.68586,128.55529 0 0 0 -4.69194,17.41688 l -22.09705,3.61288 v 41.9418 l 22.09705,3.61288 a 128.06715,127.93721 0 0 0 4.70667,17.44632 l -17.39038,14.07626 20.9701,36.3422 20.95537,-8.01309 a 132.08881,131.95479 0 0 0 13.04462,13.02404 l -8.02122,20.94146 36.38648,20.93411 14.05372,-17.38009 a 127.19799,127.06894 0 0 0 17.56716,4.69453 l 3.4987,22.07463 h 41.98439 l 3.4987,-22.07463 a 130.90293,130.77012 0 0 0 17.60398,-4.71661 l 14.06846,17.3801 37.56499,-23.43591 -32.69627,-64.75225 -23.47444,14.95924 A 76.087514,76.010318 0 0 1 231.81696,254.71931 h 187.58188 l 32.59314,-5.54073 v -41.9418 z M 303.09468,152.2268 a 76.168537,76.091254 0 0 1 71.26299,49.45453 H 231.83905 a 76.161171,76.083896 0 0 1 71.25563,-49.45453 z"
       id="path3904"
       inkscape:connector-curvature="0"
       style="fill:none;stroke:#1d1d1b;stroke-width:2.20858383px;stroke-linejoin:round" />
    <path
       class="cls-2"
       d="M 405.74286,228.20033 A 102.59661,102.49252 0 0 0 303.14624,125.70781 v 26.48955 a 76.175903,76.098612 0 0 1 71.263,49.4619 z"
       id="path3906"
       inkscape:connector-curvature="0"
       style="fill:none;stroke:#1d1d1b;stroke-width:2.20858383px;stroke-linejoin:round" />
    <path
       class="cls-2"
       d="m 214.28663,279.37668 -8.64731,33.20024 a 130.25475,130.1226 0 0 0 13.05936,13.06082 l 32.71836,-8.96965 c -15.1954,-8.91816 -28.88821,-22.12614 -37.13041,-37.29141 z"
       id="path3908"
       inkscape:connector-curvature="0"
       style="fill:none;stroke:#1d1d1b;stroke-width:2.20858383px;stroke-linejoin:round" />
    <path
       class="cls-2"
       d="m 200.557,228.20033 a 104.47486,104.36886 0 0 1 13.70017,-51.15429 l -33.14557,9.1389 a 129.93066,129.79883 0 0 0 -4.69194,17.48311 l 23.70277,24.53228 -23.66595,24.53227 a 128.36914,128.23889 0 0 0 4.66985,17.49046 l 33.14557,9.19041 A 101.96316,101.85971 0 0 1 200.557,228.20033 Z"
       id="path3910"
       inkscape:connector-curvature="0"
       style="fill:none;stroke:#1d1d1b;stroke-width:2.20858383px;stroke-linejoin:round" />
    <path
       class="cls-2"
       d="m 303.14624,125.70781 -24.43197,-24.12022 a 127.93457,127.80476 0 0 0 -17.30199,4.58417 l -9.47227,33.22967 a 102.08838,101.9848 0 0 1 48.4883,-13.65683 z"
       id="path3912"
       inkscape:connector-curvature="0"
       style="fill:none;stroke:#1d1d1b;stroke-width:2.20858383px;stroke-linejoin:round" />
    <path
       class="cls-2"
       d="m 214.25717,177.04604 a 105.49132,105.38429 0 0 1 37.65337,-37.64461 l -33.27079,-8.62382 v 0 a 128.36177,128.23154 0 0 0 -13.04462,13.03875 z"
       id="path3914"
       inkscape:connector-curvature="0"
       style="fill:none;stroke:#1d1d1b;stroke-width:2.20858383px;stroke-linejoin:round" />
    <polygon
       class="cls-2"
       points="146.43,266.93 401.04,266.93 382.46,230.89 103.3,230.89 "
       id="polygon3916"
       transform="matrix(0.73656839,0,0,0.73582104,124.03491,58.306596)"
       style="fill:none;stroke:#1d1d1b;stroke-width:3px;stroke-linejoin:round" />
    <polygon
       class="cls-2"
       points="243.18,46.37 243.18,91.6 209.92,58.77 214.67,28.78 "
       id="polygon3918"
       transform="matrix(0.73656839,0,0,0.73582104,124.03491,58.306596)"
       style="fill:none;stroke:#1d1d1b;stroke-width:3px;stroke-linejoin:round" />
    <polygon
       class="cls-2"
       points="319.36,41.54 300.27,65.16 312.71,110.18 335.28,71 "
       id="polygon3920"
       transform="matrix(0.73656839,0,0,0.73582104,124.03491,58.306596)"
       style="fill:none;stroke:#1d1d1b;stroke-width:3px;stroke-linejoin:round" />
    <polygon
       class="cls-2"
       points="53.82,154.71 77.44,173.8 122.49,161.37 83.29,138.78 "
       id="polygon3922"
       transform="matrix(0.73656839,0,0,0.73582104,124.03491,58.306596)"
       style="fill:none;stroke:#1d1d1b;stroke-width:3px;stroke-linejoin:round" />
    <polygon
       class="cls-2"
       points="404.04,105.26 375.57,116.15 363.87,161.31 403.04,138.74 "
       id="polygon3924"
       transform="matrix(0.73656839,0,0,0.73582104,124.03491,58.306596)"
       style="fill:none;stroke:#1d1d1b;stroke-width:3px;stroke-linejoin:round" />
    <polygon
       class="cls-2"
       points="82.32,356.52 110.77,345.62 122.53,300.44 83.32,323.04 "
       id="polygon3926"
       transform="matrix(0.73656839,0,0,0.73582104,124.03491,58.306596)"
       style="fill:none;stroke:#1d1d1b;stroke-width:3px;stroke-linejoin:round" />
    <polygon
       class="cls-2"
       points="319.43,420.23 300.33,396.61 312.3,350.78 335.34,390.75 "
       id="polygon3928"
       transform="matrix(0.73656839,0,0,0.73582104,124.03491,58.306596)"
       style="fill:none;stroke:#1d1d1b;stroke-width:3px;stroke-linejoin:round" />
    <polygon
       class="cls-2"
       points="128.44,98.49 173.62,110.21 151.02,71.03 117.55,70.02 "
       id="polygon3930"
       transform="matrix(0.73656839,0,0,0.73582104,124.03491,58.306596)"
       style="fill:none;stroke:#1d1d1b;stroke-width:3px;stroke-linejoin:round" />
    <polygon
       class="cls-2"
       points="71.08,264.31 41.07,259.39 58.66,230.89 103.3,230.89 "
       id="polygon3932"
       transform="matrix(0.73656839,0,0,0.73582104,124.03491,58.306596)"
       style="fill:none;stroke:#1d1d1b;stroke-width:3px;stroke-linejoin:round" />
    <polygon
       class="cls-2"
       points="82.32,356.52 53.85,307.13 83.32,323.04 "
       id="polygon3934"
       transform="matrix(0.73656839,0,0,0.73582104,124.03491,58.306596)"
       style="fill:none;stroke:#1d1d1b;stroke-width:3px;stroke-linejoin:round" />
    <polygon
       class="cls-2"
       points="151.07,390.78 117.59,391.78 128.48,363.33 172.94,351.13 "
       id="polygon3936"
       transform="matrix(0.73656839,0,0,0.73582104,124.03491,58.306596)"
       style="fill:none;stroke:#1d1d1b;stroke-width:3px;stroke-linejoin:round" />
    <polygon
       class="cls-2"
       points="117.59,391.78 166.99,420.24 151.07,390.78 "
       id="polygon3938"
       transform="matrix(0.73656839,0,0,0.73582104,124.03491,58.306596)"
       style="fill:none;stroke:#1d1d1b;stroke-width:3px;stroke-linejoin:round" />
    <polygon
       class="cls-2"
       points="243.18,415.41 214.67,432.99 209.92,403.01 243.18,369.27 "
       id="polygon3940"
       transform="matrix(0.73656839,0,0,0.73582104,124.03491,58.306596)"
       style="fill:none;stroke:#1d1d1b;stroke-width:3px;stroke-linejoin:round" />
    <polygon
       class="cls-2"
       points="427.7,230.89 382.46,230.89 401.04,266.93 445.29,259.39 "
       id="polygon3942"
       transform="matrix(0.73656839,0,0,0.73582104,124.03491,58.306596)"
       style="fill:none;stroke:#1d1d1b;stroke-width:3px;stroke-linejoin:round" />
    <path
       class="cls-2"
       d="m 303.14624,304.17385 c 13.1993,0 23.84272,-2.74462 37.56499,-9.8968 a 159.35657,159.19489 0 0 0 23.47444,-14.9666 l -9.80373,37.69612 c -15.24696,8.96966 -33.18977,13.02403 -51.24306,13.02403 z"
       id="path3944"
       inkscape:connector-curvature="0"
       style="fill:none;stroke:#1d1d1b;stroke-width:2.20858383px;stroke-linejoin:round" />
    <polygon
       class="cls-2"
       points="41.07,259.39 58.66,230.89 41.07,202.38 "
       id="polygon3946"
       transform="matrix(0.73656839,0,0,0.73582104,124.03491,58.306596)"
       style="fill:none;stroke:#1d1d1b;stroke-width:3px;stroke-linejoin:round" />
    <polygon
       class="cls-2"
       points="53.82,154.71 83.29,138.78 82.28,105.31 "
       id="polygon3948"
       transform="matrix(0.73656839,0,0,0.73582104,124.03491,58.306596)"
       style="fill:none;stroke:#1d1d1b;stroke-width:3px;stroke-linejoin:round" />
    <polygon
       class="cls-2"
       points="117.55,70.02 151.02,71.03 166.94,41.55 "
       id="polygon3950"
       transform="matrix(0.73656839,0,0,0.73582104,124.03491,58.306596)"
       style="fill:none;stroke:#1d1d1b;stroke-width:3px;stroke-linejoin:round" />
    <polygon
       class="cls-2"
       points="382.46,230.89 339.92,194.85 146.43,194.85 103.3,230.89 "
       id="polygon3952"
       transform="matrix(0.73656839,0,0,0.73582104,124.03491,58.306596)"
       style="fill:none;stroke:#1d1d1b;stroke-width:3px;stroke-linejoin:round" />
    <polygon
       class="cls-2"
       points="408.89,173.75 363.87,161.31 403.04,138.74 432.51,154.65 "
       id="polygon3954"
       transform="matrix(0.73656839,0,0,0.73582104,124.03491,58.306596)"
       style="fill:none;stroke:#1d1d1b;stroke-width:3px;stroke-linejoin:round" />
    <polygon
       class="cls-2"
       points="335.28,71 368.76,69.99 357.87,98.45 312.71,110.18 "
       id="polygon3956"
       transform="matrix(0.73656839,0,0,0.73582104,124.03491,58.306596)"
       style="fill:none;stroke:#1d1d1b;stroke-width:3px;stroke-linejoin:round" />
    <polygon
       class="cls-2"
       points="243.18,91.6 243.18,46.37 271.68,28.78 276.44,58.77 "
       id="polygon3958"
       transform="matrix(0.73656839,0,0,0.73582104,124.03491,58.306596)"
       style="fill:none;stroke:#1d1d1b;stroke-width:3px;stroke-linejoin:round" />
    <polygon
       class="cls-2"
       points="312.75,351.58 326.06,300.35 370.03,387.61 335.34,390.75 "
       id="polygon3960"
       transform="matrix(0.73656839,0,0,0.73582104,124.03491,58.306596)"
       style="fill:none;stroke:#1d1d1b;stroke-width:3px;stroke-linejoin:round" />
    <polygon
       class="cls-2"
       points="271.68,432.99 243.18,415.41 243.18,369.27 276.43,403.02 "
       id="polygon3962"
       transform="matrix(0.73656839,0,0,0.73582104,124.03491,58.306596)"
       style="fill:none;stroke:#1d1d1b;stroke-width:3px;stroke-linejoin:round" />
    <polygon
       class="cls-2"
       points="151.07,390.78 166.99,420.24 186.09,396.62 172.94,351.13 "
       id="polygon3964"
       transform="matrix(0.73656839,0,0,0.73582104,124.03491,58.306596)"
       style="fill:none;stroke:#1d1d1b;stroke-width:3px;stroke-linejoin:round" />
    <path
       class="cls-2"
       d="m 251.41704,316.66809 c 0,0 6.46708,5.59959 23.92374,10.15433 17.45668,4.55473 27.81283,3.20818 27.81283,3.20818 l -24.49827,24.81188 -17.55242,-4.70189 z"
       id="path3966"
       inkscape:connector-curvature="0"
       style="fill:none;stroke:#1d1d1b;stroke-width:2.20858383px;stroke-linejoin:round" />
    <polygon
       class="cls-2"
       points="368.76,69.99 319.36,41.54 335.28,71 "
       id="polygon3968"
       transform="matrix(0.73656839,0,0,0.73582104,124.03491,58.306596)"
       style="fill:none;stroke:#1d1d1b;stroke-width:3px;stroke-linejoin:round" />
    <polygon
       class="cls-2"
       points="432.51,154.65 404.04,105.26 403.04,138.74 "
       id="polygon3970"
       transform="matrix(0.73656839,0,0,0.73582104,124.03491,58.306596)"
       style="fill:none;stroke:#1d1d1b;stroke-width:3px;stroke-linejoin:round" />
    <polygon
       class="cls-2"
       points="445.29,259.39 427.7,230.89 445.29,202.38 "
       id="polygon3972"
       transform="matrix(0.73656839,0,0,0.73582104,124.03491,58.306596)"
       style="fill:none;stroke:#1d1d1b;stroke-width:3px;stroke-linejoin:round" />
    <path
       class="cls-2"
       d="M 231.89061,254.71931 200.557,228.22976 c 0,0 -2.80632,48.90266 40.80589,81.75707 12.52166,9.44794 19.96837,13.28157 35.21533,17.26972 a 93.234827,93.140229 0 0 0 26.57539,2.80348 l -0.31673,-25.85675 c 0,0 -25.52946,0.97864 -46.06498,-15.8128 -20.90381,-17.11519 -24.88129,-33.67117 -24.88129,-33.67117 z"
       id="path3974"
       inkscape:connector-curvature="0"
       style="fill:none;stroke:#1d1d1b;stroke-width:2.20858383px;stroke-linejoin:round" />
    <polygon
       class="cls-2"
       points="214.67,432.99 271.68,432.99 243.18,415.41 "
       id="polygon3976"
       transform="matrix(0.73656839,0,0,0.73582104,124.03491,58.306596)"
       style="fill:none;stroke:#1d1d1b;stroke-width:3px;stroke-linejoin:round" />
    <path
       class="cls-2"
       d="m 303.15361,330.0306 c 0,0 8.83882,0.21338 25.24219,-3.10516 16.40339,-3.31856 26.00088,-9.91887 26.00088,-9.91887 l -9.14819,33.11195 c 0,0 -3.32929,1.13316 -8.83882,2.6931 a 71.594448,71.521807 0 0 1 -8.76516,2.03086 z"
       id="path3978"
       inkscape:connector-curvature="0"
       style="fill:none;stroke:#1d1d1b;stroke-width:2.20858383px;stroke-linejoin:round" />
    <polygon
       class="cls-2"
       points="173.62,110.21 186.47,65.05 166.94,41.55 151.02,71.03 "
       id="polygon3980"
       transform="matrix(0.73656839,0,0,0.73582104,124.03491,58.306596)"
       style="fill:none;stroke:#1d1d1b;stroke-width:3px;stroke-linejoin:round" />
    <polygon
       class="cls-2"
       points="82.28,105.31 83.29,138.78 122.49,161.37 110.72,116.19 "
       id="polygon3982"
       transform="matrix(0.73656839,0,0,0.73582104,124.03491,58.306596)"
       style="fill:none;stroke:#1d1d1b;stroke-width:3px;stroke-linejoin:round" />
    <polygon
       class="cls-2"
       points="445.29,202.38 427.7,230.89 382.46,230.89 415.2,197.47 "
       id="polygon3984"
       transform="matrix(0.73656839,0,0,0.73582104,124.03491,58.306596)"
       style="fill:none;stroke:#1d1d1b;stroke-width:3px;stroke-linejoin:round" />
  </g>
</svg>
