<?xml version="1.0" encoding="utf-8"?>
<!-- Generator: Adobe Illustrator 26.0.2, SVG Export Plug-In . SVG Version: 6.00 Build 0)  -->
<svg version="1.1" id="Layer_1" xmlns="http://www.w3.org/2000/svg" xmlns:xlink="http://www.w3.org/1999/xlink" x="0px" y="0px"
	 viewBox="0 0 1999.56 876.47" style="enable-background:new 0 0 1999.56 876.47;" xml:space="preserve">
<style type="text/css">
	.st0{fill:#A0236F;}
	.st1{fill:#C01E81;}
	.st2{fill:#EA5B99;}
	.st3{fill:#EC71A2;}
	.st4{fill:#F9D4DF;}
	.st5{fill:#FFFFFF;}
	.st6{fill:#0296C2;}
	.st7{fill:#6AC4E2;}
	.st8{fill:#B5DEED;}
</style>
<polygon points="1912.33,142.94 1912.33,96.27 1865.66,96.27 1865.66,87.27 1865.66,49.61 1826.07,49.61 1819,49.61 179.77,49.61 
	157.6,49.61 133.1,49.61 133.1,87.27 133.1,96.27 86.44,96.27 86.44,142.94 39.78,142.94 39.78,165.93 39.78,189.6 39.78,323.68 
	39.78,418.08 39.78,479.83 39.78,550.15 39.78,686.94 39.78,731.98 39.78,733.61 86.44,733.61 86.44,780.27 133.1,780.27 
	133.1,789.28 133.1,826.93 157.6,826.93 179.77,826.93 1819,826.93 1840.08,826.93 1865.66,826.93 1865.66,789.28 1865.66,780.27 
	1912.33,780.27 1912.33,733.61 1958.99,733.61 1958.99,731.98 1958.99,686.94 1958.99,550.15 1958.99,479.83 1958.99,418.08 
	1958.99,323.68 1958.99,189.6 1958.99,165.93 1958.99,142.94 "/>
<g>
	<rect x="300.8" y="633.43" class="st0" width="45.1" height="45.08"/>
	<rect x="391.01" y="633.43" class="st1" width="45.1" height="45.08"/>
	<rect x="481.21" y="633.43" class="st2" width="45.1" height="45.08"/>
	<rect x="571.42" y="633.43" class="st2" width="45.1" height="45.08"/>
	<rect x="661.63" y="633.43" class="st3" width="45.1" height="45.08"/>
	<rect x="751.83" y="633.43" class="st3" width="45.1" height="45.08"/>
	<rect x="842.04" y="633.43" class="st4" width="45.1" height="45.08"/>
	<rect x="932.25" y="633.43" class="st4" width="45.1" height="45.08"/>
	<rect x="1022.46" y="633.43" class="st5" width="45.1" height="45.08"/>
	<rect x="1112.66" y="633.43" class="st5" width="45.1" height="45.08"/>
	
		<rect x="1653.9" y="633.43" transform="matrix(-1 -1.224647e-16 1.224647e-16 -1 3352.9109 1311.9502)" class="st6" width="45.1" height="45.08"/>
	
		<rect x="1563.7" y="633.43" transform="matrix(-1 -1.224647e-16 1.224647e-16 -1 3172.4971 1311.9502)" class="st6" width="45.1" height="45.08"/>
	
		<rect x="1473.49" y="633.43" transform="matrix(-1 -1.224647e-16 1.224647e-16 -1 2992.0833 1311.9502)" class="st7" width="45.1" height="45.08"/>
	
		<rect x="1383.28" y="633.43" transform="matrix(-1 -1.224647e-16 1.224647e-16 -1 2811.6694 1311.9502)" class="st7" width="45.1" height="45.08"/>
	
		<rect x="1293.08" y="633.43" transform="matrix(-1 -1.224647e-16 1.224647e-16 -1 2631.2556 1311.9502)" class="st8" width="45.1" height="45.08"/>
	
		<rect x="1202.87" y="633.43" transform="matrix(-1 -1.224647e-16 1.224647e-16 -1 2450.8418 1311.9502)" class="st8" width="45.1" height="45.08"/>
</g>
<g>
	<path class="st5" d="M351.34,584.84H300.8V498.1h101.08v17.35h16.85v34.7h-16.85v17.35h-50.54V584.84z M368.18,550.15v-34.7h-16.85
		v34.7H368.18z"/>
	<path class="st5" d="M553.49,584.84h-50.54v-17.35H486.1v17.35h-50.54V498.1h101.08v17.35h16.85v34.7h-16.85v17.35h16.85V584.84z
		 M502.95,550.15v-34.7H486.1v34.7H502.95z"/>
	<path class="st5" d="M671.41,584.84h-84.23v-17.35h-16.85v-52.04h16.85V498.1h84.23v17.35h16.85v52.04h-16.85V584.84z
		 M637.72,567.49v-52.04h-16.85v52.04H637.72z"/>
	<path class="st5" d="M806.18,584.84H705.1V498.1h101.08v17.35h16.85v52.04h-16.85V584.84z M772.48,567.49v-52.04h-16.85v52.04
		H772.48z"/>
	<path class="st5" d="M940.94,584.84h-84.23v-17.35h-16.85V498.1h50.54v69.39h16.85V498.1h50.54v69.39h-16.85V584.84z"/>
	<path class="st5" d="M1075.71,584.84h-84.23v-17.35h-16.85v-52.04h16.85V498.1h84.23v17.35h16.85v17.35h-50.54v-17.35h-16.85v52.04
		h16.85v-17.35h50.54v17.35h-16.85V584.84z"/>
	<path class="st5" d="M1210.48,584.84h-84.23v-17.35h16.85v-52.04h-33.69V498.1h117.92v17.35h-33.69v52.04h16.85V584.84z"/>
	<path class="st5" d="M1294.7,584.84h-50.54V498.1h50.54V584.84z"/>
	<path class="st5" d="M1412.63,584.84h-84.23v-17.35h-16.85v-52.04h16.85V498.1h84.23v17.35h16.85v52.04h-16.85V584.84z
		 M1378.93,567.49v-52.04h-16.85v52.04H1378.93z"/>
	<path class="st5" d="M1564.24,584.84h-33.69v-17.35h-33.69v-17.35h-16.85v34.7h-33.69V498.1h33.69v17.35h33.69v17.35h16.85v-34.7
		h33.69V584.84z"/>
	<path class="st5" d="M1682.16,584.84h-101.08v-17.35h67.39v-17.35h-50.54V532.8h-16.85v-17.35h16.85V498.1h101.08v17.35h-67.39
		v17.35h50.54v17.35h16.85v17.35h-16.85V584.84z"/>
</g>
<g>
	<path class="st5" d="M440.58,445.41H300.77V305.42h-46.61v-46.66h46.61V212.1h139.81V445.41z"/>
	<path class="st5" d="M766.82,445.41H533.79v-46.66h-46.61V258.76h46.61V212.1h233.02v46.66H627v46.66h139.81v46.66h46.6v46.66
		h-46.6V445.41z M673.61,398.75v-46.66H627v46.66H673.61z"/>
	<path class="st5" d="M1139.65,445.41H860.03V212.1h279.63v46.66h46.6v46.66h-46.6v46.66h46.6v46.66h-46.6V445.41z M1046.44,305.42
		v-46.66h-46.6v46.66H1046.44z M1046.44,398.75v-46.66h-46.6v46.66H1046.44z"/>
	<path class="st5" d="M1372.68,445.41h-139.81V212.1h139.81V445.41z"/>
	<path class="st5" d="M1698.91,445.41h-233.02v-46.66h46.6V258.76h-93.21V212.1h326.23v46.66h-93.21v139.99h46.61V445.41z"/>
</g>
</svg>
