<svg width="122" height="48" viewBox="0 0 122 48" fill="none" xmlns="http://www.w3.org/2000/svg">
<path d="M25.0868 46.5796H41.7896L28.6239 25.6193L41.5931 13.1742H23.9733L14.9342 22.5408V0.729004H0V46.5796H14.9342V38.13L18.4057 34.7895L25.0868 46.5796Z" fill="#FF3F03"/>
<path d="M57.8342 47.6931C69.6244 47.6931 77.812 40.881 77.812 29.8114C77.812 18.6762 69.6899 12.0607 57.8342 12.0607C45.913 12.0607 37.7909 18.3487 37.7909 29.8114C37.7909 41.274 45.8475 47.6931 57.8342 47.6931ZM57.8342 37.999C56.5897 37.999 55.6727 37.606 55.0832 36.8855C54.2317 35.8375 53.9041 33.4794 53.9041 29.8114C53.9041 26.2088 54.1662 23.9818 55.0177 22.8683C55.6727 22.0823 56.5897 21.7548 57.8342 21.7548C59.0132 21.7548 59.8647 22.0168 60.5197 22.8683C61.3057 23.9163 61.6988 26.2088 61.6988 29.8114C61.6988 33.4794 61.3712 35.8375 60.4542 36.951C59.9302 37.6715 59.0787 37.999 57.8342 37.999Z" fill="#FF3F03"/>
<path d="M96.973 47.0381C99.0035 47.0381 101.689 46.7761 103.785 46.3176L103.458 35.3135C102.41 35.5755 101.296 35.772 100.248 35.772C98.414 35.772 97.1695 35.3135 97.1695 33.2174V22.9993H103.654V13.1742H97.1695V3.41454H82.2353V13.1742H77.5193V22.9993H82.2353V35.117C82.2353 44.3526 87.9994 47.0381 96.973 47.0381Z" fill="#FF3F03"/>
<path d="M102.952 4.1079C102.431 4.1079 101.987 4.29662 101.62 4.67405C101.259 5.04328 101.078 5.48122 101.078 5.98788C101.078 6.51301 101.262 6.95916 101.629 7.32633C101.994 7.69351 102.435 7.8771 102.952 7.8771C103.467 7.8771 103.907 7.69248 104.272 7.32326C104.637 6.95198 104.82 6.50685 104.82 5.98788C104.82 5.48327 104.638 5.04533 104.275 4.67405C103.908 4.29662 103.467 4.1079 102.952 4.1079ZM105.22 5.98788C105.22 6.63198 104.993 7.17454 104.54 7.61556C104.099 8.04222 103.57 8.25555 102.952 8.25555C102.314 8.25555 101.777 8.0371 101.34 7.60018C100.903 7.16326 100.685 6.62583 100.685 5.98788C100.685 5.32533 100.92 4.77456 101.392 4.33559C101.835 3.92534 102.355 3.72021 102.952 3.72021C103.578 3.72021 104.112 3.94175 104.555 4.38482C104.998 4.8279 105.22 5.36225 105.22 5.98788ZM103.361 5.51712C103.361 5.37969 103.294 5.2843 103.158 5.23097C103.068 5.1961 102.941 5.17866 102.777 5.17866H102.617V5.90789H102.872C103.026 5.90789 103.146 5.87712 103.232 5.81558C103.318 5.75404 103.361 5.65455 103.361 5.51712ZM101.958 7.24941V4.73559C102.114 4.73559 102.347 4.73662 102.657 4.73867C102.969 4.73867 103.142 4.73969 103.177 4.74174C103.376 4.7561 103.541 4.79918 103.672 4.87097C103.896 4.99405 104.008 5.19405 104.008 5.47097C104.008 5.68225 103.948 5.83507 103.829 5.92942C103.712 6.02378 103.568 6.08019 103.395 6.09865C103.553 6.13147 103.672 6.17968 103.752 6.24327C103.9 6.36224 103.974 6.54993 103.974 6.80634V7.03095C103.974 7.05557 103.975 7.08018 103.977 7.1048C103.981 7.12941 103.987 7.15403 103.995 7.17864L104.017 7.24941H103.389C103.369 7.16941 103.355 7.05352 103.349 6.90172C103.343 6.74993 103.33 6.64737 103.309 6.59403C103.276 6.50583 103.215 6.44429 103.125 6.40942C103.075 6.38891 103 6.37557 102.9 6.36942L102.755 6.36019H102.617V7.24941H101.958Z" fill="#FF3F03"/>
<circle cx="114.403" cy="39.8895" r="7.59669" fill="#FF3F03"/>
</svg>
