<svg id="resolume_logo" data-name="resolume logo" xmlns="http://www.w3.org/2000/svg" width="500" height="60.554" viewBox="0 0 500 60.554">
  <g id="resolume_logo-2" data-name="resolume logo">
    <path id="Path_378" data-name="Path 378" d="M235.687,444.86V412.4H180.258A14.237,14.237,0,0,0,166.4,426.827v33.029H221.26A15,15,0,0,0,235.687,444.86Z" transform="translate(-166.399 -399.302)"/>
    <g id="Group_9" data-name="Group 9" transform="translate(98.331)">
      <path id="Path_379" data-name="Path 379" d="M225.223,422.654v28.284H218.2V416.2h27.335v6.644Z" transform="translate(-218.2 -395.889)"/>
      <path id="Path_380" data-name="Path 380" d="M265.964,436.891H258.37v-6.644h7.593c3.227,0,5.315-1.139,5.885-7.4H244.323v21.64h26.955v6.454H237.3V416.2h41.572v3.417C278.872,428.159,277.353,436.891,265.964,436.891Z" transform="translate(-201.043 -395.889)"/>
      <path id="Path_381" data-name="Path 381" d="M281.552,422.744,291.8,434.893c3.417,3.986,6.074,6.834,6.074,11.579v4.366H262v-6.454h28.094l-10.061-12.528c-3.417-4.176-6.074-6.454-6.074-12.528V416.1h35.687v6.644Z" transform="translate(-178.857 -395.979)"/>
      <path id="Path_382" data-name="Path 382" d="M321.472,451.028H291.1v-24.3a10.63,10.63,0,0,1,10.63-10.63h30.941v23.728a11.2,11.2,0,0,1-11.2,11.2Zm4.176-28.284H301.92a3.8,3.8,0,0,0-3.607,3.607v18.033h23.349a4.366,4.366,0,0,0,4.176-4.176Z" transform="translate(-152.718 -395.979)"/>
      <path id="Path_383" data-name="Path 383" d="M320.1,460.549V405.5h7.024v55.049Z" transform="translate(-126.669 -405.5)"/>
      <path id="Path_384" data-name="Path 384" d="M365.838,450.938v-13.1c-1.519,7.593-12.908,13.1-24.108,13.1H331.1V416.2h7.024v28.284h5.5c11.39,0,22.21-8.542,22.21-21.64V416.2h6.834v34.738Z" transform="translate(-116.788 -395.889)"/>
      <path id="Path_385" data-name="Path 385" d="M429.776,451.028V422.744h-5.5c-11.579,0-22.209,8.542-22.209,21.64v6.454h-7.024V422.744h-5.5c-11.389,0-22.209,8.542-22.209,21.64v6.454H360.3V416.29h7.024V429.2c1.519-7.593,12.908-13.1,24.108-13.1h10.63v13.1c1.519-7.593,12.908-13.1,24.108-13.1H436.8v34.738Z" transform="translate(-90.559 -395.979)"/>
      <path id="Path_386" data-name="Path 386" d="M436.564,436.891h-7.593v-6.644h7.593c3.227,0,5.315-1.139,5.885-7.4H414.924v21.64h26.955v6.454H407.9V416.2h41.572v3.417C449.472,428.159,447.953,436.891,436.564,436.891Z" transform="translate(-47.802 -395.889)"/>
    </g>
  </g>
</svg>
