<svg xmlns="http://www.w3.org/2000/svg" viewBox="-11 2.1 125.9 146.9"><g fill="#333"><path d="M98.3 5h2.4c-.2 3.7-.2 7.5-.4 11.1 3.7 2.4 7.5 4.7 11.3 6.9v1.7c-4 1.1-8 2.3-12 3.5V148h-10c-24.4-.2-49-.2-73.5-.3 0-30.1-.2-65.1-.3-95.1-.7-.1-1.4.4-2.2.5-.3-1.1-.5-2.1-.8-3.1s-.5-2.1-.9-3c-.3-.5-1-1.2-1.5-1.7-1.6-1.6-3.3-3.3-4.9-4.7 0 13.2.1 26.3.1 39.5 3.2.8 5.6 2.7 6 6.2.2 1.8.1 3.9.1 6v30.6H9.3c0-10.6.3-22.1.3-33v-1.1c0-.6.1-.9-.5-.8-.6 0-.4.2-.4.7-.3 2.6-.1 5.3-.1 7.7 0 8.8-.3 17.7-.2 26.5-.5.1-1.5.1-2.1 0 .1-10.8.4-21.9.4-33v-1.1c0-.6.1-.9-.7-.8-.5.1-.2.2-.3.9-.2 2.3 0 5.4-.1 7.7-.4 8.6 0 18.1-.3 26.4-.6 0-1.4.1-1.8-.1.3-10.4 0-22.1.4-32.9 0-1 .4-2.5-.8-2-.3.1-.2.9-.2 1.9 0 11-.3 22.2-.3 33H.8c.1-11.5.4-23.5.2-35-1.2-.4-.9.8-.9 2.1 0 10.8-.3 22.4-.3 32.9h-2.2V86.5c.5-3.4 2.4-5.4 5.4-6.3 0-15-.1-31.1-.1-46.3 0-1.1-.2-2.3 0-3.1.1-.6.9-1.4 1.3-2 1.4-2.1 2.8-4.3 4.1-6.1C6 19.5 3.5 16.1 1.5 13c3.2 1 6.5 1.9 9.7 2.9.1-.5-.4-.8-.7-1.2-2-3-4.2-6.1-6-8.9 15.6 2.2 31.4 4.3 47.3 6.5-.2-2.6 2.5-3.6 4.7-2.7.6.2 1.2 1.3 1.7 1.3.5.1 1.7-.5 2.5-.7C65.2 9 69 8.1 73.3 7c1.7-.4 3.5-1.1 5.2-1.3 1.6-.2 3.3-.1 4.9-.1 5.2-.2 9.7-.3 14.9-.6zm-.2 3.3c0-.8 0-.7-.6-.7-2.8.3-6.2.2-9.5.3-1.6 0-3.2.1-4.7.1-1.6 0-3.4 0-4.8.1-.9.1-1.8.5-2.7.7-6.6 1.6-13.2 3.3-19.5 5.1-.9.3-1.9.3-2.9.6-5.6 1.4-11.2 2.9-16.7 4.4-1 .3-2.1.3-2.9.7-.4.2-1 .8-1.5 1.3-7.8 6.5-15.8 13.2-23.4 19.5.7.9 1.5 1.6 2.4 2.5.6.6 1.8 2.3 2.5 2.3.6 0 1.7-.7 2.6-1 2.7-1 5.4-1.9 7.9-2.8 24.4-9 49.6-17.7 73.5-26.6 0-1.7.4-4.9.3-6.5zM17.5 20.5c-3.2-.9-6.6-2-9.7-2.8 1.2 1.7 2.4 3.3 3.5 5.1-1.5 2.2-3 4.4-4.5 6.7-.5.7-1.3 1.6-1.5 2.3-.1.6 0 1.3.1 2 .1 2.1-.1 4.1 0 6.2 8.4-6.8 16.9-14.2 25.4-21.2.6-.5 1.2-1.2 1.8-1.4.9-.4 2.1-.6 3.2-.8 3.3-.8 6.4-1.6 9.6-2.6-11.9-1.5-23.7-3.4-35.5-4.7 2.5 3.7 5.3 7.6 7.6 11.2zm86.6 3c1 0 2.2.2 3.1.1-3.5-1.4-6.1-4-11.2-3.6 3.1.7 5.7 2 8.1 3.5zm-20.4-.6c-.7 3.2 5.7 3.7 5.9.6.1-1.8-1.7-2.6-3.5-2.4-1.4.2-2.2.9-2.4 1.8zM31.4 41.5c-3.7 1.1-7.5 2.4-9.7 4.9 2-1.2 4.4-1.9 6.6-2.7.8-.3 1.7-.4 2.5-.7.7-.3 1.3-.7 2.1-1 1.5-.6 3-1.1 4.6-1.6.8-.3 1.7-.4 2.4-.7.6-.3 1.5-1.2 2-1.5.2-.1.6-.3.4-.5-3.7.8-7.2 2.7-10.9 3.8zM39 56.6c-5 1.5-10 7.4-6.9 14 1.7 3.6 5.8 6.7 11.5 6.3 5.4-.4 10.2-4.6 10.2-10.4 0-4-2.5-7.2-5.2-8.8-1.8-1-4.4-1.7-7.2-1.5-.8.1-1.7.2-2.4.4zm24 5.5c-.8 1-2.1 3.1-2.2 5.1-.3 3.8 1.5 6.2 3.6 7.7 6.5 4.9 17 1.2 18.4-6.1.4-2.2 0-4.2-1-5.9-1.6-2.6-5.4-5.1-10-4.8-3.9.2-7 1.8-8.8 4zM25 94.7c1.5 3.7 4.1 6.3 7.3 8.3 6.4 3.9 15.9 5.8 25.4 5.8 5.4 0 10.4.1 15.1-.3 4.6-.4 7.5-2.7 10-5.6 4.8-5.7 7.4-12.9 9.4-21.8-1.4.1-2.1 1.4-3 2.1-6.8 5.2-18.4 6.1-30.2 5.2-12.6-1-23.8-4.2-34.1-7.3-1.6 4.4-1.5 9.9.1 13.6zm-3.4 24.7v2.2c2.2 0 4.6-.1 6.6.1v17.7c.4.1 2.1.1 2.7 0 0-5.9-.1-12 .1-17.8h6.6c.1-.7.1-1.8 0-2.4H21.7c-.1 0-.1.1-.1.2zm17.3 0c0 .7-.1 1.6.1 2.2 2.2 0 4.6-.1 6.6.1v17.8h2.7v-17.9H55v-2.4H39c-.1 0-.1.1-.1.2zm19 0v20c4.2.1 11 .1 15.1 0V137c-4.1 0-8.5.1-12.5-.1v-6.8h11.1c.2-.7 0-1.6.1-2.4H60.5v-6.1h12v-2.4H58c-.2 0-.2.1-.1.2zm18.8 20c.4.1 2.1 0 2.7.1v-8.7c4.3-.1 7.5-.3 9 2.4 1.1 1.8 1.3 4.2 2.4 6.3 1 0 2.4 0 2.8-.1-1.4-3.3-1.8-7.7-5.1-9.1 4.3-.5 5.9-6.5 2.9-9.5-2.7-2.7-9.5-1.1-14.5-1.5-.3 6.5-.1 13.4-.2 20.1z"/><path d="M67.5 16.5c-.2.5-.8.8-1.3 1.2-.4.3-1 .9-1.5 1.1-.7.3-1.7.4-2.5.7-2.2.6-4.7 1.5-6.6 2.6-.3.1-.1-.4-.4-.3-3.3.3-6.5.7-9.4 1.5.3-.5.9-.7 1.4-1s1-.6 1.5-.8c1.8-.7 4.2-.8 6.4-1.1.7-.1 1.6 0 2.2-.2.3-.1.6-.5 1-.7 2.5-1.3 6.1-2.2 8.9-3.2.3.1.3.1.3.2zM79.5 121.4c3.6.3 8.5-.9 10.1 1.3 1.1 1.4.6 4.1-.6 4.9-2.1 1.4-6.6.3-9.6.7v-6.7s0-.1.1-.2z"/></g></svg>