<?xml version="1.0" encoding="utf-8"?>
<svg version="1.1" id="E30V-logo" width="450px" height="400px"  xmlns="http://www.w3.org/2000/svg" xmlns:xlink="http://www.w3.org/1999/xlink" x="0px" y="0px"
	 viewBox="0 0 450 400" style="enable-background:new 0 0 450 400;" xml:space="preserve">
<g>	<path id="30-blob" d="M390,91.9c-7.4-25.3-31.5-44.7-61.2-45.3c-27-0.5-49,10.3-64.5,25.9c-7.4,7.5-7.2,0.6-7-5.2
		c0.6-14.5-0.2-24.8-8.6-38.1c-7.3-11.5-20.6-17.1-35.2-18.8c-50.4-5.8-102,22-133.7,53.8C66.5,77.7,61.6,86.8,60.1,99.5
		c-1.5,12.8,4.9,26,22,22c17.1-4,49.2-28.5,79.7-43.2c13.8-5.9,10.3,3,4.1,6.2c-11,5.7-94.2,44.7-54.6,70.6
		c15.9,10.9,39.3,20.4,46.9,24s4.9,10-4,6.1s-43.3-20.7-61.8-25.2c-7.4-1.8-18.1-1.8-24.8,2.3c-9.9,6-7.6,21.2-1.6,29.2
		c19.1,25.8,58.9,36.7,90.6,42.5c23.1,4.2,87.8,16.3,86.9-18.6c-0.6-5.3-4.1-10.8-11.8-13.9c-7.7-3.1-8.1-8.4,4.2-8.4
		c12.3-0.1,17.2-9,16.3-15.9c-2-15.3-20.7-26.5-43.9-34.4c-13.1-4.5-20.9-7-26.2-9.1c-4.1-1.6-4.7-2.7-4.7-4.4s2.1-3.5,5.8-5.7
		c6.1-3.7,15.1-7.6,17.1-8.5c14.3-6,32.3-16.1,44.4-25.1c6.4-4.8,7.9-0.6,5.5,6.6c-7.9,23.3-5.9,54.3,14.3,74.2
		c19,18.7,49.6,27.3,75.8,21.8C386.2,183.4,401.4,130.6,390,91.9z M333.3,97.4c-1,3.3-2.4,6.6-3.3,8.8c-3.3,8.5-7.1,16.5-10.8,24.7
		c-2,4.4-3.9,9.1-6.5,12.8c-1.6,2.3-5.8,5.5-6.7,1.6c-1.1-4.8,3.4-13.1,5-17.3c3.3-8.5,6.2-17.1,9.9-25.4c2-4.5,4.8-10.9,7.8-14.1
		c1.6-1.7,4-2,4.9,0.1C334.7,90.8,334.2,94.2,333.3,97.4z"/>
	<path id="entropy-logo" d="M320.3,240.3c-0.2-1.3-0.6-2.5-1-3.7l3.7-3l-4.4-7.7l-4.4,1.7c-0.9-1-1.8-1.9-2.8-2.8l1.7-4.4l-7.7-4.4
		l-3,3.7c-1.2-0.4-2.4-0.8-3.7-1L298,214h-8.9l-0.7,4.7c-1.3,0.2-2.5,0.6-3.7,1l-3-3.7l-7.7,4.4l1.7,4.4c-1,0.8-1.9,1.8-2.8,2.8
		l-4.4-1.7l-4.4,7.7l3.7,3c-0.4,1.2-0.8,2.4-1,3.7l-4.7,0.8v8.9l4.7,0.8c0.2,1.3,0.6,2.5,1,3.7l-3.7,3l4.4,7.7l4.4-1.7
		c0.9,1,1.8,1.9,2.8,2.8l-1.7,4.4l7.7,4.4l3-3.7c1.2,0.4,2.4,0.8,3.7,1l0.7,4.7h8.9l0.7-4.7c1.3-0.2,2.5-0.6,3.7-1l3,3.7l7.9-4.9
		l-6.8-13.5l-5,3c-2.4,1.4-5.1,2.1-7.9,2.1c-6.9,0-12.8-4.4-15.1-10.5h39.6l6.9-1.2V241L320.3,240.3z M293.5,229.4
		c6.9,0,12.8,4.4,15.1,10.5h-30.1C280.8,233.7,286.7,229.4,293.5,229.4z"/>
	<path id="entropy-30-vuotta" d="M19.1,305v5.2h3.2c0.8,0,1.4-0.1,1.8-0.4s0.7-0.6,0.8-1.1s0-1.2-0.1-2l0.3-0.1l3.3,9.9l-0.3,0.1
		c-0.5-1.1-1-2.1-1.6-2.9c-0.6-0.8-1.3-1.5-2-1.9c-0.7-0.4-1.4-0.7-2.1-0.7l-3.2,0v13.4h7.8c1.2,0,2.2-0.3,3-0.9
		c0.8-0.6,1.4-1.3,1.8-2.3s0.7-2,0.8-3.2h0.4v7.2H11v-0.4l0.5-0.1c0.7-0.1,1.4-0.2,1.9-0.4s1-0.5,1.3-0.9s0.5-0.9,0.5-1.5v-14.6
		c0-0.6-0.2-1.2-0.5-1.5s-0.8-0.7-1.3-0.9c-0.6-0.2-1.2-0.3-1.9-0.4l-0.5-0.1v-0.4h21.8v7.2h-0.4c-0.1-1.2-0.3-2.2-0.7-3.2
		c-0.4-1-1-1.7-1.8-2.3c-0.8-0.6-1.8-0.9-3-0.9L19.1,305L19.1,305z M63.9,304.2v0.4l-0.6,0.1c-0.7,0.1-1.3,0.2-1.9,0.4
		c-0.5,0.2-1,0.5-1.3,0.9c-0.3,0.4-0.5,0.9-0.5,1.5v18.2h-0.3l-17.6-18.4V322c0,0.6,0.2,1.1,0.5,1.5s0.8,0.7,1.3,0.9
		s1.1,0.3,1.8,0.4l0.7,0.1v0.4h-9.4v-0.4l0.5-0.1c0.8-0.1,1.4-0.2,1.9-0.4s1-0.4,1.3-0.8s0.5-0.9,0.5-1.5v-14.7
		c0-0.6-0.2-1.1-0.5-1.5s-0.8-0.6-1.3-0.8s-1.2-0.3-2-0.4c-0.1,0-0.1,0-0.2,0c-0.1,0-0.1,0-0.2,0v-0.4h7.8l14.4,14.7v-11.5
		c0-0.6-0.2-1.2-0.5-1.5s-0.8-0.7-1.3-0.9c-0.6-0.2-1.2-0.3-1.9-0.4l-0.5-0.1v-0.4H63.9z M89.2,311.3h-0.4c-0.1-1.2-0.3-2.2-0.7-3.2
		s-1-1.7-1.8-2.3c-0.8-0.6-1.8-0.9-3-0.9h-3.5v17c0,0.6,0.2,1.2,0.5,1.5c0.4,0.4,0.8,0.7,1.4,0.9c0.6,0.2,1.2,0.3,2,0.4l0.4,0v0.4
		H71.7v-0.4l0.4,0c0.8-0.1,1.5-0.2,2-0.4c0.6-0.2,1-0.5,1.4-0.9s0.5-0.9,0.5-1.5v-17h-3.5c-1.2,0-2.2,0.3-3,0.9s-1.4,1.4-1.8,2.3
		c-0.4,0.9-0.6,2-0.7,3.2h-0.4v-7.2h22.6L89.2,311.3L89.2,311.3z M114.6,322.4c0.4,1,0.8,1.7,1.2,2s1.1,0.5,1.9,0.5v0.4h-1.5
		c-1,0-1.8,0-2.5-0.2s-1.3-0.4-1.8-0.7s-0.9-0.8-1.2-1.5c-0.3-0.7-0.4-1.3-0.5-2.1c-0.1-0.7-0.1-1.6-0.1-2.8c0-1.4,0-2.4-0.2-3.2
		c-0.1-0.8-0.5-1.4-1.1-1.9s-1.4-0.8-2.6-0.8h-6.3v9.8c0,0.6,0.2,1.1,0.5,1.5s0.8,0.7,1.3,0.9s1.1,0.3,1.8,0.4l0.6,0.1v0.4H91.9
		v-0.4l0.5-0.1c0.8-0.1,1.4-0.2,1.9-0.4s1-0.5,1.3-0.8s0.5-0.9,0.5-1.6v-14.6c0-0.7-0.2-1.2-0.5-1.6s-0.8-0.7-1.3-0.8
		c-0.5-0.2-1.2-0.3-1.9-0.4l-0.5-0.1v-0.4h16.8c1.3,0,2.4,0.2,3.2,0.6c0.9,0.4,1.5,0.8,2,1.4s0.6,1.2,0.6,2c0,0.6-0.2,1.1-0.5,1.6
		s-0.9,0.9-1.6,1.3c-0.7,0.4-1.6,0.6-2.7,0.7c1.3,0.1,2.2,0.5,2.8,1c0.6,0.5,1,1.1,1.1,1.9c0.1,0.7,0.2,1.7,0.3,2.9
		c0,1.1,0,2,0.1,2.7C114.2,321,114.3,321.7,114.6,322.4z M106.7,311.3c0.9,0,1.6-0.2,2.1-0.4s1-0.7,1.2-1.2s0.4-1,0.4-1.6
		c0-0.5-0.1-1.1-0.4-1.6s-0.7-0.9-1.2-1.2c-0.6-0.3-1.3-0.4-2.1-0.4h-6.6l0,6.4H106.7z M133.6,325.6c-2.5,0-4.8-0.5-6.8-1.4
		c-2.1-0.9-3.7-2.2-4.9-3.8s-1.8-3.5-1.8-5.6s0.6-3.9,1.8-5.6c1.2-1.7,2.9-3,4.9-4c2.1-1,4.3-1.5,6.8-1.5c2.4,0,4.7,0.5,6.8,1.5
		s3.7,2.3,4.9,4c1.2,1.7,1.8,3.6,1.8,5.6c0,2.1-0.6,3.9-1.8,5.6c-1.2,1.6-2.8,2.9-4.9,3.8C138.3,325.1,136,325.6,133.6,325.6z
		 M133.6,324.8c1.9,0,3.5-0.4,4.9-1.2c1.4-0.8,2.5-2,3.2-3.5s1.1-3.2,1.1-5.3c0-2.1-0.4-3.9-1.1-5.5s-1.8-2.7-3.2-3.5
		c-1.4-0.8-3-1.3-4.9-1.3s-3.6,0.4-5,1.2s-2.5,2-3.2,3.5s-1.1,3.4-1.1,5.5c0,2.1,0.4,3.8,1.1,5.3s1.8,2.7,3.2,3.5
		C129.9,324.4,131.6,324.8,133.6,324.8z M166.2,304.2c1.4,0,2.5,0.2,3.5,0.6s1.7,0.9,2.1,1.5s0.7,1.3,0.7,2.1c0,0.8-0.2,1.5-0.7,2.1
		c-0.5,0.6-1.2,1.1-2.3,1.5s-2.3,0.6-3.7,0.6H158v9.6c0,0.6,0.2,1.1,0.5,1.5s0.8,0.7,1.3,0.9s1.1,0.3,1.8,0.4l0.6,0.1v0.4h-12.4
		v-0.4l0.6,0c0.7-0.1,1.3-0.3,1.9-0.4c0.5-0.2,0.9-0.5,1.3-0.8s0.5-0.9,0.5-1.5v-14.6c0-0.7-0.2-1.2-0.5-1.6
		c-0.3-0.4-0.8-0.7-1.3-0.8c-0.5-0.2-1.2-0.3-1.9-0.4l-0.5-0.1v-0.4L166.2,304.2L166.2,304.2z M158,305v6.6h6c1,0,1.9-0.2,2.6-0.5
		s1.2-0.7,1.4-1.2s0.4-1,0.4-1.6c0-0.6-0.1-1.2-0.4-1.7s-0.8-0.9-1.4-1.2S165,305,164,305L158,305L158,305z M182.3,324.8l0.5-0.1
		c0.7-0.1,1.4-0.2,1.9-0.4s1-0.5,1.3-0.9s0.5-0.9,0.5-1.5v-6l-6.8-8.9c-0.5-0.5-1-1-1.6-1.3c-0.6-0.3-1.1-0.6-1.7-0.8
		s-1.2-0.3-1.8-0.4c-0.1,0-0.2,0-0.3-0.1s-0.2,0-0.3-0.1v-0.4h12.8v0.4c-0.1,0-0.1,0-0.2,0s-0.1,0-0.2,0c-0.7,0.1-1.2,0.2-1.6,0.4
		c-0.4,0.2-0.6,0.5-0.6,0.8c0,0.3,0.2,0.8,0.7,1.4l5.2,7l4.4-7c0.4-0.6,0.6-1.1,0.6-1.4s-0.2-0.6-0.6-0.8c-0.4-0.2-0.9-0.3-1.5-0.4
		l-0.4-0.1v-0.4h8.8v0.4c0,0-0.1,0-0.2,0c-0.1,0-0.1,0-0.2,0c-0.7,0.1-1.4,0.2-2,0.4c-0.7,0.2-1.3,0.4-1.9,0.8s-1.1,0.8-1.5,1.4
		l-5.2,8.2v6.5c0,0.6,0.2,1.1,0.5,1.5s0.8,0.7,1.3,0.9c0.5,0.2,1.2,0.3,1.9,0.4l0.6,0.1v0.4h-12.4L182.3,324.8L182.3,324.8z
		 M223.5,325.6c-1.6,0-3.2-0.2-4.8-0.5c-1.6-0.3-3.1-0.8-4.5-1.3l-0.8-4.7h0.4c0.5,1.2,1.3,2.3,2.2,3.2s2.1,1.5,3.3,2
		c1.2,0.4,2.6,0.7,4,0.7c1.5,0,2.8-0.3,4-0.8s2.1-1.1,2.8-2s1-1.8,1-3c0-1-0.3-1.9-1-2.7s-1.6-1.5-2.8-2s-2.4-0.8-3.7-0.8h-3.2
		l0.5-0.8h2.8c1.4,0,2.6-0.2,3.7-0.5c1.1-0.4,1.9-0.8,2.5-1.5s0.9-1.3,0.9-2c0-0.7-0.3-1.4-0.8-2s-1.3-1.2-2.3-1.5
		c-1-0.4-2.1-0.6-3.2-0.6c-1.2,0-2.4,0.2-3.6,0.7c-1.1,0.5-2.2,1.2-3.1,2.1s-1.6,2-2.1,3.2h-0.4l0.8-5c1.3-0.6,2.7-1.1,4.2-1.4
		c1.6-0.3,3.1-0.5,4.5-0.5c1.9,0,3.6,0.2,5.2,0.7c1.5,0.4,2.7,1,3.6,1.7s1.3,1.5,1.3,2.4c0,1.2-0.6,2.1-1.8,2.9s-3,1.3-5.2,1.8
		c1.6,0.3,2.9,0.8,4,1.4c1.1,0.6,2,1.3,2.5,2.1c0.6,0.8,0.9,1.6,0.9,2.5c0,1.4-0.5,2.5-1.4,3.5s-2.3,1.7-4.1,2.2
		C228.1,325.3,225.9,325.6,223.5,325.6z M250.2,325.6c-2.2,0-4.2-0.4-5.9-1.3s-3-2.1-3.9-3.7c-0.9-1.6-1.4-3.5-1.4-5.7
		s0.5-4.1,1.4-5.8s2.2-3,3.9-3.9c1.7-0.9,3.7-1.4,5.9-1.4c2.2,0,4.2,0.5,5.9,1.4c1.7,0.9,3,2.2,3.9,3.9s1.4,3.6,1.4,5.8
		c0,2.2-0.5,4.1-1.4,5.7s-2.2,2.8-3.9,3.7S252.5,325.6,250.2,325.6z M250.2,322c2.2,0,4.1-0.3,5.6-0.8c1.5-0.6,2.7-1.4,3.5-2.5
		s1.2-2.4,1.2-3.9c0-1.6-0.4-2.9-1.2-4c-0.8-1.1-2-1.9-3.5-2.5c-1.5-0.6-3.4-0.9-5.6-0.9c-2.2,0-4,0.3-5.6,0.9s-2.8,1.4-3.6,2.5
		s-1.3,2.5-1.3,4.1c0,1.6,0.4,2.9,1.3,3.9c0.9,1.1,2,1.9,3.6,2.4C246.2,321.7,248,322,250.2,322z M279.2,307.2
		c-0.3-0.6-0.7-1-1.2-1.4s-1.1-0.7-1.7-0.8c-0.6-0.2-1.3-0.3-1.9-0.4c-0.1,0-0.2-0.1-0.3-0.1s-0.2,0-0.3,0v-0.4h12.6v0.4
		c-0.1,0-0.1,0-0.2,0s-0.1,0-0.1,0c-0.7,0.1-1.3,0.2-1.8,0.4s-0.7,0.4-0.9,0.8s-0.1,0.8,0.2,1.4l6.3,12.7l5.9-12.8
		c0.3-0.6,0.4-1,0.2-1.4s-0.4-0.6-0.9-0.8s-1.1-0.3-1.8-0.3l-0.3,0v-0.4h9.1v0.4c-0.1,0-0.1,0-0.2,0s-0.1,0-0.2,0
		c-0.8,0.1-1.5,0.3-2.1,0.4s-1.2,0.4-1.7,0.8s-0.9,0.9-1.3,1.5l-8.4,18.4h-0.2L279.2,307.2z M334,304.5l-0.6,0.1
		c-0.7,0.1-1.4,0.2-1.9,0.4s-1,0.5-1.3,0.9c-0.3,0.4-0.5,0.9-0.5,1.5v14.6c0,0.7,0.2,1.2,0.5,1.6s0.8,0.7,1.4,0.9s1.2,0.3,2,0.4
		c0.1,0,0.1,0,0.2,0c0.1,0,0.1,0,0.1,0v0.3l-8.2,0l0.1-2.7c-1,1-2.2,1.8-3.6,2.3c-1.4,0.5-3,0.8-4.7,0.8c-1.9,0-3.5-0.3-4.9-0.8
		s-2.5-1.5-3.3-2.8c-0.8-1.3-1.2-3.1-1.2-5.2v-9.4c0-0.7-0.2-1.2-0.5-1.6s-0.8-0.7-1.3-0.8c-0.6-0.2-1.2-0.3-2-0.4l-0.5-0.1v-0.4
		h12.4v0.4l-0.6,0.1c-0.7,0.1-1.3,0.2-1.9,0.4s-1,0.5-1.3,0.9c-0.4,0.4-0.5,0.9-0.5,1.5v9.4c0,1.9,0.3,3.4,0.9,4.6
		c0.6,1.2,1.4,2,2.4,2.5s2.2,0.8,3.5,0.8c1.3,0,2.5-0.3,3.6-0.8s1.9-1.3,2.6-2.3c0.6-1,0.9-2.2,0.9-3.5v-10.7c0-0.6-0.2-1.2-0.5-1.5
		c-0.3-0.4-0.7-0.7-1.3-0.9c-0.6-0.2-1.2-0.3-2-0.4l-0.5-0.1v-0.4H334L334,304.5L334,304.5z M350.5,325.6c-2.5,0-4.8-0.5-6.8-1.4
		c-2.1-0.9-3.7-2.2-4.9-3.8s-1.8-3.5-1.8-5.6s0.6-3.9,1.8-5.6c1.2-1.7,2.9-3,4.9-4c2.1-1,4.3-1.5,6.8-1.5c2.4,0,4.7,0.5,6.8,1.5
		s3.7,2.3,4.9,4c1.2,1.7,1.8,3.6,1.8,5.6c0,2.1-0.6,3.9-1.8,5.6c-1.2,1.6-2.8,2.9-4.9,3.8C355.2,325.1,353,325.6,350.5,325.6z
		 M350.5,324.8c1.9,0,3.5-0.4,4.9-1.2c1.4-0.8,2.5-2,3.2-3.5s1.1-3.2,1.1-5.3c0-2.1-0.4-3.9-1.1-5.5s-1.8-2.7-3.2-3.5
		c-1.4-0.8-3-1.3-4.9-1.3s-3.6,0.4-5,1.2s-2.5,2-3.2,3.5s-1.1,3.4-1.1,5.5c0,2.1,0.4,3.8,1.1,5.3s1.8,2.7,3.2,3.5
		C346.9,324.4,348.5,324.8,350.5,324.8z M390.1,311.3h-0.4c-0.1-1.2-0.3-2.2-0.7-3.2s-1-1.7-1.8-2.3s-1.8-0.9-3-0.9h-3.5v17
		c0,0.6,0.2,1.2,0.5,1.5s0.8,0.7,1.4,0.9s1.2,0.3,2,0.4l0.4,0v0.4h-12.4v-0.4l0.4,0c0.8-0.1,1.5-0.2,2-0.4c0.6-0.2,1-0.5,1.4-0.9
		c0.3-0.4,0.5-0.9,0.5-1.5v-17h-3.5c-1.2,0-2.2,0.3-3,0.9s-1.4,1.4-1.8,2.3c-0.4,0.9-0.6,2-0.7,3.2h-0.4v-7.2h22.6L390.1,311.3
		L390.1,311.3z M416,311.3h-0.4c-0.1-1.2-0.3-2.2-0.7-3.2s-1-1.7-1.8-2.3c-0.8-0.6-1.8-0.9-3-0.9h-3.5v17c0,0.6,0.2,1.2,0.5,1.5
		c0.4,0.4,0.8,0.7,1.4,0.9c0.6,0.2,1.2,0.3,2,0.4l0.4,0v0.4h-12.4v-0.4l0.4,0c0.8-0.1,1.5-0.2,2-0.4c0.6-0.2,1-0.5,1.4-0.9
		s0.5-0.9,0.5-1.5v-17h-3.5c-1.2,0-2.2,0.3-3,0.9s-1.4,1.4-1.8,2.3c-0.4,0.9-0.6,2-0.7,3.2h-0.4v-7.2h22.6L416,311.3L416,311.3z
		 M414.4,324.8c0.1,0,0.1,0,0.2,0s0.1,0,0.2,0c0.8-0.1,1.5-0.2,2.1-0.4s1.2-0.4,1.7-0.8c0.5-0.4,0.9-0.8,1.2-1.4l8.4-18.4h0.2
		l8.6,18.4c0.3,0.6,0.7,1.1,1.2,1.4s1,0.6,1.6,0.8c0.6,0.2,1.2,0.3,2,0.4c0.1,0,0.1,0,0.2,0c0.1,0,0.2,0,0.3,0.1v0.4h-12.4v-0.4
		c0.1,0,0.1,0,0.2,0s0.1,0,0.2,0c0.7-0.1,1.3-0.2,1.7-0.4c0.4-0.2,0.7-0.5,0.8-0.8s0-0.9-0.3-1.5l-1.1-2.2h-9.7l-1.1,2.3
		c-0.3,0.7-0.4,1.2-0.2,1.5c0.1,0.3,0.4,0.6,0.9,0.8c0.4,0.2,1,0.3,1.8,0.3l0.3,0.1v0.4h-9.1L414.4,324.8L414.4,324.8z M431.2,319
		l-4.5-9.4l-4.4,9.4H431.2z"/>
		<path id="1993-2023" d="M13.4,383.2H31v-18.3H19.3v-5.4l7.7-0.3c1.6-0.1,2.9-0.4,3.7-0.8c0.8-0.5,1.3-1.4,1.7-2.8
		c0.3-1.4,0.6-3.6,0.7-6.6h6.6v34.3H54v6.8H13.4L13.4,383.2L13.4,383.2z M69.6,388.9c-3-1.1-5.1-2.6-6.4-4.4
		c-1.3-1.8-1.9-3.9-1.9-6.2c0-0.5,0.1-1.1,0.1-1.6h7.9c0,0.4,0,0.8-0.1,1.2c0,1.1,0.4,2.1,1.1,3c0.7,0.9,2,1.6,3.8,2.1
		s4.2,0.8,7.2,0.8c3.2,0,5.9-0.5,8.1-1.6c2.1-1.1,3.8-2.7,4.8-4.9c1.1-2.2,1.6-4.9,1.6-8.2c0-0.6,0-1.2,0-1.6s-0.1-0.9-0.1-1.5h-0.1
		c-0.2,1.7-0.9,3.1-2,4.3s-2.8,2.2-5.2,3s-5.6,1.2-9.5,1.2c-4.7,0-8.5-0.6-11.3-1.7c-2.8-1.1-4.8-2.6-5.9-4.3
		c-1.1-1.7-1.7-3.7-1.7-5.8c0-2.5,0.7-4.8,2.1-7s3.8-3.9,7-5.2c3.2-1.3,7.4-2,12.5-2c5.8,0,10.4,0.9,13.7,2.8c3.4,1.9,5.7,4.3,7,7.3
		c1.3,3,1.9,6.5,1.9,10.4c0,4.6-0.8,8.5-2.4,11.6s-4.1,5.6-7.5,7.3s-7.8,2.5-13.2,2.5C76.4,390.6,72.6,390,69.6,388.9z M88.4,367.9
		c2.1-0.6,3.6-1.5,4.6-2.7c1-1.2,1.6-2.5,1.6-3.9c0-0.5-0.3-1.2-1-2.1s-1.9-1.8-3.9-2.6s-4.7-1.3-8.2-1.3c-3.2,0-5.8,0.3-7.7,1
		s-3.3,1.6-4.1,2.6s-1.2,2.3-1.2,3.6c0,1.2,0.3,2.2,1,3.1s1.9,1.7,3.7,2.3s4.3,0.9,7.6,0.9C83.8,368.9,86.4,368.6,88.4,367.9z
		 M117.9,388.9c-3-1.1-5.1-2.6-6.4-4.4c-1.3-1.8-1.9-3.9-1.9-6.2c0-0.5,0.1-1.1,0.1-1.6h7.9c0,0.4,0,0.8-0.1,1.2
		c0,1.1,0.4,2.1,1.1,3c0.7,0.9,2,1.6,3.8,2.1s4.2,0.8,7.2,0.8c3.2,0,5.9-0.5,8.1-1.6c2.1-1.1,3.8-2.7,4.8-4.9
		c1.1-2.2,1.6-4.9,1.6-8.2c0-0.6,0-1.2,0-1.6s-0.1-0.9-0.1-1.5h-0.1c-0.2,1.7-0.9,3.1-2,4.3c-1.1,1.2-2.8,2.2-5.2,3
		s-5.6,1.2-9.5,1.2c-4.7,0-8.5-0.6-11.3-1.7c-2.8-1.1-4.8-2.6-5.9-4.3c-1.1-1.7-1.7-3.7-1.7-5.8c0-2.5,0.7-4.8,2.1-7s3.8-3.9,7-5.2
		c3.2-1.3,7.4-2,12.5-2c5.8,0,10.4,0.9,13.7,2.8c3.4,1.9,5.7,4.3,7,7.3c1.3,3,1.9,6.5,1.9,10.4c0,4.6-0.8,8.5-2.4,11.6
		s-4.1,5.6-7.5,7.3s-7.8,2.5-13.2,2.5C124.8,390.6,120.9,390,117.9,388.9z M136.8,367.9c2.1-0.6,3.6-1.5,4.6-2.7
		c1-1.2,1.6-2.5,1.6-3.9c0-0.5-0.3-1.2-1-2.1s-1.9-1.8-3.9-2.6s-4.7-1.3-8.2-1.3c-3.2,0-5.8,0.3-7.7,1s-3.3,1.6-4.1,2.6
		c-0.8,1.1-1.2,2.3-1.2,3.6c0,1.2,0.3,2.2,1,3.1s1.9,1.7,3.7,2.3s4.3,0.9,7.6,0.9C132.2,368.9,134.7,368.6,136.8,367.9z
		 M165.3,388.6c-3.2-1.3-5.4-3-6.7-5c-1.3-2-2-4.2-2-6.5c0-0.6,0-1.1,0.1-1.6c0-0.5,0.1-0.9,0.3-1.3h7.7c-0.1,0.6-0.1,1.2-0.1,1.9
		c0,1.4,0.4,2.8,1.3,3.9s2.3,2.1,4.3,2.8c2,0.7,4.7,1.1,8,1.1c3.5,0,6.3-0.3,8.4-1c2.1-0.7,3.6-1.6,4.5-2.7c0.9-1.1,1.3-2.3,1.3-3.7
		c0-0.9-0.3-1.7-0.8-2.4c-0.6-0.7-1.5-1.2-2.7-1.6S186,372,184,372h-9.1v-5.6h7.3c2.1,0,3.8-0.2,4.9-0.6c1.2-0.4,2-0.9,2.6-1.7
		s0.8-1.7,0.8-2.7c0-1.2-0.5-2.3-1.4-3.2c-0.9-0.9-2.2-1.6-4-2.1s-3.9-0.8-6.5-0.8c-3.2,0-5.7,0.3-7.6,1s-3.3,1.6-4.1,2.8
		c-0.8,1.2-1.2,2.5-1.2,4c0.1,0.6,0.1,1.2,0.1,1.7h-7.4c-0.1-0.3-0.2-0.8-0.3-1.3s-0.2-1.1-0.2-1.8c0-2.2,0.7-4.2,2-6.2
		c1.3-2,3.5-3.7,6.6-5c3.1-1.3,7.2-1.9,12.3-1.9c4.2,0,7.8,0.5,10.8,1.5c2.9,1,5.1,2.4,6.6,4.1c1.4,1.7,2.1,3.6,2.1,5.8
		c0,1.3-0.2,2.4-0.7,3.5c-0.5,1-1.2,1.9-2.1,2.7c-0.9,0.7-2.2,1.3-3.8,1.7v0.2c3.1,0.4,5.4,1.4,6.9,3s2.3,3.7,2.3,6
		c0,2.6-0.8,4.9-2.3,7c-1.6,2.1-4,3.7-7.5,4.8c-3.4,1.2-7.8,1.7-13.1,1.7C172.7,390.6,168.4,389.9,165.3,388.6z M205.4,370h43.4v4.8
		h-43.4V370z M255.7,382c0.7-1.8,2.2-3.4,4.6-4.9s6.1-2.9,11.2-4.6c4.3-1.4,7.5-2.5,9.5-3.5c2-1,3.4-2,4.1-2.9
		c0.7-1,1.1-2.2,1.1-3.8c0-1.3-0.4-2.5-1.1-3.6c-0.8-1.1-1.9-1.9-3.5-2.5c-1.6-0.6-3.6-0.9-6-0.9c-2.8,0-5.1,0.4-7,1.1
		s-3.3,1.8-4.2,3.1c-0.9,1.4-1.4,3-1.4,5c0,0.7,0,1.3,0.1,1.9s0.2,1.1,0.3,1.5h-7.8c-0.1-0.4-0.2-0.9-0.3-1.7
		c-0.1-0.8-0.1-1.6-0.1-2.4c0-2.8,0.8-5.4,2.3-7.7c1.5-2.3,3.8-4.1,6.9-5.5c3.1-1.4,6.8-2,11.4-2c4.5,0,8.2,0.7,11.1,2
		c2.9,1.3,5,3,6.2,5.1s1.9,4.2,1.9,6.4c0,2.4-0.6,4.5-1.6,6.2c-1.1,1.7-3,3.4-5.7,4.9s-6.6,3-11.5,4.4c-3.7,1.2-6.4,2.1-7.9,2.7
		c-1.6,0.6-2.5,1-2.9,1.4s-0.6,0.9-0.6,1.6h31.6v6.8h-41.4C254.6,386.5,255,383.9,255.7,382z M311.3,387.8c-3.3-1.9-5.8-4.4-7.3-7.6
		c-1.6-3.2-2.4-6.8-2.4-10.8c0-4.1,0.9-7.7,2.5-10.8s4.2-5.6,7.5-7.3c3.3-1.8,7.3-2.6,12.1-2.6c4.8,0,8.9,0.9,12.2,2.6
		c3.3,1.8,5.8,4.2,7.5,7.3s2.5,6.8,2.5,10.8c0,4.1-0.8,7.7-2.4,10.8c-1.6,3.2-4,5.7-7.4,7.6s-7.5,2.8-12.6,2.8
		C318.8,390.6,314.6,389.7,311.3,387.8z M331.5,382c2.1-1.2,3.6-2.9,4.6-5.1s1.5-4.7,1.5-7.6s-0.5-5.4-1.6-7.5s-2.6-3.7-4.6-4.9
		c-2-1.2-4.5-1.7-7.5-1.7c-2.9,0-5.3,0.6-7.4,1.7c-2.1,1.2-3.6,2.8-4.6,4.9c-1,2.1-1.6,4.6-1.6,7.4c0,2.9,0.5,5.4,1.5,7.6
		s2.5,3.8,4.5,5.1s4.6,1.8,7.6,1.8C326.8,383.8,329.4,383.2,331.5,382z M352.4,382c0.7-1.8,2.2-3.4,4.6-4.9
		c2.3-1.4,6.1-2.9,11.2-4.6c4.3-1.4,7.5-2.5,9.5-3.5s3.4-2,4.1-2.9c0.7-1,1.1-2.2,1.1-3.8c0-1.3-0.4-2.5-1.1-3.6s-1.9-1.9-3.5-2.5
		c-1.6-0.6-3.6-0.9-6-0.9c-2.8,0-5.1,0.4-7,1.1s-3.3,1.8-4.2,3.1c-0.9,1.4-1.4,3-1.4,5c0,0.7,0,1.3,0.1,1.9s0.2,1.1,0.3,1.5h-7.8
		c-0.1-0.4-0.2-0.9-0.3-1.7c-0.1-0.8-0.1-1.6-0.1-2.4c0-2.8,0.8-5.4,2.3-7.7c1.5-2.3,3.8-4.1,6.9-5.5c3.1-1.4,6.8-2,11.4-2
		c4.5,0,8.2,0.7,11.1,2c2.9,1.3,5,3,6.2,5.1s1.9,4.2,1.9,6.4c0,2.4-0.6,4.5-1.6,6.2c-1.1,1.7-3,3.4-5.7,4.9c-2.7,1.5-6.6,3-11.5,4.4
		c-3.7,1.2-6.4,2.1-7.9,2.7c-1.6,0.6-2.5,1-2.9,1.4s-0.6,0.9-0.6,1.6h31.6v6.8h-41.4C351.3,386.5,351.7,383.9,352.4,382z
		 M407.1,388.6c-3.2-1.3-5.4-3-6.7-5c-1.3-2-2-4.2-2-6.5c0-0.6,0-1.1,0.1-1.6c0-0.5,0.1-0.9,0.3-1.3h7.7c-0.1,0.6-0.1,1.2-0.1,1.9
		c0,1.4,0.4,2.8,1.3,3.9s2.3,2.1,4.3,2.8c2,0.7,4.7,1.1,8,1.1c3.5,0,6.3-0.3,8.4-1s3.6-1.6,4.5-2.7c0.9-1.1,1.3-2.3,1.3-3.7
		c0-0.9-0.3-1.7-0.8-2.4c-0.6-0.7-1.5-1.2-2.7-1.6s-2.9-0.6-4.9-0.6h-9.1v-5.6h7.3c2.1,0,3.8-0.2,4.9-0.6c1.2-0.4,2.1-0.9,2.6-1.7
		c0.6-0.7,0.8-1.7,0.8-2.7c0-1.2-0.5-2.3-1.4-3.2c-0.9-0.9-2.2-1.6-4-2.1s-3.9-0.8-6.5-0.8c-3.2,0-5.7,0.3-7.6,1
		c-1.9,0.7-3.3,1.6-4.1,2.8c-0.8,1.2-1.2,2.5-1.2,4c0.1,0.6,0.1,1.2,0.1,1.7h-7.4c-0.1-0.3-0.2-0.8-0.3-1.3s-0.1-1.1-0.1-1.8
		c0-2.2,0.7-4.2,2-6.2c1.3-2,3.5-3.7,6.6-5c3.1-1.3,7.2-1.9,12.3-1.9c4.2,0,7.8,0.5,10.8,1.5s5.1,2.4,6.6,4.1s2.1,3.6,2.1,5.8
		c0,1.3-0.2,2.4-0.7,3.5c-0.5,1-1.2,1.9-2.1,2.7c-0.9,0.7-2.2,1.3-3.8,1.7v0.2c3.1,0.4,5.4,1.4,6.9,3c1.5,1.6,2.3,3.7,2.3,6
		c0,2.6-0.8,4.9-2.3,7c-1.6,2.1-4,3.7-7.5,4.8c-3.4,1.2-7.8,1.7-13.1,1.7C414.5,390.6,410.2,389.9,407.1,388.6z"/>
</g>
</svg>
