<?xml version="1.0" encoding="UTF-8"?>
<svg id="Layer_2" data-name="Layer 2" xmlns="http://www.w3.org/2000/svg" viewBox="0 0 1657.6 1661.9">
  <defs>
    <style>
      .cls-1 {
        font-family: RocGrotesk-Regular, 'Roc Grotesk';
        font-size: 200px;
      }

      .cls-1, .cls-2 {
        fill: #fff;
      }

      .cls-2 {
        stroke-width: 0px;
      }
    </style>
  </defs>
  <g id="Layer_1-2" data-name="Layer 1">
    <path class="cls-2" d="m1312.98,575.06c-22.86-77.8-94.02-153.95-197.97-153.95-83,0-128.95,14.88-176.5,63.02-22.82,23.1-43.26,1.61-37.5-15.47,6.01-17.85,12.01-25.33,12.01-44.04,0-60.73-98.9-92.44-214.13-72.49-163.98,28.39-320.1,202.94-320.1,251.66,0,18.38,6.74,41.94,35.94,41.94,45.45,0,119.91-69.9,199-113.82,35.66-17.55,51.97,21.74,21.69,40.85-48.85,30.81-56.01,34-106.1,67.4-26.69,17.79-92.6,83.93,12.68,120.78,54.05,18.92,84.59,24.07,107.88,35.14,23.29,11.07,11.26,35.01-18.24,29.81-30.25-5.34-122.78-26.72-170.61-41.5-22.45-6.94-83.42-25.04-106.55.13-34.26,37.27-2.58,87.3,18.24,110.23,98.76,108.77,203.31,140.45,288.72,148.46,125.2,11.74,250.91-25.14,241.12-106.1-3.9-32.28-46.93-39.04-86.31-45.71-44.57-7.55-32.85-38.5,5-38.69,37.86-.19,65.73-15.13,63.06-46.71-4.01-47.41-80.84-89.28-97.09-96.11-21.93-9.21-52.45-21.89-68.28-30.59-13.02-7.15-11.24-17.07,13.68-31.36,16.12-9.24,66.73-43.43,96.31-64.51,38.48-27.42,55.28,4.28,47.83,26.3-24.26,71.73-12.22,147.42,49.79,208.41,58.52,57.56,152.61,84.14,233.26,67.17,141.38-28.78,188.14-191.25,153.16-310.27Zm-160.27,27.47c-2.95,10.13-7.37,20.18-10.03,27.05-10.12,26.21-21.81,50.91-33.23,76.07-6.09,13.43-11.7,28.06-19.95,39.25-11.33,15.37-32.11,6.47-35.02-5.76-3.51-14.79,10.41-40.38,15.43-53.39,10.09-26.14,19.18-52.74,30.47-78.04,6.22-13.92,14.72-33.54,24.1-43.39,16.09-16.92,31.44-4.47,33.22,6.21,2.04,12.21-2.05,21.89-4.99,31.99Z"/>
    <path class="cls-2" d="m925.11,1232.47c-.85-4.41-2.02-8.7-3.46-12.87l12.82-10.37-15.45-26.81-15.45,5.91c-2.97-3.42-6.18-6.64-9.61-9.61l5.91-15.45-26.81-15.44-10.36,12.82c-4.19-1.45-8.51-2.61-12.93-3.47l-2.58-16.28h-30.95l-2.58,16.28c-4.44.86-8.76,2.02-12.96,3.48l-10.37-12.82-26.81,15.45,5.91,15.45c-3.42,2.97-6.64,6.19-9.61,9.61l-15.45-5.91-15.45,26.81,12.82,10.37c-1.44,4.16-2.6,8.45-3.45,12.85l-16.29,2.67v30.95l16.29,2.67c.85,4.41,2.02,8.7,3.46,12.87l-12.82,10.37,15.45,26.81,15.45-5.92c2.97,3.43,6.18,6.64,9.61,9.61l-5.91,15.45,26.81,15.45,10.37-12.82c4.19,1.45,8.5,2.61,12.93,3.47l2.58,16.27h30.95l2.58-16.27c4.4-.85,8.73-2.02,12.97-3.48l10.37,12.82,27.7-17.28-23.8-47.07-17.59,10.33c-8.39,4.78-17.96,7.3-27.69,7.3-24.02,0-44.56-15.19-52.51-36.48h138.2l24.01-4.09v-30.95l-16.29-2.67Zm-93.41-37.9c24.02,0,44.56,15.2,52.51,36.48h-105.03c7.95-21.28,28.49-36.48,52.51-36.48Z"/>
    <text class="cls-1" transform="translate(177.18 827.77) rotate(-90.93)"><tspan x="0" y="0">·</tspan></text>
    <text class="cls-1" transform="translate(176.79 828.3) rotate(-88.71)"><tspan x="0" y="0"> </tspan></text>
    <text class="cls-1" transform="translate(175.08 789.58) rotate(-82.13)"><tspan x="0" y="0">3</tspan></text>
    <text class="cls-1" transform="translate(189.2 680.64) rotate(-72.48)"><tspan x="0" y="0">0</tspan></text>
    <text class="cls-1" transform="translate(224.9 573.32) rotate(-65.8)"><tspan x="0" y="0"> </tspan></text>
    <text class="cls-1" transform="translate(237.71 537.22) rotate(-58.72)"><tspan x="0" y="0">Y</tspan></text>
    <text class="cls-1" transform="translate(300.24 434.11) rotate(-49.08)"><tspan x="0" y="0">E</tspan></text>
    <text class="cls-1" transform="translate(372.51 348.6) rotate(-38.11)"><tspan x="0" y="0">A</tspan></text>
    <text class="cls-1" transform="translate(473.7 268.32) rotate(-27.28)"><tspan x="0" y="0">R</tspan></text>
    <text class="cls-1" transform="translate(583.35 211.07) rotate(-16.52)"><tspan x="0" y="0">S</tspan></text>
    <text class="cls-1" transform="translate(699.86 178.64) rotate(-9.52)"><tspan x="0" y="0"> </tspan></text>
    <text class="cls-1" transform="translate(736.04 168.27) rotate(-1.66)"><tspan x="0" y="0">O</tspan></text>
    <text class="cls-1" transform="translate(877.27 165.14) rotate(8.59)"><tspan x="0" y="0">F</tspan></text>
    <text class="cls-1" transform="translate(976.31 181.38) rotate(14.72)"><tspan x="0" y="0"> </tspan></text>
    <text class="cls-1" transform="translate(1014.51 189.13) rotate(21.05)"><tspan x="0" y="0">E</tspan></text>
    <text class="cls-1" transform="translate(1119.32 227.61) rotate(32.34)"><tspan x="0" y="0">N</tspan></text>
    <text class="cls-1" transform="translate(1233.33 300.38) rotate(42.62)"><tspan x="0" y="0">T</tspan></text>
    <text class="cls-1" transform="translate(1309.62 368.29) rotate(52.29)"><tspan x="0" y="0">R</tspan></text>
    <text class="cls-1" transform="translate(1384.38 461.22) rotate(63.59)"><tspan x="0" y="0">O</tspan></text>
    <text class="cls-1" transform="translate(1446.82 586.84) rotate(74.86)"><tspan x="0" y="0">P</tspan></text>
    <text class="cls-1" transform="translate(1477.43 693.87) rotate(84.72)"><tspan x="0" y="0">Y</tspan></text>
    <text class="cls-1" transform="translate(1486.67 816.9) rotate(91.68)"><tspan x="0" y="0"> </tspan></text>
    <text class="cls-1" transform="translate(1485.58 858.75) rotate(95.3)"><tspan x="0" y="0"> </tspan></text>
    <text class="cls-1" transform="translate(1481.2 902.34) rotate(97.2)"><tspan x="0" y="0">·</tspan></text>
    <text class="cls-1" transform="translate(1481.63 902.2) rotate(99.11)"><tspan x="0" y="0"> </tspan></text>
    <text class="cls-1" transform="translate(53.59 946.56) rotate(76.76)"><tspan x="0" y="0">E</tspan></text>
    <text class="cls-1" transform="translate(81.62 1067.68) rotate(66.39)"><tspan x="0" y="0">N</tspan></text>
    <text class="cls-1" transform="translate(147.65 1212.16) rotate(56.05)"><tspan x="0" y="0">T</tspan></text>
    <text class="cls-1" transform="translate(217.18 1315.09) rotate(46.37)"><tspan x="0" y="0">R</tspan></text>
    <text class="cls-1" transform="translate(317.41 1419.85) rotate(35.12)"><tspan x="0" y="0">O</tspan></text>
    <text class="cls-1" transform="translate(454.54 1513.29) rotate(23.91)"><tspan x="0" y="0">P</tspan></text>
    <text class="cls-1" transform="translate(577.06 1567.26) rotate(14.01)"><tspan x="0" y="0">Y</tspan></text>
    <text class="cls-1" transform="translate(713.13 1597.96) rotate(6.93)"><tspan x="0" y="0"> </tspan></text>
    <text class="cls-1" transform="translate(765.62 1605.51) rotate(.93)"><tspan x="0" y="0">3</tspan></text>
    <text class="cls-1" transform="translate(898.04 1606.08) rotate(-9.15)"><tspan x="0" y="0">0</tspan></text>
    <text class="cls-1" transform="translate(1024.4 1583.06) rotate(-15.83)"><tspan x="0" y="0"> </tspan></text>
    <text class="cls-1" transform="translate(1077.66 1570.42) rotate(-23.16)"><tspan x="0" y="0">V</tspan></text>
    <text class="cls-1" transform="translate(1215.43 1510.27) rotate(-34.26)"><tspan x="0" y="0">U</tspan></text>
    <text class="cls-1" transform="translate(1343.09 1422.32) rotate(-45.89)"><tspan x="0" y="0">O</tspan></text>
    <text class="cls-1" transform="translate(1450.02 1309.19) rotate(-55.73)"><tspan x="0" y="0">T</tspan></text>
    <text class="cls-1" transform="translate(1519.87 1204.91) rotate(-64.87)"><tspan x="0" y="0">T</tspan></text>
    <text class="cls-1" transform="translate(1564.41 1114.49) rotate(-73.28)"><tspan x="0" y="0">A</tspan></text>
  </g>
</svg>