<?xml version="1.0" encoding="UTF-8" standalone="no"?>
<!-- Created with Inkscape (http://www.inkscape.org/) -->

<svg
   width="88.303062mm"
   height="70.690422mm"
   viewBox="0 0 88.303062 70.690422"
   version="1.1"
   id="svg1"
   inkscape:version="1.3 (0e150ed6c4, 2023-07-21)"
   xmlns:inkscape="http://www.inkscape.org/namespaces/inkscape"
   xmlns:sodipodi="http://sodipodi.sourceforge.net/DTD/sodipodi-0.dtd"
   xmlns="http://www.w3.org/2000/svg"
   xmlns:svg="http://www.w3.org/2000/svg">
 <style>
    @media (prefers-color-scheme: light){
         #g97 {fill: #1d1d1b !important};
    }
    @media (prefers-color-scheme: dark){
         #g97 {fill: #fdfdfb !important};
    }
 </style>
  <defs
     id="defs1" />
  <g
     inkscape:label="Layer 1"
     inkscape:groupmode="layer"
     id="layer1"
     transform="translate(-74.322339,-84.809527)">
    <g id="g98" transform="matrix(0.26458333,0,0,0.26458333,-578.09923,26.076368)">&#10;	&#10;	&#10;	
    <g id="g97">
    &#10;		<path d="m 2795.98,304.18 c -7.43,-25.28 -31.47,-44.74 -61.17,-45.27 -26.97,-0.48 -49.02,10.28 -64.48,25.92 -7.42,7.51 -7.21,0.61 -6.98,-5.24 0.55,-14.45 -0.18,-24.75 -8.65,-38.06 -7.29,-11.46 -20.6,-17.1 -35.22,-18.78 -50.43,-5.78 -102,22.01 -133.73,53.82 -13.32,13.36 -18.17,22.48 -19.69,35.22 -1.52,12.74 4.95,26.03 22.03,21.99 17.08,-4.04 49.19,-28.47 79.74,-43.23 13.77,-5.9 10.33,2.95 4.12,6.2 -10.99,5.74 -94.21,44.75 -54.6,70.65 15.93,10.93 39.29,20.39 46.86,23.99 7.57,3.6 4.9,10.03 -4.01,6.1 -8.91,-3.93 -43.34,-20.68 -61.78,-25.25 -7.41,-1.83 -18.09,-1.76 -24.8,2.3 -9.95,6.02 -7.64,21.16 -1.64,29.25 19.15,25.8 58.87,36.71 90.56,42.48 23.08,4.2 87.8,16.32 86.9,-18.59 -0.62,-5.33 -4.07,-10.79 -11.77,-13.86 -7.7,-3.07 -8.13,-8.35 4.17,-8.42 12.3,-0.06 17.2,-8.98 16.29,-15.86 -2.03,-15.33 -20.72,-26.51 -43.91,-34.4 -13.13,-4.47 -20.91,-6.99 -26.24,-9.1 -4.08,-1.62 -4.72,-2.68 -4.72,-4.4 0,-1.72 2.12,-3.53 5.77,-5.72 6.09,-3.65 15.09,-7.58 17.15,-8.45 14.26,-6.02 32.32,-16.14 44.42,-25.06 6.45,-4.75 7.9,-0.56 5.48,6.6 -7.88,23.31 -5.85,54.35 14.31,74.17 19.02,18.71 49.6,27.34 75.81,21.83 45.95,-9.35 61.15,-62.15 49.78,-100.83 z m -56.73,5.5 c -0.96,3.29 -2.4,6.56 -3.26,8.79 -3.29,8.52 -7.09,16.55 -10.8,24.72 -1.98,4.36 -3.88,9.06 -6.48,12.76 -1.61,2.28 -5.79,5.52 -6.74,1.55 -1.14,-4.81 3.38,-13.12 5.01,-17.35 3.28,-8.49 6.23,-17.14 9.9,-25.36 2.02,-4.53 4.77,-10.91 7.83,-14.1 1.59,-1.65 3.97,-2.04 4.93,0.08 1.05,2.33 0.57,5.63 -0.39,8.91 z" id="path96" />
   &#10;	</g>
&#10;</g>
  </g>
</svg>
