<?xml version="1.0" encoding="UTF-8" standalone="no"?>
<!-- Created with Inkscape (http://www.inkscape.org/) -->

<svg
   width="129.7305mm"
   height="129.73387mm"
   viewBox="0 0 129.7305 129.73387"
   version="1.1"
   id="svg1"
   xmlns:inkscape="http://www.inkscape.org/namespaces/inkscape"
   xmlns:sodipodi="http://sodipodi.sourceforge.net/DTD/sodipodi-0.dtd"
   xmlns="http://www.w3.org/2000/svg"
   xmlns:svg="http://www.w3.org/2000/svg">
  <sodipodi:namedview
     id="namedview1"
     pagecolor="#ffffff"
     bordercolor="#666666"
     borderopacity="1.0"
     inkscape:showpageshadow="2"
     inkscape:pageopacity="0.0"
     inkscape:pagecheckerboard="0"
     inkscape:deskcolor="#d1d1d1"
     inkscape:document-units="mm" />
  <defs
     id="defs1" />
  <g
     inkscape:label="Layer 1"
     inkscape:groupmode="layer"
     id="layer1"
     transform="translate(-42.473662,-83.627475)">
    <g
       id="g285"
       transform="matrix(0.26458333,0,0,0.26458333,-420.16352,-146.82652)">&#10;	<g
   id="g241">&#10;		<path
   class="st0"
   d="m 2157.43,1053.6 c -7.43,-25.28 -31.47,-44.74 -61.17,-45.27 -26.97,-0.48 -49.02,10.28 -64.48,25.92 -7.42,7.51 -7.21,0.61 -6.98,-5.24 0.55,-14.45 -0.18,-24.75 -8.65,-38.06 -7.29,-11.46 -20.6,-17.1 -35.22,-18.78 -50.43,-5.78 -102,22.01 -133.73,53.82 -13.32,13.36 -18.17,22.48 -19.69,35.22 -1.53,12.75 4.95,26.03 22.03,21.99 17.08,-4.04 49.19,-28.47 79.74,-43.23 13.77,-5.9 10.33,2.95 4.12,6.2 -10.99,5.74 -94.21,44.75 -54.6,70.65 15.93,10.93 39.29,20.39 46.86,23.99 7.57,3.6 4.9,10.03 -4.01,6.1 -8.91,-3.93 -43.34,-20.68 -61.78,-25.25 -7.41,-1.83 -18.09,-1.76 -24.8,2.3 -9.95,6.02 -7.64,21.16 -1.64,29.25 19.15,25.8 58.87,36.71 90.56,42.48 23.08,4.2 87.8,16.32 86.9,-18.59 -0.62,-5.33 -4.07,-10.79 -11.77,-13.86 -7.7,-3.07 -8.13,-8.35 4.17,-8.42 12.3,-0.06 17.2,-8.98 16.29,-15.86 -2.03,-15.33 -20.72,-26.51 -43.91,-34.4 -13.13,-4.47 -20.91,-6.99 -26.24,-9.1 -4.08,-1.62 -4.72,-2.68 -4.72,-4.4 -0.01,-1.72 2.12,-3.53 5.77,-5.72 6.09,-3.65 15.09,-7.58 17.15,-8.45 14.26,-6.02 32.32,-16.14 44.42,-25.06 6.45,-4.75 7.9,-0.56 5.48,6.6 -7.88,23.31 -5.85,54.35 14.31,74.17 19.02,18.71 49.6,27.34 75.81,21.83 45.95,-9.35 61.15,-62.15 49.78,-100.83 z m -56.73,5.5 c -0.96,3.29 -2.4,6.56 -3.26,8.79 -3.29,8.52 -7.09,16.55 -10.8,24.72 -1.98,4.36 -3.88,9.06 -6.48,12.76 -1.61,2.28 -5.79,5.52 -6.74,1.55 -1.14,-4.81 3.38,-13.12 5.01,-17.35 3.28,-8.49 6.23,-17.14 9.9,-25.36 2.02,-4.53 4.77,-10.91 7.83,-14.1 1.59,-1.65 3.97,-2.04 4.93,0.08 1.05,2.32 0.57,5.63 -0.39,8.91 z"
   id="path240"
   style="fill:#ffffff" />
&#10;	</g>
&#10;	<path
   class="st0"
   d="m 2024.84,1243.11 c -0.24,-1.26 -0.58,-2.49 -0.99,-3.69 l 3.67,-2.97 -4.43,-7.68 -4.43,1.7 c -0.85,-0.98 -1.77,-1.9 -2.75,-2.75 l 1.69,-4.43 -7.69,-4.43 -2.97,3.68 c -1.2,-0.41 -2.44,-0.75 -3.71,-0.99 l -0.74,-4.67 h -8.87 l -0.74,4.67 c -1.27,0.25 -2.51,0.58 -3.71,1 l -2.97,-3.67 -7.68,4.43 1.7,4.43 c -0.98,0.85 -1.9,1.77 -2.75,2.76 l -4.43,-1.69 -4.43,7.69 3.68,2.97 c -0.41,1.19 -0.75,2.42 -0.99,3.68 l -4.67,0.77 v 8.87 l 4.67,0.76 c 0.24,1.26 0.58,2.49 0.99,3.69 l -3.67,2.97 4.43,7.68 4.43,-1.7 c 0.85,0.98 1.77,1.9 2.75,2.75 l -1.69,4.43 7.69,4.43 2.97,-3.68 c 1.2,0.41 2.44,0.75 3.71,0.99 l 0.74,4.66 h 8.87 l 0.74,-4.66 c 1.26,-0.24 2.5,-0.58 3.72,-1 l 2.97,3.67 7.94,-4.95 -6.82,-13.49 -5.04,2.96 c -2.4,1.37 -5.15,2.09 -7.94,2.09 -6.89,0 -12.77,-4.36 -15.05,-10.46 h 39.61 l 6.88,-1.17 v -8.87 z m -26.77,-10.87 c 6.89,0 12.77,4.36 15.05,10.46 h -30.11 c 2.29,-6.1 8.17,-10.46 15.06,-10.46 z"
   id="path241"
   style="fill:#ffffff" />
&#10;	<g
   id="g275">&#10;		<path
   class="st0"
   d="m 1849.26,1297.4 -4.11,-3.57 4.4,-5.07 4.11,3.57 z"
   id="path242"
   style="fill:#ffffff" />
&#10;		<path
   class="st0"
   d="m 1819.67,1288.83 -15.44,-16.96 3.58,-3.26 11.74,12.89 8.25,-7.52 -9.41,-10.33 2.93,-2.67 9.41,10.33 8.42,-7.67 -12.04,-13.22 3.58,-3.26 15.74,17.28 z"
   id="path243"
   style="fill:#ffffff" />
&#10;		<path
   class="st0"
   d="m 1796.66,1262.5 -4.65,-7.14 14.65,-29.82 -0.06,-0.09 -23.83,15.72 -2.85,-4.38 30.33,-19.75 3.54,5.44 -16.1,33.13 0.06,0.09 26.42,-17.27 2.82,4.33 z"
   id="path244"
   style="fill:#ffffff" />
&#10;		<path
   class="st0"
   d="m 1776.26,1218.29 4.5,9.86 -4.35,1.99 -11.28,-24.72 4.35,-1.99 4.45,9.76 28.57,-13.04 2.33,5.1 z"
   id="path245"
   style="fill:#ffffff" />
&#10;		<path
   class="st0"
   d="m 1762.57,1198.53 -4.06,-13.77 c -0.82,-2.78 -1.12,-5.24 -0.92,-7.38 0.21,-2.14 0.93,-3.91 2.17,-5.28 1.24,-1.38 2.89,-2.37 4.97,-2.98 2.32,-0.68 4.36,-0.75 6.11,-0.19 1.75,0.56 3.07,1.83 3.96,3.82 l 0.05,-0.02 c -0.18,-1.51 -0.06,-2.8 0.35,-3.86 0.42,-1.06 1.09,-1.94 2.03,-2.63 0.94,-0.7 2.13,-1.26 3.57,-1.68 l 8.71,-2.57 1.6,5.43 -8.6,2.54 c -1.27,0.37 -2.24,0.87 -2.92,1.49 -0.68,0.62 -1.07,1.45 -1.18,2.5 -0.11,1.05 0.06,2.36 0.53,3.94 l 2.74,9.29 14.03,-4.14 1.55,5.28 z m 10.86,-22.89 c -0.78,-0.97 -1.73,-1.56 -2.84,-1.77 -1.11,-0.21 -2.34,-0.11 -3.67,0.28 -1.3,0.38 -2.3,0.97 -3.01,1.75 -0.71,0.78 -1.13,1.82 -1.26,3.12 -0.13,1.3 0.04,2.76 0.52,4.38 l 2.5,8.49 12.24,-3.61 -2.52,-8.55 c -0.53,-1.75 -1.18,-3.12 -1.96,-4.09 z"
   id="path246"
   style="fill:#ffffff" />
&#10;		<path
   class="st0"
   d="m 1785.97,1151.41 c -1.17,2.75 -3.07,5.04 -5.69,6.86 -2.62,1.82 -5.84,2.97 -9.66,3.44 -3.75,0.46 -7.11,0.13 -10.07,-1 -2.97,-1.13 -5.33,-2.89 -7.08,-5.27 -1.75,-2.39 -2.84,-5.24 -3.25,-8.55 -0.41,-3.31 -0.06,-6.36 1.05,-9.14 1.12,-2.78 2.97,-5.07 5.58,-6.87 2.6,-1.8 5.78,-2.93 9.53,-3.4 3.82,-0.47 7.23,-0.14 10.21,1 2.99,1.14 5.39,2.91 7.2,5.29 1.81,2.38 2.92,5.23 3.33,8.54 0.41,3.31 0.03,6.34 -1.15,9.1 z m -6.02,-14.14 c -1.31,-1.65 -3.07,-2.85 -5.27,-3.61 -2.2,-0.76 -4.74,-0.96 -7.61,-0.61 -2.8,0.35 -5.15,1.16 -7.04,2.43 -1.89,1.27 -3.27,2.85 -4.12,4.75 -0.85,1.9 -1.15,3.92 -0.88,6.07 0.27,2.18 1.05,4.08 2.34,5.7 1.29,1.61 3.01,2.79 5.15,3.52 2.14,0.73 4.61,0.92 7.41,0.58 2.84,-0.35 5.24,-1.15 7.21,-2.39 1.97,-1.24 3.39,-2.81 4.26,-4.71 0.87,-1.9 1.18,-3.92 0.91,-6.07 -0.26,-2.13 -1.05,-4.01 -2.36,-5.66 z"
   id="path247"
   style="fill:#ffffff" />
&#10;		<path
   class="st0"
   d="m 1748.55,1120.79 0.46,-13.58 c 0.1,-2.89 0.67,-5.33 1.71,-7.32 1.04,-1.98 2.51,-3.46 4.42,-4.44 1.9,-0.98 4.16,-1.43 6.76,-1.34 2.64,0.09 4.87,0.66 6.68,1.71 1.81,1.05 3.14,2.55 3.97,4.48 0.83,1.94 1.2,4.22 1.11,6.86 l -0.3,8.9 11.54,0.4 -0.19,5.55 z m 20.33,-17.5 c -0.53,-1.17 -1.37,-2.09 -2.52,-2.76 -1.15,-0.66 -2.57,-1.02 -4.26,-1.08 -1.83,-0.06 -3.33,0.19 -4.51,0.75 -1.17,0.56 -2.08,1.47 -2.71,2.71 -0.63,1.24 -0.97,2.75 -1.03,4.5 l -0.27,7.97 15.72,0.54 0.29,-8.41 c 0.05,-1.63 -0.19,-3.04 -0.71,-4.22 z"
   id="path248"
   style="fill:#ffffff" />
&#10;		<path
   class="st0"
   d="m 1773.61,1080.16 -23.85,9.46 1.19,-6.72 18.32,-6.64 0.03,-0.16 -14.93,-12.53 1.08,-6.07 19.12,17.24 14.13,2.5 -0.96,5.42 z"
   id="path249"
   style="fill:#ffffff" />
&#10;		<path
   class="st0"
   d="m 1796.02,1046.54 c -1.56,1.49 -3.32,2.42 -5.28,2.79 -1.96,0.37 -4,0.13 -6.11,-0.7 -0.44,-0.17 -0.88,-0.38 -1.3,-0.6 -0.42,-0.22 -0.8,-0.41 -1.15,-0.54 l 1.84,-4.65 c 0.58,0.23 1.14,0.47 1.67,0.72 1.43,0.57 2.78,0.75 4.04,0.56 1.26,-0.19 2.36,-0.71 3.31,-1.56 0.95,-0.85 1.75,-2.11 2.41,-3.78 0.66,-1.67 0.96,-3.2 0.9,-4.58 -0.06,-1.39 -0.48,-2.58 -1.24,-3.6 -0.76,-1.01 -1.86,-1.8 -3.29,-2.37 -1.02,-0.41 -1.97,-0.55 -2.84,-0.44 -0.87,0.11 -1.63,0.53 -2.27,1.26 -0.64,0.73 -1.2,1.68 -1.65,2.84 l -1.92,4.86 -3.58,-1.42 1.64,-4.14 c 0.4,-1.02 0.57,-1.99 0.5,-2.91 -0.07,-0.92 -0.42,-1.73 -1.04,-2.45 -0.62,-0.72 -1.48,-1.29 -2.57,-1.73 -1.16,-0.46 -2.27,-0.59 -3.33,-0.4 -1.06,0.19 -2.01,0.68 -2.86,1.47 -0.84,0.79 -1.53,1.85 -2.06,3.18 -0.59,1.5 -0.86,2.87 -0.8,4.12 0.06,1.25 0.48,2.35 1.26,3.31 0.78,0.96 1.86,1.71 3.22,2.25 0.68,0.27 1.4,0.5 2.16,0.68 l -1.78,4.5 c -0.39,0 -0.84,-0.09 -1.34,-0.27 -0.5,-0.18 -1.04,-0.38 -1.62,-0.61 -2.15,-0.85 -3.79,-2.03 -4.93,-3.55 -1.14,-1.51 -1.76,-3.34 -1.86,-5.47 -0.1,-2.13 0.33,-4.42 1.3,-6.88 0.89,-2.25 2.04,-4.05 3.44,-5.41 1.4,-1.36 3.01,-2.22 4.81,-2.59 1.8,-0.37 3.68,-0.17 5.62,0.6 1.12,0.44 2.1,1.04 2.93,1.78 0.83,0.74 1.41,1.6 1.73,2.58 0.32,0.98 0.4,1.94 0.22,2.89 l 0.1,0.04 c 1.05,-1.75 2.46,-2.9 4.23,-3.44 1.77,-0.54 3.66,-0.41 5.67,0.38 2.18,0.86 3.89,2.13 5.12,3.8 1.23,1.67 1.89,3.66 1.99,5.96 0.09,2.3 -0.38,4.77 -1.42,7.39 -1.02,2.59 -2.31,4.63 -3.87,6.13 z"
   id="path250"
   style="fill:#ffffff" />
&#10;		<path
   class="st0"
   d="m 1806.82,1019.45 c -2.31,0.99 -4.93,1.26 -7.86,0.82 -2.93,-0.44 -6.1,-1.63 -9.52,-3.57 -3.38,-1.92 -6,-4.01 -7.86,-6.26 -1.86,-2.26 -2.92,-4.64 -3.18,-7.15 -0.26,-2.51 0.3,-4.99 1.7,-7.45 1.43,-2.52 3.29,-4.3 5.56,-5.35 2.28,-1.04 4.87,-1.35 7.76,-0.91 2.89,0.44 6.03,1.62 9.41,3.54 3.41,1.94 6.06,4.04 7.96,6.32 1.89,2.28 3.01,4.66 3.34,7.15 0.34,2.49 -0.22,5.01 -1.67,7.56 -1.45,2.54 -3.33,4.31 -5.64,5.3 z m 2.28,-12.33 c -0.36,-1.59 -1.29,-3.17 -2.79,-4.72 -1.5,-1.55 -3.56,-3.06 -6.18,-4.55 -2.49,-1.41 -4.79,-2.36 -6.9,-2.84 -2.11,-0.48 -3.91,-0.47 -5.4,0.04 -1.49,0.5 -2.68,1.55 -3.59,3.15 -0.87,1.53 -1.14,3.07 -0.82,4.62 0.32,1.55 1.22,3.13 2.69,4.72 1.48,1.6 3.46,3.1 5.95,4.51 2.62,1.48 4.99,2.45 7.11,2.9 2.13,0.45 3.97,0.42 5.52,-0.09 1.55,-0.51 2.77,-1.53 3.63,-3.06 0.89,-1.52 1.14,-3.09 0.78,-4.68 z"
   id="path251"
   style="fill:#ffffff" />
&#10;		<path
   class="st0"
   d="m 1798.03,968.46 4.13,-4.72 30.43,12.08 0.04,-0.04 -16.01,-28.55 3.8,-4.35 18.22,34.14 -4.42,5.05 z"
   id="path252"
   style="fill:#ffffff" />
&#10;		<path
   class="st0"
   d="m 1853.65,960.35 c -2.4,0.61 -4.72,0.48 -6.96,-0.38 -2.24,-0.86 -4.23,-2.35 -5.99,-4.46 l -14.75,-17.78 4.28,-3.55 14.71,17.74 c 1.19,1.44 2.49,2.41 3.89,2.92 1.4,0.51 2.88,0.57 4.44,0.18 1.56,-0.39 3.03,-1.16 4.41,-2.3 1.52,-1.26 2.62,-2.63 3.29,-4.09 0.67,-1.46 0.88,-2.92 0.64,-4.39 -0.24,-1.47 -0.96,-2.92 -2.15,-4.36 l -14.71,-17.74 3.81,-3.16 14.75,17.78 c 1.75,2.12 2.85,4.35 3.28,6.71 0.43,2.36 0.14,4.65 -0.88,6.87 -1.01,2.22 -2.69,4.31 -5.04,6.25 -2.28,1.9 -4.62,3.16 -7.02,3.76 z"
   id="path253"
   style="fill:#ffffff" />
&#10;		<path
   class="st0"
   d="m 1880.32,939.25 c -2.99,0 -5.84,-0.85 -8.54,-2.55 -2.7,-1.7 -5.02,-4.21 -6.95,-7.54 -1.9,-3.27 -2.91,-6.49 -3.03,-9.66 -0.12,-3.17 0.57,-6.03 2.08,-8.58 1.51,-2.55 3.71,-4.66 6.59,-6.34 2.89,-1.67 5.83,-2.54 8.82,-2.61 2.99,-0.06 5.83,0.75 8.51,2.44 2.68,1.69 4.96,4.17 6.86,7.43 1.93,3.33 2.96,6.59 3.07,9.79 0.12,3.2 -0.57,6.09 -2.05,8.69 -1.48,2.6 -3.67,4.73 -6.55,6.41 -2.88,1.69 -5.82,2.53 -8.81,2.52 z m 10.64,-11.07 c 1,-1.85 1.42,-3.94 1.26,-6.26 -0.16,-2.32 -0.97,-4.74 -2.42,-7.24 -1.42,-2.44 -3.08,-4.29 -4.99,-5.53 -1.91,-1.24 -3.9,-1.89 -5.99,-1.93 -2.08,-0.04 -4.06,0.48 -5.93,1.56 -1.9,1.1 -3.34,2.57 -4.32,4.38 -0.98,1.82 -1.39,3.86 -1.22,6.11 0.17,2.26 0.96,4.61 2.37,7.05 1.44,2.47 3.11,4.37 5.02,5.7 1.92,1.33 3.92,2.02 6.01,2.08 2.09,0.06 4.07,-0.45 5.94,-1.54 1.85,-1.07 3.27,-2.53 4.27,-4.38 z"
   id="path254"
   style="fill:#ffffff" />
&#10;		<path
   class="st0"
   d="m 1899.04,896.13 -10.01,4.15 -1.83,-4.42 25.1,-10.4 1.83,4.42 -9.91,4.1 12.02,29.01 -5.18,2.15 z"
   id="path255"
   style="fill:#ffffff" />
&#10;		<path
   class="st0"
   d="m 1929.98,885.36 -10.49,2.73 -1.21,-4.63 26.29,-6.85 1.21,4.63 -10.38,2.7 7.92,30.39 -5.43,1.41 z"
   id="path256"
   style="fill:#ffffff" />
&#10;		<path
   class="st0"
   d="m 1961.67,879.17 -7,32.41 -5.78,0.75 9.09,-37.67 6.82,-0.88 18.4,34.11 -6.33,0.82 -15.04,-29.55 z m -5.95,23.79 0.81,-4.04 15.11,-1.96 1.92,3.69 z"
   id="path257"
   style="fill:#ffffff" />
&#10;		<path
   class="st0"
   d="m 1986.05,885.39 5.44,0.09 -0.11,6.71 -5.44,-0.09 z"
   id="path258"
   style="fill:#ffffff" />
&#10;		<path
   class="st0"
   d="m 2000.3,907.92 -0.73,-8.23 0.6,0.05 c 1.4,6.25 5.14,9.55 8.81,9.86 4.11,0.35 8.16,-3.05 8.77,-10.23 0.43,-4.99 -1.29,-10.05 -5.67,-10.42 l -3.29,-0.28 0.67,-1.32 3.01,0.26 c 4.11,0.35 6.33,-3.04 6.65,-6.72 0.33,-3.89 -1.46,-8.07 -5.46,-8.42 -4,-0.34 -7.28,3.18 -9.32,9.52 l -0.55,-0.05 2.04,-8.99 c 2.4,-1.56 5.37,-2.13 8.22,-1.89 7.23,0.62 10.88,5.02 10.51,9.4 -0.29,3.34 -2.89,6.65 -8.1,8.25 5.08,2.53 7.12,7.12 6.75,11.45 -0.67,7.78 -6.65,11.3 -13.72,10.69 -2.96,-0.25 -6.13,-1.24 -9.19,-2.93 z"
   id="path259"
   style="fill:#ffffff" />
&#10;		<path
   class="st0"
   d="m 2029.85,893.17 c 2.41,-11.01 6.61,-19.38 16.23,-17.28 9.62,2.1 9.88,11.45 7.47,22.47 -2.42,11.07 -6.44,18.86 -16.05,16.75 -9.62,-2.1 -10.07,-10.87 -7.65,-21.94 z m 22.37,4.84 c 1.93,-8.81 0.81,-15.25 -7.25,-17.02 -8.17,-1.79 -11.83,3.6 -13.75,12.42 -1.93,8.81 -0.77,14.81 7.4,16.6 8.05,1.76 11.67,-3.19 13.6,-12 z"
   id="path260"
   style="fill:#ffffff" />
&#10;		<path
   class="st0"
   d="m 2066.79,922.22 c 3.44,1.05 5.62,0.84 6.65,-1.59 l 4.62,-10.82 0.23,-19.33 c -0.16,-2.7 -2.02,-4.51 -4.22,-5.81 l 0.22,-0.51 14.42,6.15 -0.22,0.51 c -3.34,-1.01 -4.85,-0.27 -4.89,2.22 l -0.21,16.47 12.14,-11.5 c 1.7,-1.61 1.26,-3.23 -1.78,-4.94 l 0.22,-0.51 10.52,4.49 -0.22,0.51 c -2.33,-0.57 -5.44,-0.71 -7.26,1.03 l -14.17,13.33 -4.6,10.77 c -1.04,2.43 0.33,4.14 3.46,5.9 l -0.22,0.51 -14.92,-6.36 z"
   id="path261"
   style="fill:#ffffff" />
&#10;		<path
   class="st0"
   d="m 2117.08,906.05 -5.15,8.13 0.65,0.41 c 3.72,2.35 5.57,1.18 6.93,-3.23 l 0.55,0.15 -4.23,17.5 -0.55,-0.15 c 0.83,-4.29 -0.13,-11.01 -3.43,-13.1 l -0.65,-0.41 -13.23,20.92 5.3,3.35 c 4.32,2.73 9.29,-0.7 12.53,-5.09 l 0.46,0.29 -6.62,10.46 -21.47,-13.58 0.29,-0.46 c 3.23,1.59 5.41,1.73 6.82,-0.5 l 15.64,-24.73 c 1.41,-2.23 0.34,-4.14 -2.47,-6.38 l 0.29,-0.46 21.47,13.58 -6.62,10.46 -0.46,-0.29 c 2.59,-4.81 3.56,-10.77 -0.77,-13.5 z"
   id="path262"
   style="fill:#ffffff" />
&#10;		<path
   class="st0"
   d="m 2108.31,943.03 c 3.01,1.87 5.6,2.58 7.68,1 l 28.65,-21.77 0.22,0.17 -13.61,33.79 c -1.03,2.55 0.49,4.72 2.97,7.16 l -0.34,0.43 -13.02,-10.23 0.34,-0.43 c 3.05,1.91 4.67,2.06 5.76,-0.65 l 1.53,-3.9 -7.91,-6.22 -3.48,2.65 c -2.07,1.66 -1.45,3.27 1.04,5.71 l -0.34,0.43 -9.82,-7.71 z m 20.73,4.26 6.58,-16.3 -13.89,10.56 z"
   id="path263"
   style="fill:#ffffff" />
&#10;		<path
   class="st0"
   d="m 2152.83,983.29 -0.39,0.38 -0.96,-0.99 c -2.76,-2.84 -5.09,-5.41 -3.48,-8.88 3.74,-7.99 17.92,-14 11.06,-21.07 l -1.57,-1.62 -15.44,14.97 c -1.9,1.84 -1.31,3.95 0.91,6.78 l -0.39,0.38 -11.29,-11.65 0.39,-0.38 c 2.77,2.3 4.86,2.95 6.75,1.12 l 21.01,-20.37 c 1.9,-1.84 1.31,-3.95 -0.91,-6.78 l 0.39,-0.38 11.75,12.12 c 4.1,4.23 4.5,8.12 1.82,10.72 -1.94,1.88 -5.24,1.55 -9.16,-1.39 5.92,7.21 -7.08,12.61 -10.78,20.25 -1.84,3.8 -1.12,5.33 0.29,6.79 z m 15.64,-29.79 c 1.74,-1.68 2.25,-4.55 -0.12,-7 l -2.95,-3.04 -6.87,6.74 2.91,3 c 2.36,2.45 5.29,1.99 7.03,0.3 z"
   id="path264"
   style="fill:#ffffff" />
&#10;		<path
   class="st0"
   d="m 2154.39,983.3 6.8,-6.77 0.33,0.44 c -4.59,5.5 -4.96,11.73 -2.56,14.88 1.5,1.97 3.87,2.45 6.62,0.34 5.34,-4.07 4.82,-21.44 12.65,-27.41 3.11,-2.37 7.52,-1.93 10.69,2.23 2.4,3.15 2.66,5.03 2.78,7.63 l -6.19,6.03 -0.33,-0.44 c 3.67,-5.08 4.72,-9.68 2.82,-12.18 -1.27,-1.66 -3.34,-2.02 -5.7,-0.22 -7.35,5.6 -5.24,21.07 -13.07,27.04 -4.46,3.4 -8.94,0.79 -11.47,-2.53 -2.14,-2.79 -3.86,-6.32 -3.37,-9.04 z"
   id="path265"
   style="fill:#ffffff" />
&#10;		<path
   class="st0"
   d="m 2188.45,1001.8 c 9.88,-4.97 20.93,-3.68 24.9,4.23 3.98,7.91 -1.61,17.5 -11.49,22.46 -9.93,4.99 -20.41,3.49 -24.39,-4.43 -3.97,-7.91 1.06,-17.27 10.98,-22.26 z m 10.95,21.78 c 10.52,-5.29 15.75,-10.93 12.73,-16.93 -3.06,-6.09 -10.69,-5.22 -21.21,0.07 -10.08,5.06 -15.28,10.63 -12.22,16.73 3.02,5.99 10.62,5.19 20.7,0.13 z"
   id="path266"
   style="fill:#ffffff" />
&#10;		<path
   class="st0"
   d="m 2217.71,1052.58 -0.18,-0.52 c 5.03,-2.12 9.52,-6.16 7.87,-11 l -2.03,-5.93 -9.11,3.11 0.25,0.73 c 1.42,4.16 3.6,4.41 7.42,1.82 l 0.33,0.47 -14.27,10.98 -0.33,-0.47 c 3.34,-2.83 6.81,-8.66 5.54,-12.36 l -0.25,-0.73 -20.35,6.95 c -2.5,0.85 -2.87,3.01 -2.07,6.52 l -0.52,0.18 -5.24,-15.35 0.52,-0.18 c 1.52,3.26 3.13,4.74 5.63,3.89 l 27.69,-9.46 c 2.5,-0.85 2.87,-3.01 2.07,-6.52 l 0.52,-0.18 8.21,24.05 z"
   id="path267"
   style="fill:#ffffff" />
&#10;		<path
   class="st0"
   d="m 2234.16,1077.36 -9.52,1.39 0.11,0.76 c 0.64,4.35 2.73,4.99 6.96,3.15 l 0.24,0.52 -16.04,8.18 -0.24,-0.52 c 3.8,-2.17 8.28,-7.27 7.71,-11.14 l -0.11,-0.76 -24.49,3.58 0.91,6.21 c 0.74,5.06 6.58,6.6 12.02,6.19 l 0.08,0.54 -12.25,1.79 -3.68,-25.15 0.54,-0.08 c 0.9,3.48 2.21,5.24 4.82,4.85 l 28.96,-4.24 c 2.61,-0.38 3.37,-2.44 3.23,-6.03 l 0.54,-0.08 3.68,25.15 -12.25,1.79 -0.08,-0.54 c 5.33,-1.17 10.49,-4.31 9.75,-9.38 z"
   id="path268"
   style="fill:#ffffff" />
&#10;		<path
   class="st0"
   d="m 2238.87,1130.92 -0.55,0.01 c -0.44,-3.57 -1.52,-5.48 -4.16,-5.43 l -34.7,0.56 v -0.27 l 33.86,-18.75 -28.71,0.46 c -2.64,0.04 -3.65,1.98 -3.98,5.56 l -0.55,0.01 -0.2,-12.37 0.55,-0.01 c 0.44,3.57 1.52,5.48 4.16,5.43 l 29.97,-0.48 c 2.14,-0.36 2.99,-2.25 3.27,-5.5 l 0.55,-0.01 0.16,10.17 -25.57,14.16 21.17,-0.34 c 2.64,-0.04 3.65,-1.98 3.98,-5.57 l 0.55,-0.01 z"
   id="path269"
   style="fill:#ffffff" />
&#10;		<path
   class="st0"
   d="m 2222.02,1162.66 0.08,-0.54 c 5.44,0.4 11.29,-1.2 12.02,-6.2 l 0.21,-1.47 -32.17,-4.67 c -2.61,-0.38 -3.92,1.38 -4.82,4.86 l -0.54,-0.08 2.33,-16.06 0.54,0.08 c -0.13,3.59 0.62,5.65 3.24,6.03 l 32.17,4.67 0.21,-1.47 c 0.73,-5.01 -4.42,-8.2 -9.75,-9.36 l 0.08,-0.54 12.25,1.78 -3.6,24.76 z"
   id="path270"
   style="fill:#ffffff" />
&#10;		<path
   class="st0"
   d="m 2186.8,1192.42 -0.53,-0.16 0.4,-1.31 c 1.17,-3.79 2.29,-7.06 6.11,-7.33 8.81,-0.57 20.89,8.97 23.79,-0.44 l 0.66,-2.16 -20.55,-6.33 c -2.52,-0.78 -4.09,0.75 -5.51,4.06 l -0.53,-0.16 4.78,-15.51 0.53,0.16 c -0.68,3.53 -0.25,5.68 2.27,6.45 l 27.97,8.61 c 2.52,0.78 4.09,-0.75 5.51,-4.06 l 0.53,0.16 -4.97,16.14 c -1.73,5.62 -4.95,7.86 -8.53,6.75 -2.58,-0.79 -3.88,-3.84 -3.19,-8.7 -3.47,8.66 -14.46,-0.14 -22.94,0.3 -4.2,0.22 -5.2,1.58 -5.8,3.53 z m 33.63,-0.64 c 2.31,0.71 5.08,-0.22 6.08,-3.48 l 1.25,-4.05 -9.22,-2.78 -1.23,4 c -1,3.26 0.81,5.6 3.12,6.31 z"
   id="path271"
   style="fill:#ffffff" />
&#10;		<path
   class="st0"
   d="m 2203.97,1199.31 c 10,4.72 15.8,14.21 12.02,22.22 -3.78,8.01 -14.77,9.51 -24.77,4.79 -10.05,-4.74 -15.32,-13.93 -11.54,-21.93 3.78,-8.01 14.24,-9.82 24.29,-5.08 z m -10.4,22.04 c 10.64,5.03 18.31,5.66 21.18,-0.4 2.91,-6.17 -2.48,-11.63 -13.12,-16.66 -10.2,-4.81 -17.79,-5.48 -20.7,0.69 -2.87,6.06 2.44,11.55 12.64,16.37 z"
   id="path272"
   style="fill:#ffffff" />
&#10;		<path
   class="st0"
   d="m 2187.48,1255.6 c -3.7,-2.37 -3.19,-7.66 0.64,-13.63 l 1.48,-2.31 -17.04,-10.92 c -2.22,-1.42 -4.14,-0.37 -6.39,2.43 l -0.46,-0.3 8.75,-13.66 0.46,0.3 c -1.6,3.22 -1.76,5.4 0.46,6.83 l 24.63,15.79 c 2.22,1.42 4.14,0.37 6.39,-2.43 l 0.46,0.3 -8.64,13.47 c -2.93,4.57 -7.27,6.36 -10.74,4.13 z m 12.44,-9.33 -9.17,-5.88 -1.42,2.22 c -2.61,4.07 -1.06,6.96 1.06,8.33 2.18,1.39 5.49,1.62 8.1,-2.45 z"
   id="path273"
   style="fill:#ffffff" />
&#10;		<path
   class="st0"
   d="m 2155.52,1246 c -2.05,2.95 -2.52,5.09 -0.53,6.82 l 8.9,7.71 18.34,6.14 c 2.62,0.67 4.91,-0.55 6.82,-2.24 l 0.42,0.36 -10.27,11.85 -0.42,-0.36 c 1.98,-2.87 1.74,-4.53 -0.61,-5.34 l -15.62,-5.24 7.24,15.08 c 1.01,2.11 2.69,2.19 5.25,-0.18 l 0.42,0.36 -7.49,8.65 -0.42,-0.36 c 1.26,-2.04 2.34,-4.96 1.24,-7.22 l -8.35,-17.57 -8.85,-7.67 c -2,-1.73 -4.05,-0.96 -6.68,1.49 l -0.42,-0.36 10.63,-12.26 z"
   id="path274"
   style="fill:#ffffff" />
&#10;		<path
   class="st0"
   d="m 2149.73,1286.27 -3.97,3.39 -4.39,-5.15 3.97,-3.39 z"
   id="path275"
   style="fill:#ffffff" />
&#10;	</g>
&#10;	<g
   id="g284">&#10;		<path
   class="st0"
   d="m 1874.45,1326.06 c -0.39,0.66 -0.57,1.32 -0.55,1.97 0.02,0.65 0.24,1.28 0.65,1.88 0.41,0.6 1.02,1.23 1.83,1.88 0.17,0.14 0.33,0.27 0.48,0.38 0.15,0.11 0.29,0.23 0.43,0.35 l -0.28,0.47 -14.46,-8.5 0.28,-0.47 c 0.14,0.04 0.29,0.11 0.43,0.19 0.14,0.08 0.29,0.15 0.43,0.19 0.98,0.36 1.86,0.59 2.65,0.7 0.79,0.1 1.48,0.01 2.08,-0.28 0.59,-0.29 1.09,-0.76 1.48,-1.43 l 12.9,-21.96 c -1.16,0.08 -2.47,-0.08 -3.95,-0.5 -1.48,-0.42 -2.73,-0.91 -3.76,-1.47 l 0.7,-1.19 c 0.87,0.47 2.07,0.79 3.61,0.97 1.53,0.18 3.18,-0.02 4.93,-0.58 1.76,-0.56 3.29,-1.67 4.6,-3.33 l 2.66,1.56 z"
   id="path276"
   style="fill:#ffffff" />
&#10;		<path
   class="st0"
   d="m 1893.23,1313.81 c 1.17,-2.69 2.66,-4.84 4.44,-6.46 1.79,-1.62 3.8,-2.59 6.04,-2.91 2.24,-0.32 4.55,0.04 6.94,1.08 2.55,1.12 4.41,2.69 5.56,4.71 1.16,2.03 1.64,4.47 1.45,7.33 -0.19,2.86 -1.06,6.07 -2.62,9.63 -1.95,4.47 -4.04,8 -6.27,10.58 -2.23,2.58 -4.56,4.24 -7,4.96 -2.43,0.72 -4.96,0.5 -7.58,-0.64 -1.38,-0.6 -2.75,-1.53 -4.12,-2.79 -1.37,-1.26 -2.54,-2.76 -3.5,-4.5 l 2.08,-7.37 0.5,0.22 c -0.13,2.31 0.02,4.36 0.46,6.17 0.43,1.81 1.1,3.31 2.02,4.51 0.92,1.2 1.96,2.06 3.14,2.57 1.34,0.59 2.75,0.69 4.22,0.31 1.47,-0.38 2.9,-1.27 4.29,-2.69 1.4,-1.41 2.67,-3.25 3.82,-5.51 -0.61,0.21 -1.37,0.33 -2.26,0.36 -0.89,0.03 -1.88,-0.06 -2.94,-0.27 -1.07,-0.21 -2.13,-0.54 -3.17,-0.99 -2.25,-0.98 -4,-2.4 -5.23,-4.24 -1.24,-1.84 -1.89,-3.97 -1.95,-6.4 -0.06,-2.41 0.5,-4.97 1.68,-7.66 z m 17.79,9.15 c 1.28,-2.92 2.01,-5.51 2.19,-7.77 0.19,-2.26 -0.03,-4.12 -0.66,-5.57 -0.63,-1.45 -1.54,-2.45 -2.75,-2.97 -1.18,-0.51 -2.44,-0.55 -3.79,-0.12 -1.35,0.43 -2.72,1.43 -4.13,3 -1.4,1.57 -2.7,3.71 -3.89,6.43 -1.15,2.62 -1.79,4.98 -1.95,7.07 -0.16,2.09 0.07,3.8 0.67,5.12 0.6,1.32 1.44,2.22 2.52,2.69 1.31,0.57 2.67,0.71 4.08,0.4 1.41,-0.3 2.78,-1.15 4.1,-2.53 1.32,-1.38 2.53,-3.29 3.61,-5.75 z"
   id="path277"
   style="fill:#ffffff" />
&#10;		<path
   class="st0"
   d="m 1922.45,1326.08 c 0.77,-2.83 1.93,-5.17 3.47,-7.03 1.54,-1.86 3.39,-3.11 5.56,-3.75 2.17,-0.64 4.51,-0.62 7.02,0.07 2.69,0.74 4.75,2.02 6.19,3.86 1.43,1.84 2.27,4.18 2.49,7.04 0.22,2.86 -0.18,6.16 -1.2,9.91 -1.29,4.7 -2.85,8.5 -4.68,11.38 -1.83,2.88 -3.91,4.85 -6.21,5.91 -2.31,1.06 -4.84,1.21 -7.6,0.46 -1.45,-0.4 -2.94,-1.12 -4.48,-2.17 -1.54,-1.05 -2.91,-2.36 -4.11,-3.95 l 1,-7.6 0.53,0.15 c 0.21,2.3 0.65,4.31 1.34,6.04 0.69,1.73 1.57,3.12 2.65,4.18 1.08,1.06 2.24,1.75 3.48,2.09 1.41,0.39 2.82,0.29 4.22,-0.3 1.4,-0.59 2.68,-1.68 3.86,-3.28 1.18,-1.6 2.17,-3.6 2.98,-6 -0.58,0.3 -1.3,0.53 -2.18,0.69 -0.88,0.16 -1.86,0.21 -2.95,0.16 -1.09,-0.05 -2.18,-0.23 -3.28,-0.53 -2.37,-0.65 -4.3,-1.79 -5.79,-3.44 -1.49,-1.64 -2.44,-3.66 -2.85,-6.05 -0.42,-2.4 -0.24,-5.01 0.54,-7.84 z m 18.92,6.49 c 0.84,-3.08 1.19,-5.75 1.05,-8.01 -0.14,-2.26 -0.63,-4.07 -1.45,-5.42 -0.83,-1.35 -1.88,-2.2 -3.15,-2.55 -1.24,-0.34 -2.49,-0.2 -3.76,0.42 -1.27,0.62 -2.49,1.81 -3.66,3.56 -1.16,1.75 -2.14,4.06 -2.92,6.93 -0.75,2.76 -1.06,5.18 -0.91,7.28 0.15,2.09 0.62,3.75 1.4,4.98 0.79,1.22 1.75,1.99 2.88,2.3 1.38,0.38 2.75,0.32 4.1,-0.19 1.35,-0.5 2.59,-1.53 3.7,-3.09 1.11,-1.56 2.01,-3.62 2.72,-6.21 z"
   id="path278"
   style="fill:#ffffff" />
&#10;		<path
   class="st0"
   d="m 1959.83,1360.43 c -1.56,-0.2 -3.16,-0.6 -4.78,-1.2 -1.62,-0.6 -3.21,-1.35 -4.76,-2.25 l -0.37,-8.31 0.6,0.08 c 0.4,2.05 1.04,3.83 1.92,5.35 0.88,1.52 1.94,2.7 3.18,3.54 1.24,0.84 2.52,1.35 3.82,1.52 1.49,0.19 2.94,-0.05 4.33,-0.72 1.4,-0.67 2.58,-1.78 3.53,-3.32 0.96,-1.54 1.58,-3.46 1.88,-5.75 0.22,-1.71 0.15,-3.34 -0.2,-4.91 -0.35,-1.56 -1.01,-2.88 -1.96,-3.94 -0.95,-1.07 -2.14,-1.69 -3.56,-1.87 l -3.49,-0.45 0.78,-1.29 3.16,0.41 c 1.38,0.18 2.6,-0.01 3.65,-0.56 1.05,-0.55 1.9,-1.33 2.55,-2.33 0.65,-1.01 1.06,-2.17 1.22,-3.47 0.17,-1.34 0.07,-2.65 -0.3,-3.92 -0.37,-1.27 -1.01,-2.34 -1.92,-3.21 -0.9,-0.87 -2.03,-1.4 -3.37,-1.57 -1.35,-0.17 -2.66,0.07 -3.95,0.71 -1.29,0.65 -2.46,1.69 -3.53,3.12 -1.07,1.43 -2,3.19 -2.79,5.27 l -0.54,-0.07 2.42,-8.89 c 1.27,-0.69 2.68,-1.16 4.23,-1.42 1.55,-0.26 3.11,-0.29 4.67,-0.09 2.36,0.3 4.38,0.96 6.04,1.97 1.66,1.01 2.88,2.22 3.64,3.63 0.76,1.41 1.05,2.86 0.85,4.35 -0.22,1.75 -1.08,3.32 -2.58,4.71 -1.5,1.39 -3.58,2.42 -6.25,3.08 1.7,0.88 3.07,1.97 4.13,3.25 1.05,1.28 1.79,2.65 2.22,4.11 0.42,1.46 0.54,2.95 0.34,4.48 -0.32,2.47 -1.17,4.52 -2.56,6.13 -1.39,1.61 -3.14,2.74 -5.26,3.37 -2.11,0.64 -4.44,0.79 -6.99,0.46 z"
   id="path279"
   style="fill:#ffffff" />
&#10;		<path
   class="st0"
   d="m 2004.63,1347.15 0.03,1.65 -21.01,0.34 -0.03,-1.65 z"
   id="path280"
   style="fill:#ffffff" />
&#10;		<path
   class="st0"
   d="m 2030.47,1360.01 c -1.2,0.16 -2.4,0.03 -3.6,-0.38 -1.2,-0.41 -2.62,-1.05 -4.25,-1.91 -1.23,-0.61 -2.19,-1.06 -2.9,-1.34 -0.7,-0.28 -1.33,-0.38 -1.87,-0.31 -0.58,0.08 -1.05,0.42 -1.42,1.02 -0.2,0.43 -0.39,0.96 -0.57,1.57 -0.18,0.62 -0.33,1.45 -0.45,2.5 l -1.36,0.18 c 0.04,-1.08 0.31,-2.45 0.82,-4.1 0.5,-1.66 1.14,-3.2 1.91,-4.63 0.87,-1.78 1.82,-3.31 2.83,-4.59 1.01,-1.28 2.2,-2.64 3.57,-4.08 1.4,-1.44 2.44,-2.65 3.13,-3.63 0.68,-0.98 1.2,-2.19 1.54,-3.64 0.34,-1.45 0.38,-3.18 0.12,-5.17 -0.28,-2.14 -0.81,-3.94 -1.57,-5.4 -0.77,-1.45 -1.68,-2.49 -2.74,-3.1 -1.06,-0.62 -2.17,-0.85 -3.34,-0.7 -1.24,0.16 -2.41,0.72 -3.53,1.66 -1.12,0.94 -2.11,2.26 -3,3.95 -0.89,1.69 -1.57,3.66 -2.05,5.9 l -0.54,0.07 v -9.21 c 1.53,-1.05 3.08,-1.9 4.66,-2.53 1.58,-0.63 3.13,-1.05 4.66,-1.25 2.22,-0.29 4.24,-0.12 6.06,0.53 1.82,0.65 3.31,1.72 4.45,3.21 1.14,1.5 1.86,3.33 2.14,5.51 0.33,2.47 0.25,4.51 -0.22,6.1 -0.47,1.6 -1.19,2.9 -2.14,3.92 -0.96,1.01 -2.35,2.27 -4.19,3.77 -1.67,1.37 -3.09,2.61 -4.25,3.72 -1.17,1.12 -2.33,2.45 -3.49,4.01 0.64,-0.16 1.42,-0.09 2.33,0.22 0.91,0.3 2.12,0.84 3.62,1.6 1.58,0.75 2.88,1.31 3.91,1.67 1.03,0.36 1.94,0.49 2.74,0.39 0.84,-0.11 1.46,-0.37 1.87,-0.77 0.41,-0.41 0.65,-1 0.73,-1.79 0.08,-0.79 0.03,-1.87 -0.15,-3.25 l 1.36,-0.18 c 0.37,2.5 0.43,4.47 0.2,5.91 -0.24,1.44 -0.75,2.5 -1.55,3.2 -0.8,0.7 -1.95,1.15 -3.47,1.35 z"
   id="path281"
   style="fill:#ffffff" />
&#10;		<path
   class="st0"
   d="m 2058.63,1353.97 c -3.11,0.86 -5.79,0.73 -8.04,-0.39 -2.25,-1.11 -4.12,-2.95 -5.63,-5.53 -1.51,-2.58 -2.8,-5.84 -3.89,-9.8 -1.09,-3.96 -1.66,-7.47 -1.7,-10.54 -0.04,-3.07 0.61,-5.7 1.96,-7.9 1.35,-2.2 3.57,-3.72 6.64,-4.57 3.04,-0.84 5.7,-0.66 7.98,0.51 2.28,1.18 4.19,3.1 5.72,5.76 1.53,2.66 2.84,5.99 3.94,9.98 1.09,3.96 1.64,7.43 1.66,10.41 0.02,2.98 -0.65,5.52 -2.01,7.63 -1.36,2.11 -3.55,3.6 -6.63,4.44 z m -1.38,-5.04 c 2.65,-0.73 4.63,-1.87 5.93,-3.43 1.3,-1.56 2.02,-3.46 2.16,-5.73 0.14,-2.26 -0.21,-4.91 -1.05,-7.96 -0.85,-3.08 -1.91,-5.58 -3.2,-7.5 -1.29,-1.93 -2.9,-3.26 -4.84,-4 -1.93,-0.74 -4.23,-0.75 -6.88,-0.02 -2.65,0.73 -4.64,1.9 -5.96,3.52 -1.32,1.62 -2.04,3.59 -2.14,5.92 -0.1,2.33 0.27,5.03 1.12,8.11 0.85,3.08 1.9,5.54 3.15,7.41 1.25,1.86 2.84,3.13 4.75,3.8 1.91,0.67 4.23,0.63 6.96,-0.12 z"
   id="path282"
   style="fill:#ffffff" />
&#10;		<path
   class="st0"
   d="m 2094.63,1341.01 c -1.11,0.48 -2.3,0.68 -3.57,0.61 -1.27,-0.07 -2.8,-0.3 -4.6,-0.69 -1.35,-0.26 -2.4,-0.43 -3.15,-0.5 -0.75,-0.08 -1.38,-0.01 -1.88,0.21 -0.54,0.23 -0.9,0.69 -1.09,1.37 -0.08,0.47 -0.12,1.03 -0.12,1.67 0,0.64 0.08,1.48 0.25,2.53 l -1.26,0.54 c -0.25,-1.05 -0.36,-2.44 -0.32,-4.17 0.04,-1.73 0.23,-3.39 0.58,-4.98 0.36,-1.95 0.85,-3.68 1.48,-5.19 0.63,-1.51 1.41,-3.14 2.33,-4.89 0.96,-1.77 1.63,-3.21 2.03,-4.34 0.39,-1.13 0.56,-2.43 0.5,-3.92 -0.06,-1.49 -0.49,-3.16 -1.29,-5.01 -0.85,-1.99 -1.85,-3.58 -2.98,-4.77 -1.13,-1.19 -2.29,-1.94 -3.48,-2.25 -1.19,-0.31 -2.32,-0.23 -3.4,0.23 -1.15,0.49 -2.13,1.34 -2.95,2.55 -0.82,1.21 -1.42,2.75 -1.82,4.61 -0.4,1.87 -0.52,3.95 -0.37,6.24 l -0.51,0.22 -2.49,-8.87 c 1.18,-1.43 2.45,-2.66 3.8,-3.7 1.35,-1.04 2.73,-1.86 4.15,-2.47 2.05,-0.88 4.05,-1.26 5.98,-1.13 1.93,0.13 3.65,0.76 5.15,1.89 1.5,1.13 2.69,2.71 3.56,4.73 0.98,2.29 1.46,4.27 1.44,5.94 -0.02,1.67 -0.36,3.12 -1,4.35 -0.64,1.23 -1.65,2.83 -3.01,4.77 -1.24,1.77 -2.26,3.35 -3.08,4.74 -0.82,1.39 -1.58,2.99 -2.27,4.81 0.58,-0.33 1.34,-0.47 2.3,-0.42 0.96,0.05 2.27,0.23 3.92,0.56 1.72,0.3 3.13,0.48 4.22,0.55 1.09,0.07 2,-0.05 2.74,-0.37 0.78,-0.33 1.3,-0.75 1.59,-1.25 0.28,-0.5 0.36,-1.14 0.22,-1.92 -0.14,-0.78 -0.48,-1.81 -1.03,-3.09 l 1.26,-0.54 c 1.03,2.31 1.63,4.19 1.79,5.64 0.16,1.45 -0.04,2.61 -0.62,3.5 -0.58,0.89 -1.58,1.6 -3,2.21 z"
   id="path283"
   style="fill:#ffffff" />
&#10;		<path
   class="st0"
   d="m 2117.34,1329.1 c -1.36,0.81 -2.86,1.47 -4.5,2 -1.65,0.53 -3.36,0.92 -5.13,1.16 l -5.42,-6.31 0.52,-0.31 c 1.58,1.37 3.18,2.38 4.81,3.03 1.62,0.66 3.19,0.93 4.68,0.83 1.5,-0.1 2.81,-0.49 3.95,-1.16 1.29,-0.77 2.28,-1.85 2.97,-3.24 0.69,-1.39 0.93,-2.99 0.74,-4.79 -0.2,-1.8 -0.88,-3.7 -2.06,-5.68 -0.88,-1.48 -1.94,-2.73 -3.18,-3.74 -1.24,-1.01 -2.57,-1.64 -3.97,-1.89 -1.41,-0.25 -2.73,-0.01 -3.96,0.72 l -3.03,1.8 -0.18,-1.49 2.74,-1.63 c 1.2,-0.71 2.04,-1.61 2.53,-2.69 0.49,-1.08 0.68,-2.21 0.57,-3.41 -0.11,-1.19 -0.5,-2.36 -1.18,-3.49 -0.69,-1.17 -1.58,-2.13 -2.65,-2.9 -1.08,-0.77 -2.24,-1.22 -3.49,-1.35 -1.25,-0.13 -2.46,0.15 -3.62,0.84 -1.17,0.69 -2.06,1.69 -2.67,2.99 -0.61,1.3 -0.9,2.85 -0.86,4.64 0.04,1.79 0.39,3.75 1.05,5.87 l -0.47,0.28 -3.58,-8.5 c 0.58,-1.32 1.4,-2.57 2.46,-3.73 1.06,-1.16 2.26,-2.15 3.62,-2.95 2.05,-1.22 4.04,-1.94 5.97,-2.17 1.93,-0.23 3.63,-0.03 5.1,0.62 1.47,0.65 2.59,1.61 3.35,2.9 0.9,1.51 1.19,3.28 0.88,5.3 -0.31,2.02 -1.32,4.11 -3.02,6.27 1.88,-0.35 3.63,-0.35 5.25,0.01 1.62,0.36 3.05,0.98 4.28,1.87 1.23,0.89 2.24,2 3.03,3.32 1.27,2.14 1.86,4.28 1.76,6.41 -0.1,2.13 -0.79,4.09 -2.06,5.9 -1.28,1.8 -3.02,3.36 -5.23,4.67 z"
   id="path284"
   style="fill:#ffffff" />
&#10;	</g>
&#10;</g>
  </g>
</svg>
